{
.appVersion = "3133";
.formatVersion = 3;
axes = (
{
name = Weight;
tag = wght;
}
);
classes = (
{
automatic = 1;
code = "A Aacute Abreve Abreveacute Abrevedotbelow Abrevegrave Abrevehookabove Abrevetilde Acircumflex Acircumflexacute Acircumflexdotbelow Acircumflexgrave Acircumflexhookabove Acircumflextilde Adblgrave Adieresis Adotbelow Agrave Ahookabove Ainvertedbreve Amacron Aogonek Aring Aringacute Atilde AE AEacute B C Cacute Ccaron Ccedilla Ccircumflex Cdotaccent D DZcaron Eth Dcaron Dcroat Dzcaron E Eacute Ebreve Ecaron Ecircumflex Ecircumflexacute Ecircumflexdotbelow Ecircumflexgrave Ecircumflexhookabove Ecircumflextilde Edblgrave Edieresis Edotaccent Edotbelow Egrave Ehookabove Einvertedbreve Emacron Eogonek Etilde F G Gbreve Gcaron Gcircumflex Gcommaaccent Gdotaccent H Hbar Hcircumflex I IJ Iacute Ibreve Icircumflex Idblgrave Idieresis Idotaccent Idotbelow Igrave Ihookabove Iinvertedbreve Imacron Iogonek Itilde J Jcircumflex K Kcommaaccent L LJ Lacute Lcaron Lcommaaccent Ldot Lj Lslash M N NJ Nacute Ncaron Ncommaaccent Eng Nj Ntilde O Oacute Obreve Ocircumflex Ocircumflexacute Ocircumflexdotbelow Ocircumflexgrave Ocircumflexhookabove Ocircumflextilde Odblgrave Odieresis Odieresismacron Odotaccentmacron Odotbelow Ograve Ohookabove Ohorn Ohornacute Ohorndotbelow Ohorngrave Ohornhookabove Ohorntilde Ohungarumlaut Oinvertedbreve Omacron Oogonek Oslash Oslashacute Otilde Otildemacron OE P Thorn Q R Racute Rcaron Rcommaaccent Rdblgrave Rinvertedbreve S Sacute Scaron Scedilla Scircumflex Scommaaccent Germandbls Schwa T Tbar Tcaron Tcedilla Tcommaaccent U Uacute Ubreve Ucircumflex Udblgrave Udieresis Udotbelow Ugrave Uhookabove Uhorn Uhornacute Uhorndotbelow Uhorngrave Uhornhookabove Uhorntilde Uhungarumlaut Uinvertedbreve Umacron Uogonek Uring Utilde V W Wacute Wcircumflex Wdieresis Wgrave X Y Yacute Ycircumflex Ydieresis Ydotbelow Ygrave Yhookabove Ymacron Ytilde Z Zacute Zcaron Zdotaccent Delta Omega";
name = Uppercase;
},
{

glyphs = (
{
glyphname = A;
kernLeft = A;
kernRight = A;
lastChange = "2022-09-23 07:47:40 +0000";
layers = (
{
anchors = (
{
name = bottom;
pos = (297,0);
},
{
name = ogonek;
pos = (620,12);
},
{
name = top;
pos = (371,847);
}
);
background = {
shapes = (
{
closed = 1;
nodes = (
(308,776,l),
(276,693,ls),
(210,522,o),
(-5,88,o),
(-5,44,cs),
(-5,20,o),
(11,-6,o),
(76,-33,c),
(137,219,o),
(284,539,o),
(352,707,c)
);
},
{
closed = 1;
nodes = (
(487,12,o),
(500,-16,o),
(541,-16,cs),
(561,-16,o),
(593,-4,o),
(620,12,c),
(551,108,o),
(521,299,o),
(480,493,cs),
(439,687,o),
(417,805,o),
(322,805,cs),
(305,805,o),
(284,801,o),
(263,793,c),
(277,776,o),
(301,755,o),
(318,708,cs),
(378,540,o),
(446,148,o),
(473,64,cs)
);
},
{
closed = 1;
nodes = (
(145,231,l),
(337,238,ls),
(378,240,o),
(429,249,o),
(436,306,c),
(167,306,l)
);
}
);
};
hints = (
{
horizontal = 1;
place = (238, 68);
place = (238, 68);
type = Stem;
},
{
horizontal = 1;
place = (-33, 21);
target = up;
type = BottomGhost;
},
{
horizontal = 1;
place = (-16, 21);
target = up;
type = BottomGhost;
},
{
horizontal = 1;
place = (805, -20);
target = down;
type = TopGhost;
}
);
layerId = UUID0;
shapes = (
{
closed = 1;
nodes = (
(308,776,l),
(223,539,o),
(-5,94,o),
(-5,44,cs),
(-5,20,o),
(11,-6,o),
(76,-33,c),
(137,219,o),
(284,539,o),
(352,707,c)
);
},
{
closed = 1;
nodes = (
(487,12,o),
(500,-16,o),
(541,-16,cs),
(561,-16,o),
(593,-4,o),
(620,12,c),
(551,108,o),
(521,299,o),
(480,493,cs),
(439,687,o),
(417,805,o),
(322,805,cs),
(305,805,o),
(284,801,o),
(263,793,c),
(277,776,o),
(301,755,o),
(318,708,cs),
(378,540,o),
(446,148,o),
(473,64,cs)
);
},
{
closed = 1;
nodes = (
(145,231,l),
(337,238,ls),
(378,240,o),
(429,249,o),
(436,306,c),
(167,306,l)
);
}
);
width = 645;
},
{
anchors = (
{
name = bottom;
pos = (271,0);
},
{
name = ogonek;
pos = (635,12);
},
{
name = top;
pos = (419,847);
}
);
background = {
shapes = (
{
closed = 1;
nodes = (
(291,753,l),
(287,741,ls),
(230,576,o),
(0,114,o),
(-16,66,cs),
(-19,59,o),
(-20,51,o),
(-20,44,cs),
(-20,20,o),
(-1,-6,o),
(76,-33,c),
(139,219,o),
(312,537,o),
(372,707,cs),
(378,725,o),
(382,736,o),
(382,746,c)
);
},
{
closed = 1;
nodes = (
(474,12,o),
(490,-16,o),
(540,-16,cs),
(564,-16,o),
(602,-4,o),
(635,12,c),
(566,108,o),
(540,300,o),
(495,493,cs),
(450,688,o),
(446,805,o),
(315,805,cs),
(296,805,o),
(272,801,o),
(248,793,c),
(262,776,o),
(286,755,o),
(303,708,cs),
(363,540,o),
(430,148,o),
(458,64,c)
);
},
{
closed = 1;
nodes = (
(145,231,l),
(337,238,ls),
(378,240,o),
(429,249,o),
(436,306,c),
(167,306,l)
);
}
);
};
layerId = UUID1;
shapes = (
{
closed = 1;
nodes = (
(298,776,l),
(217,527,o),
(-20,94,o),
(-20,44,cs),
(-20,20,o),
(0,-6,o),
(82,-33,c),
(144,214,o),
(306,538,o),
(363,709,c)
);
},
{
closed = 1;
nodes = (
(475,12,o),
(490,-16,o),
(540,-16,cs),
(564,-16,o),
(602,-4,o),
(635,12,c),
(566,108,o),
(540,300,o),
(495,493,cs),
(450,688,o),
(446,805,o),
(315,805,cs),
(296,805,o),
(272,801,o),
(248,793,c),
(262,776,o),
(286,755,o),
(303,708,cs),
(363,540,o),
(431,148,o),
(458,64,cs)
);
},
{
closed = 1;
nodes = (
(135,221,l),
(337,228,ls),
(385,230,o),
(429,249,o),
(436,306,c),
(167,306,l)
);
}
);
width = 645;
},
{
anchors = (
{
name = bottom;
pos = (321,0);
},
{
name = ogonek;
pos = (697,12);
},
{
name = top;
pos = (395,847);
}
);
background = {
shapes = (
{
closed = 1;
nodes = (
(315,776,l),
(287,693,ls),
(227,517,o),
(-19,88,o),
(-19,44,cs),
(-19,21,o),
(9,-6,o),
(126,-33,c),
(190,204,o),
(378,534,o),
(419,712,c)
);
},
{
closed = 1;
nodes = (
(479,14,o),
(500,-16,o),
(569,-16,cs),
(601,-16,o),
(652,-4,o),
(697,12,c),
(628,108,o),
(600,292,o),
(557,494,cs),
(515,692,o),
(500,805,o),
(332,805,cs),
(310,805,o),
(279,801,o),
(249,793,c),
(262,777,o),
(287,755,o),
(304,708,cs),
(364,540,o),
(431,144,o),
(460,65,cs)
);
},
{
closed = 1;
nodes = (
(146,201,l),
(369,208,ls),
(431,210,o),
(460,250,o),
(467,306,c),
(198,306,l)
);
}
);
};
layerId = "BF8042A9-B348-454C-A59B-E2F834F64B4C";
shapes = (
{
closed = 1;
nodes = (
(315,777,l),
(242,524,o),
(-19,94,o),
(-19,44,cs),
(-19,21,o),
(9,-6,o),
(126,-33,c),
(190,204,o),
(378,534,o),
(419,712,c)
);
},
{
closed = 1;
nodes = (
(479,14,o),
(500,-16,o),
(569,-16,cs),
(601,-16,o),
(652,-4,o),
(697,12,c),
(628,108,o),
(600,292,o),
(557,494,cs),
(515,692,o),
(500,805,o),
(332,805,cs),
(310,805,o),
(279,801,o),
(249,793,c),
(262,777,o),
(287,755,o),
(304,708,cs),
(364,540,o),
(431,144,o),
(460,65,cs)
);
},
{
closed = 1;
nodes = (
(146,201,l),
(369,208,ls),
(431,210,o),
(460,250,o),
(467,306,c),
(198,306,l)
);
}
);
width = 693;
},
{
anchors = (
{
name = bottom;
pos = (292,0);
},
{
name = ogonek;
pos = (603,12);
},
{
name = top;
pos = (366,847);
}
);
hints = (
{
horizontal = 1;
place = (291, 83);
place = (291, 83);
type = Stem;
},
{
horizontal = 1;
place = (-40, 21);
target = up;
type = BottomGhost;
},
{
horizontal = 1;
place = (-20, 21);
target = up;
type = BottomGhost;
},
{
horizontal = 1;
place = (984, -20);
target = down;
type = TopGhost;
}
);
layerId = "540B6D0C-2188-4C95-B7F2-D6A6068F7705";
shapes = (
{
closed = 1;
nodes = (
(306,776,l),
(219,542,o),
(-2,94,o),
(-2,44,cs),
(-2,20,o),
(11,-6,o),
(65,-33,c),
(125,222,o),
(263,540,o),
(337,706,c)
);
},
{
closed = 1;
nodes = (
(489,12,o),
(500,-16,o),
(535,-16,cs),
(552,-16,o),
(580,-4,o),
(603,12,c),
(534,108,o),
(503,301,o),
(463,493,cs),
(422,686,o),
(399,805,o),
(320,805,cs),
(304,805,o),
(285,801,o),
(266,793,c),
(280,776,o),
(304,755,o),
(321,708,cs),
(381,540,o),
(449,149,o),
(476,64,cs)
);
},
{
closed = 1;
nodes = (
(145,238,l),
(330,245,ls),
(366,247,o),
(422,249,o),
(429,306,c),
(160,306,l)
);
}
);
width = 634.33333;
}
);
unicode = 65;
},
{
glyphname = AE;
lastChange = "2022-09-23 07:47:40 +0000";
layers = (
{
anchors = (
{
name = bottom;
pos = (562,0);
},
{
name = top;
pos = (636,847);
}
);
background = {
shapes = (
{
closed = 1;
nodes = (
(-25,20,o),
(-6,-6,o),
(71,-33,c),
(148,215,o),
(343,528,o),
(412,695,c),
(430,691,o),
(448,688,o),
(467,685,c),
(465,603,o),
(455,512,o),
(443,425,c),
(392,425,ls),
(318,425,o),
(258,412,o),
(258,332,cs),
(258,321,o),
(259,310,o),
(260,299,c),
(297,315,o),
(363,324,o),
(430,329,c),
(414,221,o),
(400,125,o),
(400,69,cs),
(400,65,l),
(367,38,o),
(356,5,o),
(352,-12,c),
(410,1,o),
(467,5,o),
(519,5,cs),
(624,5,o),
(711,-12,o),
(757,-12,cs),
(828,-12,o),
(880,44,o),
(892,144,c),
(826,122,o),
(685,106,o),
(543,106,c),
(544,184,o),
(551,262,o),
(559,334,c),
(586,335,o),
(610,335,o),
(626,335,cs),
(655,335,o),
(686,334,o),
(722,334,cs),
(763,334,o),
(790,357,o),
(790,425,cs),
(790,435,o),
(789,445,o),
(788,455,c),
(755,428,o),
(704,422,o),
(653,422,cs),
(569,422,l),
(583,525,o),
(598,612,o),
(600,670,c),
(636,667,o),
(672,666,o),
(704,666,cs),
(816,666,o),
(910,682,o),
(926,799,c),
(842,783,o),
(746,775,o),
(649,775,cs),
(571,775,o),
(433,780,o),
(358,790,c),
(306,681,ls),
(226,512,o),
(-25,91,o),
(-25,44,cs)
);
}
);
};
hints = (
{
place = (417, 113);
place = (417, 113);
type = Stem;
},
{
place = (484, 103);
place = (484, 103);
type = Stem;
},
{
horizontal = 1;
place = (-8, 92);
place = (-8, 92);
type = Stem;
},
{
horizontal = 1;
place = (5, 79);
place = (5, 79);
type = Stem;
},
{
horizontal = 1;
place = (340, 79);
place = (340, 79);
type = Stem;
},
{
horizontal = 1;
place = (687, 25);
place = (687, 25);
type = Stem;
},
{
horizontal = 1;
place = (687, 84);
place = (687, 84);
type = Stem;
},
{
horizontal = 1;
place = (793, -20);
target = down;
type = TopGhost;
},
{
horizontal = 1;
place = (-33, 21);
target = up;
type = BottomGhost;
}
);
layerId = UUID0;
shapes = (
{
closed = 1;
nodes = (
(138,215,o),
(339,542,o),
(408,709,c),
(510,693,o),
(595,687,o),
(661,687,cs),
(753,687,o),
(881,688,o),
(899,793,c),
(824,778,o),
(737,771,o),
(651,771,cs),
(582,771,o),
(434,781,o),
(368,790,c),
(316,681,ls),
(235,512,o),
(-15,91,o),
(-15,44,cs),
(-15,20,o),
(-6,-16,o),
(61,-33,c)
);
},
{
closed = 1;
nodes = (
(432,2,o),
(483,5,o),
(530,5,cs),
(624,5,o),
(702,-8,o),
(743,-8,cs),
(807,-8,o),
(854,36,o),
(864,114,c),
(804,97,o),
(673,84,o),
(542,84,cs),
(415,84,o),
(387,16,o),
(380,-8,c)
);
},
{
closed = 1;
nodes = (
(530,70,l),
(530,74,o),
(530,79,o),
(530,83,cs),
(530,331,o),
(587,573,o),
(587,683,cs),
(587,695,o),
(586,706,o),
(584,717,c),
(484,712,l),
(483,489,o),
(417,189,o),
(417,69,cs),
(417,59,o),
(418,49,o),
(420,41,c)
);
},
{
closed = 1;
nodes = (
(343,340,o),
(436,341,o),
(501,341,cs),
(528,341,o),
(677,340,o),
(710,340,cs),
(748,340,o),
(773,360,o),
(773,419,cs),
(773,428,o),
(772,437,o),
(771,445,c),
(740,421,o),
(693,416,o),
(646,416,cs),
(615,416,o),
(422,419,o),
(390,419,cs),
(322,419,o),
(266,408,o),
(266,338,cs),
(266,328,o),
(267,318,o),
(268,309,c)
);
}
);
width = 909;
},
{
anchors = (
{
name = bottom;
pos = (572,0);
},
{
name = top;
pos = (646,847);
}
);
background = {
shapes = (
{
closed = 1;
nodes = (
(-25,20,o),
(-6,-6,o),
(71,-33,c),
(148,215,o),
(343,528,o),
(412,695,c),
(430,691,o),
(448,688,o),
(467,685,c),
(465,603,o),
(455,512,o),
(443,425,c),
(392,425,ls),
(318,425,o),
(258,412,o),
(258,332,cs),
(258,321,o),
(259,310,o),
(260,299,c),
(297,315,o),
(363,324,o),
(430,329,c),
(414,221,o),
(400,125,o),
(400,69,cs),
(400,65,l),
(367,38,o),
(356,5,o),
(352,-12,c),
(410,1,o),
(467,5,o),
(519,5,cs),
(624,5,o),
(711,-12,o),
(757,-12,cs),
(828,-12,o),
(880,44,o),
(892,144,c),
(826,122,o),
(685,106,o),
(543,106,c),
(544,184,o),
(551,262,o),
(559,334,c),
(586,335,o),
(610,335,o),
(626,335,cs),
(655,335,o),
(686,334,o),
(722,334,cs),
(763,334,o),
(790,357,o),
(790,425,cs),
(790,435,o),
(789,445,o),
(788,455,c),
(755,428,o),
(704,422,o),
(653,422,cs),
(569,422,l),
(583,525,o),
(598,612,o),
(600,670,c),
(636,667,o),
(672,666,o),
(704,666,cs),
(816,666,o),
(910,682,o),
(926,799,c),
(842,783,o),
(746,775,o),
(649,775,cs),
(571,775,o),
(433,780,o),
(358,790,c),
(306,681,ls),
(226,512,o),
(-25,91,o),
(-25,44,cs)
);
}
);
};
layerId = UUID1;
shapes = (
{
closed = 1;
nodes = (
(148,215,o),
(343,528,o),
(412,695,c),
(459,681,o),
(601,666,o),
(700,666,cs),
(798,666,o),
(910,674,o),
(926,799,c),
(842,783,o),
(746,775,o),
(649,775,cs),
(571,775,o),
(433,780,o),
(358,790,c),
(306,681,ls),
(226,512,o),
(-25,91,o),
(-25,44,cs),
(-25,20,o),
(-6,-6,o),
(71,-33,c)
);
},
{
closed = 1;
nodes = (
(410,1,o),
(467,5,o),
(519,5,cs),
(624,5,o),
(711,-12,o),
(757,-12,cs),
(828,-12,o),
(880,44,o),
(892,144,c),
(825,122,o),
(679,106,o),
(533,106,cs),
(391,106,o),
(360,19,o),
(352,-12,c)
);
},
{
closed = 1;
nodes = (
(544,70,l),
(544,74,o),
(544,79,o),
(544,83,cs),
(544,331,o),
(601,573,o),
(601,683,cs),
(601,695,o),
(600,706,o),
(598,717,c),
(468,712,l),
(467,489,o),
(401,189,o),
(401,69,cs),
(401,59,o),
(402,49,o),
(404,41,c)
);
},
{
closed = 1;
nodes = (
(353,335,o),
(443,335,o),
(513,335,cs),
(542,335,o),
(683,334,o),
(719,334,cs),
(760,334,o),
(787,357,o),
(787,425,cs),
(787,435,o),
(786,445,o),
(785,455,c),
(752,428,o),
(701,422,o),
(650,422,cs),
(616,422,o),
(438,425,o),
(404,425,cs),
(330,425,o),
(270,412,o),
(270,332,cs),
(270,321,o),
(271,310,o),
(272,299,c)
);
}
);
width = 926;
},
{
anchors = (
{
name = bottom;
pos = (572,0);
},
{
name = top;
pos = (646,847);
}
);
background = {
shapes = (
{
closed = 1;
nodes = (
(489,681,o),
(631,666,o),
(730,666,cs),
(849,666,o),
(985,675,o),
(1004,809,c),
(905,786,o),
(793,775,o),
(679,775,cs),
(588,775,o),
(426,780,o),
(338,790,c),
(286,681,ls),
(206,512,o),
(-45,91,o),
(-45,44,cs),
(-45,20,o),
(-16,-6,o),
(101,-33,c),
(178,215,o),
(373,528,o),
(442,695,c)
);
},
{
closed = 1;
nodes = (
(630,52,l),
(630,60,o),
(630,68,o),
(630,77,cs),
(630,239,o),
(692,575,o),
(692,683,cs),
(692,697,o),
(692,709,o),
(690,721,c),
(501,719,l),
(501,528,o),
(446,232,o),
(446,128,cs),
(446,88,o),
(452,56,o),
(480,29,c)
);
},
{
closed = 1;
nodes = (
(448,-1,o),
(511,4,o),
(565,4,cs),
(680,4,o),
(775,-19,o),
(826,-19,cs),
(901,-19,o),
(959,52,o),
(974,191,c),
(900,161,o),
(742,140,o),
(581,140,cs),
(425,140,o),
(391,23,o),
(382,-19,c)
);
},
{
closed = 1;
nodes = (
(422,315,o),
(491,322,o),
(629,322,cs),
(663,322,o),
(702,321,o),
(744,321,cs),
(810,321,o),
(854,340,o),
(854,416,cs),
(854,432,o),
(850,450,o),
(844,466,c),
(797,439,o),
(724,433,o),
(650,433,cs),
(603,433,o),
(551,436,o),
(504,436,cs),
(393,436,o),
(304,423,o),
(304,343,cs),
(304,323,o),
(310,300,o),
(314,280,c)
);
},
{
closed = 0;
nodes = (
(515,614,l),
(673,614,o),
(795,622,o),
(859,636,cs),
(948,655,o),
(994,712,o),
(1004,809,c),
(906,791,o),
(803,781,o),
(700,781,cs),
(612,781,o),
(521,787,o),
(444,798,c)
);
}
);
};
layerId = "BF8042A9-B348-454C-A59B-E2F834F64B4C";
shapes = (
{
closed = 1;
nodes = (
(184,203,o),
(368,501,o),
(436,660,c),
(484,639,o),
(629,616,o),
(730,616,cs),
(849,616,o),
(985,630,o),
(1004,809,c),
(905,786,o),
(793,775,o),
(679,775,cs),
(590,775,o),
(433,780,o),
(348,790,c),
(296,681,ls),
(216,512,o),
(-35,91,o),
(-35,44,cs),
(-35,20,o),
(-6,-6,o),
(111,-33,c)
);
},
{
closed = 1;
nodes = (
(448,-1,o),
(511,4,o),
(565,4,cs),
(680,4,o),
(775,-19,o),
(826,-19,cs),
(901,-19,o),
(959,52,o),
(974,191,c),
(900,161,o),
(742,140,o),
(581,140,cs),
(425,140,o),
(391,23,o),
(382,-19,c)
);
},
{
closed = 1;
nodes = (
(630,52,l),
(630,60,o),
(630,68,o),
(630,77,cs),
(630,239,o),
(692,575,o),
(692,683,cs),
(692,697,o),
(692,709,o),
(690,721,c),
(501,719,l),
(501,528,o),
(446,232,o),
(446,128,cs),
(446,88,o),
(452,56,o),
(480,29,c)
);
},
{
closed = 1;
nodes = (
(422,315,o),
(491,322,o),
(629,322,cs),
(663,322,o),
(702,321,o),
(744,321,cs),
(810,321,o),
(854,340,o),
(854,416,cs),
(854,432,o),
(850,450,o),
(844,466,c),
(797,439,o),
(724,433,o),
(650,433,cs),
(603,433,o),
(551,436,o),
(504,436,cs),
(393,436,o),
(304,423,o),
(304,343,cs),
(304,323,o),
(310,300,o),
(314,280,c)
);
}
);
width = 1009;
},
{
anchors = (
{
name = bottom;
pos = (560,0);
},
{
name = top;
pos = (634,847);
}
);
hints = (
{
place = (510, 138);
place = (510, 138);
type = Stem;
},
{
place = (592, 126);
place = (592, 126);
type = Stem;
},
{
horizontal = 1;
place = (-10, 112);
place = (-10, 112);
type = Stem;
},
{
horizontal = 1;
place = (6, 97);
place = (6, 97);
type = Stem;
},
{
horizontal = 1;
place = (416, 97);
place = (416, 97);
type = Stem;
},
{
horizontal = 1;
place = (840, 31);
place = (840, 31);
type = Stem;
},
{
horizontal = 1;
place = (840, 103);
place = (840, 103);
type = Stem;
},
{
horizontal = 1;
place = (969, -20);
target = down;
type = TopGhost;
},
{
horizontal = 1;
place = (-40, 21);
target = up;
type = BottomGhost;
}
);
layerId = "540B6D0C-2188-4C95-B7F2-D6A6068F7705";
shapes = (
{
closed = 1;
nodes = (
(128,218,o),
(333,551,o),
(402,720,c),
(516,705,o),
(587,703,o),
(646,703,cs),
(732,703,o),
(858,701,o),
(876,789,c),
(806,776,o),
(725,770,o),
(645,770,cs),
(580,770,o),
(434,781,o),
(372,790,c),
(320,681,ls),
(239,512,o),
(-11,91,o),
(-11,44,cs),
(-11,20,o),
(-6,-18,o),
(50,-33,c)
);
},
{
closed = 1;
nodes = (
(428,3,o),
(477,5,o),
(522,5,cs),
(612,5,o),
(686,-6,o),
(725,-6,cs),
(786,-6,o),
(831,32,o),
(840,97,c),
(783,83,o),
(658,72,o),
(533,72,cs),
(413,72,o),
(386,14,o),
(380,-6,c)
);
},
{
closed = 1;
nodes = (
(508,74,l),
(508,77,o),
(508,81,o),
(508,84,cs),
(508,351,o),
(564,573,o),
(564,683,cs),
(564,695,o),
(562,705,o),
(560,716,c),
(480,710,l),
(479,480,o),
(411,179,o),
(411,56,cs),
(411,53,o),
(410,47,o),
(407,44,c)
);
},
{
closed = 1;
nodes = (
(325,346,o),
(424,345,o),
(473,345,cs),
(498,345,o),
(671,344,o),
(702,344,cs),
(734,344,o),
(755,364,o),
(755,420,cs),
(755,427,o),
(755,434,o),
(755,440,c),
(727,417,o),
(686,412,o),
(645,412,cs),
(618,412,o),
(393,415,o),
(365,415,cs),
(306,415,o),
(258,405,o),
(258,337,cs),
(258,329,o),
(257,322,o),
(258,315,c)
);
}
);
width = 886.77778;
}
);
metricRight = E;
unicode = 198;
},
{
glyphname = B;
lastChange = "2022-09-23 07:47:40 +0000";
layers = (
{
hints = (
{
place = (156, 49);
place = (156, 49);
type = Stem;
},
{
place = (503, 108);
place = (503, 108);
type = Stem;
},
{
place = (156, 102);
place = (156, 102);
type = Stem;
},
{
horizontal = 1;
place = (-24, 71);
place = (-24, 71);
type = Stem;
},
{
horizontal = 1;
place = (728, 74);
place = (728, 74);
type = Stem;
},
{
horizontal = 1;
place = (847, -20);
target = down;
type = TopGhost;
}
);
layerId = UUID0;
shapes = (
{
closed = 1;
nodes = (
(155,0,o),
(240,-24,o),
(324,-24,cs),
(488,-24,o),
(606,75,o),
(606,212,cs),
(606,313,o),
(536,391,o),
(422,418,c),
(544,458,o),
(611,536,o),
(611,636,cs),
(611,738,o),
(540,802,o),
(428,802,cs),
(369,802,o),
(300,786,o),
(246,759,c),
(231,801,o),
(199,828,o),
(142,847,c),
(153,819,o),
(156,789,o),
(156,719,cs),
(156,568,o),
(122,241,o),
(90,43,c)
);
},
{
closed = 1;
nodes = (
(461,738,o),
(508,694,o),
(508,616,cs),
(508,513,o),
(429,447,o),
(283,428,c),
(286,392,l),
(426,384,o),
(503,321,o),
(503,215,cs),
(503,105,o),
(430,37,o),
(309,37,cs),
(274,37,o),
(241,43,o),
(205,55,c),
(205,198,o),
(258,580,o),
(258,712,c),
(291,728,o),
(337,738,o),
(378,738,cs)
);
}
);
width = 679;
},
{
layerId = UUID1;
shapes = (
{
closed = 1;
nodes = (
(144,3,o),
(239,-24,o),
(332,-24,cs),
(485,-24,o),
(631,54,o),
(631,221,cs),
(631,333,o),
(524,401,o),
(444,418,c),
(561,457,o),
(631,543,o),
(631,638,cs),
(631,741,o),
(538,802,o),
(438,802,cs),
(391,802,o),
(324,792,o),
(261,759,c),
(243,799,o),
(203,827,o),
(127,847,c),
(136,826,o),
(141,786,o),
(141,735,cs),
(141,437,o),
(90,179,o),
(75,53,c)
);
},
{
closed = 1;
nodes = (
(458,720,o),
(490,667,o),
(490,612,cs),
(490,537,o),
(426,447,o),
(295,428,c),
(298,392,l),
(419,387,o),
(480,307,o),
(480,230,cs),
(480,122,o),
(409,57,o),
(312,57,cs),
(278,57,o),
(244,67,o),
(220,77,c),
(220,213,o),
(273,572,o),
(273,697,c),
(293,706,o),
(338,720,o),
(375,720,cs)
);
}
);
width = 691;
},
{
layerId = "BF8042A9-B348-454C-A59B-E2F834F64B4C";
shapes = (
{
closed = 1;
nodes = (
(129,7,o),
(249,-24,o),
(359,-24,cs),
(550,-24,o),
(681,71,o),
(681,210,cs),
(681,309,o),
(606,389,o),
(485,418,c),
(596,457,o),
(672,549,o),
(672,646,cs),
(672,740,o),
(603,802,o),
(497,802,cs),
(436,802,o),
(358,785,o),
(305,759,c),
(275,807,o),
(203,840,o),
(113,847,c),
(124,820,o),
(127,789,o),
(127,716,cs),
(127,527,o),
(99,251,o),
(60,53,c)
);
},
{
closed = 1;
nodes = (
(452,705,o),
(487,666,o),
(487,608,cs),
(487,523,o),
(420,443,o),
(334,428,c),
(337,392,l),
(428,387,o),
(487,321,o),
(487,226,cs),
(487,137,o),
(430,76,o),
(346,76,cs),
(316,76,o),
(276,87,o),
(264,99,c),
(264,230,o),
(318,568,o),
(318,688,c),
(348,698,o),
(380,705,o),
(400,705,cs)
);
}
);
width = 736;
},
{
hints = (
{
place = (191, 60);
place = (191, 60);
type = Stem;
},
{
place = (615, 132);
place = (615, 132);
type = Stem;
},
{
place = (191, 125);
place = (191, 125);
type = Stem;
},
{
horizontal = 1;
place = (-29, 87);
place = (-29, 87);
type = Stem;
},
{
horizontal = 1;
place = (890, 90);
place = (890, 90);
type = Stem;
},
{
horizontal = 1;
place = (1035, -20);
target = down;
type = TopGhost;
}
);
layerId = "540B6D0C-2188-4C95-B7F2-D6A6068F7705";
shapes = (
{
closed = 1;
nodes = (
(161,-2,o),
(238,-24,o),
(316,-24,cs),
(474,-24,o),
(589,76,o),
(589,212,cs),
(589,314,o),
(520,391,o),
(408,418,c),
(532,458,o),
(597,533,o),
(597,634,cs),
(597,738,o),
(526,802,o),
(413,802,cs),
(354,802,o),
(287,786,o),
(233,759,c),
(221,800,o),
(198,825,o),
(148,847,c),
(159,819,o),
(162,789,o),
(162,720,cs),
(162,577,o),
(127,239,o),
(97,41,c)
);
},
{
closed = 1;
nodes = (
(463,745,o),
(513,700,o),
(513,618,cs),
(513,511,o),
(431,448,o),
(272,428,c),
(275,392,l),
(426,383,o),
(507,321,o),
(507,213,cs),
(507,98,o),
(430,28,o),
(301,28,cs),
(265,28,o),
(233,33,o),
(192,45,c),
(192,191,o),
(245,583,o),
(245,717,c),
(278,735,o),
(327,745,o),
(373,745,cs)
);
}
);
width = 666.33333;
}
);
unicode = 66;
},
{
glyphname = C;
kernLeft = C;
lastChange = "2022-09-23 07:47:40 +0000";
layers = (
{
anchors = (
{
name = bottom;
pos = (310,0);
},
{
name = top;
pos = (404,847);
}
);
hints = (
{
place = (60, 108);
place = (60, 108);
type = Stem;
},
{
place = (525, 112);
place = (525, 112);
type = Stem;
},
{
horizontal = 1;
place = (-15, 78);
place = (-15, 78);
type = Stem;
},
{
horizontal = 1;
place = (748, 58);
place = (748, 58);
type = Stem;
}
);
layerId = UUID0;
shapes = (
{
closed = 1;
nodes = (
(521,102,o),
(438,43,o),
(355,43,cs),
(240,43,o),
(168,154,o),
(168,331,cs),
(168,560,o),
(284,748,o),
(425,748,cs),
(488,748,o),
(525,709,o),
(525,640,cs),
(525,588,o),
(500,522,o),
(467,486,c),
(485,481,o),
(500,478,o),
(511,478,cs),
(585,478,o),
(637,539,o),
(637,625,cs),
(637,736,o),
(557,806,o),
(431,806,cs),
(212,806,o),
(60,614,o),
(60,337,cs),
(60,116,o),
(164,-25,o),
(327,-25,cs),
(444,-25,o),
(551,48,o),
(611,168,c),
(611,180,o),
(589,195,o),
(570,195,c)
);
}
);
width = 687;
},
{
anchors = (
{
name = bottom;
pos = (310,0);
},
{
name = top;
pos = (404,847);
}
);
layerId = UUID1;
shapes = (
{
closed = 1;
nodes = (
(531,119,o),
(455,68,o),
(379,68,cs),
(271,68,o),
(203,172,o),
(203,335,cs),
(203,550,o),
(305,733,o),
(425,733,cs),
(479,733,o),
(510,698,o),
(510,636,cs),
(510,582,o),
(486,508,o),
(457,471,c),
(480,465,o),
(495,463,o),
(510,463,cs),
(592,463,o),
(652,530,o),
(652,623,cs),
(652,736,o),
(569,806,o),
(436,806,cs),
(206,806,o),
(45,613,o),
(45,337,cs),
(45,115,o),
(154,-25,o),
(328,-25,cs),
(446,-25,o),
(552,45,o),
(621,168,c),
(621,186,o),
(607,200,o),
(584,205,c)
);
}
);
width = 687;
},
{
anchors = (
{
name = bottom;
pos = (313,0);
},
{
name = top;
pos = (407,847);
}
);
layerId = "BF8042A9-B348-454C-A59B-E2F834F64B4C";
shapes = (
{
closed = 1;
nodes = (
(554,129,o),
(474,93,o),
(402,93,cs),
(299,93,o),
(242,179,o),
(242,335,cs),
(242,542,o),
(333,718,o),
(440,718,cs),
(483,718,o),
(505,689,o),
(505,632,cs),
(505,578,o),
(484,494,o),
(461,456,c),
(482,451,o),
(501,448,o),
(517,448,cs),
(605,448,o),
(669,521,o),
(669,621,cs),
(669,736,o),
(588,806,o),
(454,806,cs),
(213,806,o),
(42,612,o),
(42,338,cs),
(42,116,o),
(162,-25,o),
(352,-25,cs),
(464,-25,o),
(561,34,o),
(635,148,c),
(635,167,o),
(626,177,o),
(604,185,c)
);
}
);
width = 694;
},
{
anchors = (
{
name = bottom;
pos = (309,0);
},
{
name = top;
pos = (403,847);
}
);
hints = (
{
place = (73, 132);
place = (73, 132);
type = Stem;
},
{
place = (642, 137);
place = (642, 137);
type = Stem;
},
{
horizontal = 1;
place = (-18, 95);
place = (-18, 95);
type = Stem;
},
{
horizontal = 1;
place = (914, 71);
place = (914, 71);
type = Stem;
}
);
layerId = "540B6D0C-2188-4C95-B7F2-D6A6068F7705";
shapes = (
{
closed = 1;
nodes = (
(514,96,o),
(430,32,o),
(345,32,cs),
(227,32,o),
(152,148,o),
(152,330,cs),
(152,564,o),
(273,755,o),
(422,755,cs),
(489,755,o),
(529,713,o),
(529,642,cs),
(529,590,o),
(504,528,o),
(468,493,c),
(486,488,o),
(500,485,o),
(510,485,cs),
(581,485,o),
(630,543,o),
(630,626,cs),
(630,736,o),
(550,806,o),
(426,806,cs),
(212,806,o),
(64,614,o),
(64,337,cs),
(64,116,o),
(164,-25,o),
(321,-25,cs),
(440,-25,o),
(549,51,o),
(606,172,c),
(606,183,o),
(581,199,o),
(562,197,c)
);
}
);
width = 685.44444;
}
);
unicode = 67;
},
{
glyphname = D;
kernRight = D;
lastChange = "2022-09-23 07:47:40 +0000";
layers = (
{
anchors = (
{
name = bottom;
pos = (344,0);
},
{
name = center;
pos = (234,424);
},
{
name = top;
pos = (418,847);
}
);
hints = (
{
place = (156, 50);
place = (156, 50);
type = Stem;
},
{
place = (604, 105);
place = (604, 105);
type = Stem;
},
{
place = (156, 103);
place = (156, 103);
type = Stem;
},
{
horizontal = 1;
place = (-15, 70);
place = (-15, 70);
type = Stem;
},
{
horizontal = 1;
place = (725, 77);
place = (725, 77);
type = Stem;
},
{
horizontal = 1;
place = (847, -20);
target = down;
type = TopGhost;
}
);
layerId = UUID0;
shapes = (
{
closed = 1;
nodes = (
(231,801,o),
(199,828,o),
(142,847,c),
(153,818,o),
(156,789,o),
(156,714,cs),
(156,523,o),
(130,261,o),
(90,53,c),
(144,14,o),
(245,-15,o),
(330,-15,cs),
(555,-15,o),
(709,163,o),
(709,423,cs),
(709,650,o),
(592,802,o),
(419,802,cs),
(362,802,o),
(312,790,o),
(246,759,c)
);
},
{
closed = 1;
nodes = (
(206,208,o),
(259,575,o),
(259,702,c),
(293,722,o),
(343,735,o),
(386,735,cs),
(517,735,o),
(604,612,o),
(604,428,cs),
(604,186,o),
(494,45,o),
(303,45,cs),
(268,45,o),
(233,53,o),
(206,70,c)
);
}
);
width = 760;
},
{
anchors = (
{
name = bottom;
pos = (344,0);
},
{
name = center;
pos = (251,424);
},
{
name = top;
pos = (418,847);
}
);
layerId = UUID1;
shapes = (
{
closed = 1;
nodes = (
(242,801,o),
(200,828,o),
(127,847,c),
(136,824,o),
(141,784,o),
(141,727,cs),
(141,581,o),
(106,227,o),
(75,53,c),
(130,14,o),
(236,-15,o),
(325,-15,cs),
(563,-15,o),
(724,163,o),
(724,426,cs),
(724,650,o),
(603,802,o),
(424,802,cs),
(370,802,o),
(323,790,o),
(261,759,c)
);
},
{
closed = 1;
nodes = (
(221,211,o),
(274,572,o),
(274,697,c),
(299,708,o),
(339,715,o),
(373,715,cs),
(497,715,o),
(579,600,o),
(579,427,cs),
(579,215,o),
(465,60,o),
(308,60,cs),
(276,60,o),
(245,65,o),
(221,75,c)
);
}
);
width = 760;
},
{
anchors = (
{
name = bottom;
pos = (360,0);
},
{
name = center;
pos = (294,424);
},
{
name = top;
pos = (434,847);
}
);
layerId = "BF8042A9-B348-454C-A59B-E2F834F64B4C";
shapes = (
{
closed = 1;
nodes = (
(270,813,o),
(196,847,o),
(111,847,c),
(122,799,o),
(125,772,o),
(125,710,cs),
(125,506,o),
(97,216,o),
(61,53,c),
(129,12,o),
(236,-15,o),
(332,-15,cs),
(581,-15,o),
(750,164,o),
(750,428,cs),
(750,650,o),
(632,802,o),
(460,802,cs),
(411,802,o),
(365,789,o),
(302,759,c)
);
},
{
closed = 1;
nodes = (
(264,216,o),
(315,567,o),
(315,689,c),
(333,694,o),
(361,698,o),
(382,698,cs),
(490,698,o),
(562,588,o),
(562,424,cs),
(562,197,o),
(478,68,o),
(332,68,cs),
(308,68,o),
(285,73,o),
(264,83,c)
);
}
);
width = 791;
},
{
anchors = (
{
name = bottom;
pos = (340,0);
},
{
name = center;
pos = (221,424);
},
{
name = top;
pos = (414,847);
}
);
hints = (
{
place = (191, 61);
place = (191, 61);
type = Stem;
},
{
place = (738, 128);
place = (738, 128);
type = Stem;
},
{
place = (191, 126);
place = (191, 126);
type = Stem;
},
{
horizontal = 1;
place = (-18, 86);
place = (-18, 86);
type = Stem;
},
{
horizontal = 1;
place = (886, 94);
place = (886, 94);
type = Stem;
},
{
horizontal = 1;
place = (1035, -20);
target = down;
type = TopGhost;
}
);
layerId = "540B6D0C-2188-4C95-B7F2-D6A6068F7705";
shapes = (
{
closed = 1;
nodes = (
(222,798,o),
(200,824,o),
(149,847,c),
(160,822,o),
(163,793,o),
(163,715,cs),
(163,527,o),
(137,271,o),
(96,53,c),
(147,14,o),
(247,-15,o),
(330,-15,cs),
(549,-15,o),
(700,163,o),
(700,422,cs),
(700,650,o),
(583,802,o),
(410,802,cs),
(351,802,o),
(300,790,o),
(234,759,c)
);
},
{
closed = 1;
nodes = (
(193,206,o),
(247,577,o),
(247,705,c),
(284,728,o),
(339,743,o),
(387,743,cs),
(523,743,o),
(613,617,o),
(613,429,cs),
(613,184,o),
(498,40,o),
(297,40,cs),
(259,40,o),
(221,49,o),
(193,67,c)
);
}
);
width = 753.11111;
}
);
unicode = 68;
},
{
glyphname = E;
lastChange = "2022-09-23 07:47:40 +0000";
layers = (
{
anchors = (
{
name = bottom;
pos = (296,0);
},
{
name = ogonek;
pos = (477,0);
},
{
name = top;
pos = (370,847);
},
{
name = topleft;
pos = (20,847);
}
);
background = {
shapes = (
{
closed = 1;
nodes = (
(230,50,l),
(221,60,o),
(220,65,o),
(220,95,cs),
(220,318,o),
(277,579,o),
(277,681,cs),
(277,695,o),
(276,706,o),
(274,717,c),
(174,712,l),
(173,497,o),
(110,203,o),
(110,92,cs),
(110,67,o),
(114,41,o),
(120,21,c)
);
},
{
closed = 1;
nodes = (
(113,1,o),
(163,5,o),
(219,5,cs),
(314,5,o),
(394,-8,o),
(431,-8,cs),
(499,-8,o),
(544,37,o),
(554,114,c),
(468,94,o),
(406,88,o),
(232,84,cs),
(143,82,o),
(90,52,o),
(70,-8,c)
);
},
{
closed = 1;
nodes = (
(141,331,o),
(208,341,o),
(300,341,cs),
(343,341,o),
(376,340,o),
(388,340,cs),
(444,340,o),
(464,361,o),
(464,408,cs),
(464,422,o),
(462,435,o),
(459,445,c),
(434,425,o),
(396,416,o),
(338,416,cs),
(303,416,o),
(244,419,o),
(209,419,cs),
(122,419,o),
(86,395,o),
(86,338,cs),
(86,330,o),
(88,316,o),
(90,309,c)
);
},
{
closed = 1;
nodes = (
(309,681,o),
(425,688,o),
(477,696,cs),
(546,708,o),
(580,738,o),
(589,793,c),
(515,779,o),
(429,771,o),
(341,771,cs),
(274,771,o),
(202,776,o),
(134,785,c),
(129,771,o),
(126,752,o),
(126,733,cs),
(126,689,o),
(140,681,o),
(216,681,cs)
);
}
);
};
hints = (
{
place = (86, 134);
place = (86, 134);
type = Stem;
},
{
place = (107, 113);
place = (107, 113);
type = Stem;
},
{
place = (126, 151);
place = (126, 151);
type = Stem;
},
{
place = (174, 103);
place = (174, 103);
type = Stem;
},
{
horizontal = 1;
place = (-8, 92);
place = (-8, 92);
type = Stem;
},
{
horizontal = 1;
place = (5, 79);
place = (5, 79);
type = Stem;
},
{
horizontal = 1;
place = (340, 79);
place = (340, 79);
type = Stem;
},
{
horizontal = 1;
place = (681, 31);
place = (681, 31);
type = Stem;
},
{
horizontal = 1;
place = (681, 90);
place = (681, 90);
type = Stem;
},
{
horizontal = 1;
place = (793, -20);
target = down;
type = TopGhost;
}
);
layerId = UUID0;
shapes = (
{
closed = 1;
nodes = (
(230,50,l),
(221,60,o),
(220,65,o),
(220,95,cs),
(220,318,o),
(277,579,o),
(277,681,cs),
(277,695,o),
(276,706,o),
(274,717,c),
(174,712,l),
(173,497,o),
(110,203,o),
(110,92,cs),
(110,67,o),
(114,41,o),
(120,21,c)
);
},
{
closed = 1;
nodes = (
(113,1,o),
(163,5,o),
(219,5,cs),
(314,5,o),
(394,-8,o),
(431,-8,cs),
(499,-8,o),
(544,37,o),
(554,114,c),
(468,94,o),
(406,88,o),
(232,84,cs),
(143,82,o),
(90,52,o),
(70,-8,c)
);
},
{
closed = 1;
nodes = (
(141,331,o),
(208,341,o),
(300,341,cs),
(343,341,o),
(376,340,o),
(388,340,cs),
(444,340,o),
(464,361,o),
(464,408,cs),
(464,422,o),
(462,435,o),
(459,445,c),
(434,425,o),
(396,416,o),
(338,416,cs),
(303,416,o),
(244,419,o),
(209,419,cs),
(122,419,o),
(86,395,o),
(86,338,cs),
(86,330,o),
(88,316,o),
(90,309,c)
);
},
{
closed = 1;
nodes = (
(309,681,o),
(425,688,o),
(477,696,cs),
(546,708,o),
(580,738,o),
(589,793,c),
(515,779,o),
(429,771,o),
(341,771,cs),
(274,771,o),
(202,776,o),
(134,785,c),
(129,771,o),
(126,752,o),
(126,733,cs),
(126,689,o),
(140,681,o),
(216,681,cs)
);
}
);
width = 599;
},
{
anchors = (
{
name = bottom;
pos = (303,0);
},
{
name = ogonek;
pos = (517,0);
},
{
name = top;
pos = (377,847);
},
{
name = topleft;
pos = (20,847);
}
);
background = {
shapes = (
{
closed = 1;
nodes = (
(251,62,l),
(251,83,ls),
(251,331,o),
(308,573,o),
(308,683,cs),
(308,699,o),
(306,714,o),
(302,727,c),
(175,685,l),
(169,466,o),
(108,184,o),
(108,69,cs),
(108,56,o),
(109,45,o),
(112,35,c)
);
}
);
};
layerId = UUID1;
shapes = (
{
closed = 1;
nodes = (
(252,70,l),
(252,74,o),
(252,79,o),
(252,83,cs),
(252,331,o),
(309,573,o),
(309,683,cs),
(309,695,o),
(308,706,o),
(306,717,c),
(176,712,l),
(175,489,o),
(109,189,o),
(109,69,cs),
(109,59,o),
(110,49,o),
(112,41,c)
);
},
{
closed = 1;
nodes = (
(118,1,o),
(175,5,o),
(227,5,cs),
(332,5,o),
(419,-12,o),
(465,-12,cs),
(536,-12,o),
(588,44,o),
(600,144,c),
(533,122,o),
(387,106,o),
(241,106,cs),
(99,106,o),
(68,19,o),
(60,-12,c)
);
},
{
closed = 1;
nodes = (
(171,335,o),
(261,335,o),
(331,335,cs),
(360,335,o),
(391,334,o),
(427,334,cs),
(468,334,o),
(495,357,o),
(495,425,cs),
(495,435,o),
(494,445,o),
(493,455,c),
(460,428,o),
(409,422,o),
(358,422,cs),
(324,422,o),
(256,425,o),
(222,425,cs),
(148,425,o),
(88,412,o),
(88,332,cs),
(88,321,o),
(89,310,o),
(90,299,c)
);
},
{
closed = 1;
nodes = (
(286,655,o),
(428,658,o),
(506,673,cs),
(571,685,o),
(623,717,o),
(634,799,c),
(550,783,o),
(454,775,o),
(357,775,cs),
(279,775,o),
(200,780,o),
(125,790,c),
(121,778,o),
(117,757,o),
(117,731,cs),
(117,669,o),
(125,655,o),
(195,655,cs)
);
}
);
width = 634;
},
{
anchors = (
{
name = bottom;
pos = (310,0);
},
{
name = ogonek;
pos = (548,0);
},
{
name = top;
pos = (385,847);
},
{
name = topleft;
pos = (20,847);
}
);
background = {
shapes = (
{
closed = 1;
nodes = (
(259,62,l),
(259,83,ls),
(259,331,o),
(316,573,o),
(316,683,cs),
(316,699,o),
(314,714,o),
(310,727,c),
(183,685,l),
(177,466,o),
(116,184,o),
(116,69,cs),
(116,56,o),
(117,45,o),
(120,35,c)
);
}
);
};
layerId = "BF8042A9-B348-454C-A59B-E2F834F64B4C";
shapes = (
{
closed = 1;
nodes = (
(290,52,l),
(290,60,o),
(290,68,o),
(290,77,cs),
(290,239,o),
(352,575,o),
(352,683,cs),
(352,697,o),
(352,709,o),
(350,721,c),
(161,719,l),
(161,528,o),
(106,232,o),
(106,128,cs),
(106,88,o),
(112,56,o),
(140,29,c)
);
},
{
closed = 1;
nodes = (
(108,-1,o),
(171,4,o),
(225,4,cs),
(340,4,o),
(435,-19,o),
(486,-19,cs),
(561,-19,o),
(619,52,o),
(634,191,c),
(560,161,o),
(402,140,o),
(241,140,cs),
(85,140,o),
(51,23,o),
(42,-19,c)
);
},
{
closed = 1;
nodes = (
(179,315,o),
(232,322,o),
(339,322,cs),
(366,321,o),
(396,321,o),
(429,321,cs),
(480,321,o),
(514,340,o),
(514,416,cs),
(514,432,o),
(511,450,o),
(506,466,c),
(470,439,o),
(413,433,o),
(356,433,cs),
(319,433,o),
(279,436,o),
(242,436,cs),
(156,436,o),
(87,423,o),
(87,343,cs),
(87,323,o),
(92,300,o),
(95,280,c)
);
},
{
closed = 1;
nodes = (
(333,614,o),
(455,622,o),
(519,636,cs),
(608,656,o),
(654,712,o),
(664,809,c),
(566,791,o),
(463,781,o),
(360,781,cs),
(272,781,o),
(181,787,o),
(104,798,c),
(99,780,o),
(96,755,o),
(96,729,cs),
(96,643,o),
(116,614,o),
(175,614,cs)
);
}
);
width = 669;
},
{
anchors = (
{
name = bottom;
pos = (293,0);
},
{
name = ogonek;
pos = (461,0);
},
{
name = top;
pos = (367,847);
},
{
name = topleft;
pos = (20,847);
}
);
hints = (
{
place = (105, 164);
place = (105, 164);
type = Stem;
},
{
place = (131, 138);
place = (131, 138);
type = Stem;
},
{
place = (154, 185);
place = (154, 185);
type = Stem;
},
{
place = (213, 126);
place = (213, 126);
type = Stem;
},
{
horizontal = 1;
place = (-10, 112);
place = (-10, 112);
type = Stem;
},
{
horizontal = 1;
place = (6, 97);
place = (6, 97);
type = Stem;
},
{
horizontal = 1;
place = (416, 97);
place = (416, 97);
type = Stem;
},
{
horizontal = 1;
place = (832, 38);
place = (832, 38);
type = Stem;
},
{
horizontal = 1;
place = (832, 110);
place = (832, 110);
type = Stem;
},
{
horizontal = 1;
place = (969, -20);
target = down;
type = TopGhost;
}
);
layerId = "540B6D0C-2188-4C95-B7F2-D6A6068F7705";
shapes = (
{
closed = 1;
nodes = (
(217,50,l),
(206,60,o),
(204,64,o),
(204,99,cs),
(204,336,o),
(260,580,o),
(260,681,cs),
(260,695,o),
(259,705,o),
(257,716,c),
(177,710,l),
(176,490,o),
(111,197,o),
(111,84,cs),
(111,62,o),
(114,38,o),
(116,19,c)
);
},
{
closed = 1;
nodes = (
(114,1,o),
(161,5,o),
(218,5,cs),
(308,5,o),
(385,-6,o),
(419,-6,cs),
(485,-6,o),
(527,34,o),
(536,97,c),
(448,79,o),
(407,76,o),
(230,72,cs),
(156,69,o),
(99,58,o),
(76,-6,c)
);
},
{
closed = 1;
nodes = (
(133,335,o),
(203,345,o),
(291,345,cs),
(338,345,o),
(372,344,o),
(379,344,cs),
(436,344,o),
(453,366,o),
(453,406,cs),
(453,420,o),
(451,432,o),
(449,440,c),
(426,422,o),
(392,412,o),
(334,412,cs),
(299,412,o),
(236,415,o),
(202,415,cs),
(114,415,o),
(86,389,o),
(86,337,cs),
(86,332,o),
(87,320,o),
(89,315,c)
);
},
{
closed = 1;
nodes = (
(304,696,o),
(418,703,o),
(468,709,cs),
(532,720,o),
(564,744,o),
(572,789,c),
(504,776,o),
(421,769,o),
(337,769,cs),
(274,769,o),
(207,774,o),
(141,782,c),
(136,769,o),
(133,751,o),
(133,734,cs),
(133,699,o),
(145,696,o),
(225,696,cs)
);
}
);
width = 583.44444;
}
);
unicode = 69;
},
{
glyphname = Schwa;
lastChange = "2022-09-23 07:47:40 +0000";
layers = (
{
hints = (
{
horizontal = 1;
origin = (0,31);
target = (0,14);
type = Stem;
},
{
horizontal = 1;
origin = (0,20);
target = (0,25);
type = Stem;
},
{
horizontal = 1;
origin = (0,37);
target = (0,8);
type = Stem;
},
{
origin = (0,28);
target = (0,17);
type = Stem;
},
{
origin = (0,11);
target = (0,34);
type = Stem;
}
);
layerId = UUID0;
shapes = (
{
closed = 1;
nodes = (
(250,804,o),
(163,750,o),
(81,615,c),
(81,596,o),
(96,589,o),
(133,585,c),
(189,675,o),
(271,722,o),
(365,722,cs),
(466,722,o),
(518,633,o),
(518,469,cs),
(518,284,o),
(418,40,o),
(262,40,cs),
(199,40,o),
(164,79,o),
(164,150,cs),
(164,285,o),
(285,375,o),
(462,375,cs),
(522,375,l),
(526,421,l),
(476,432,o),
(417,439,o),
(356,439,cs),
(183,439,o),
(49,324,o),
(49,178,cs),
(49,42,o),
(111,-25,o),
(244,-25,cs),
(457,-25,o),
(621,185,o),
(621,462,cs),
(621,658,o),
(520,804,o),
(387,804,cs)
);
}
);
userData = {
RMXScaler = {
height = 140;
verticalShift = -4;
width = 138;
};
};
width = 686;
},
{
layerId = UUID1;
shapes = (
{
closed = 1;
nodes = (
(253,804,o),
(156,746,o),
(76,615,c),
(76,593,o),
(91,584,o),
(127,578,c),
(184,668,o),
(261,716,o),
(350,716,cs),
(446,716,o),
(496,630,o),
(496,467,cs),
(496,289,o),
(409,47,o),
(269,47,cs),
(212,47,o),
(180,86,o),
(180,150,cs),
(180,283,o),
(288,372,o),
(449,372,cs),
(501,372,l),
(505,420,l),
(457,432,o),
(402,439,o),
(346,439,cs),
(169,439,o),
(38,327,o),
(37,178,cs),
(37,45,o),
(107,-25,o),
(243,-25,cs),
(466,-25,o),
(637,185,o),
(638,462,cs),
(638,662,o),
(533,804,o),
(387,804,cs)
);
}
);
userData = {
RMXScaler = {
height = 140;
verticalShift = -4;
width = 138;
};
};
width = 688;
},
{
layerId = "BF8042A9-B348-454C-A59B-E2F834F64B4C";
shapes = (
{
closed = 1;
nodes = (
(255,804,o),
(144,737,o),
(72,615,c),
(73,590,o),
(92,573,o),
(124,563,c),
(178,651,o),
(249,700,o),
(328,700,cs),
(417,700,o),
(468,607,o),
(468,441,cs),
(468,278,o),
(414,62,o),
(298,62,cs),
(255,62,o),
(225,99,o),
(225,160,cs),
(225,284,o),
(309,364,o),
(443,364,cs),
(479,364,l),
(481,420,l),
(435,432,o),
(386,439,o),
(339,439,cs),
(158,439,o),
(36,338,o),
(36,188,cs),
(36,56,o),
(124,-25,o),
(266,-25,cs),
(502,-25,o),
(676,175,o),
(676,440,cs),
(676,660,o),
(561,804,o),
(387,804,cs)
);
}
);
userData = {
RMXScaler = {
height = 140;
verticalShift = -4;
width = 138;
};
};
width = 723;
},
{
hints = (
{
horizontal = 1;
origin = (0,31);
target = (0,14);
type = Stem;
},
{
horizontal = 1;
origin = (0,20);
target = (0,25);
type = Stem;
},
{
horizontal = 1;
origin = (0,37);
target = (0,8);
type = Stem;
},
{
origin = (0,28);
target = (0,17);
type = Stem;
},
{
origin = (0,11);
target = (0,34);
type = Stem;
}
);
layerId = "540B6D0C-2188-4C95-B7F2-D6A6068F7705";
shapes = (
{
closed = 1;
nodes = (
(249,804,o),
(167,753,o),
(83,615,c),
(83,597,o),
(97,593,o),
(135,590,c),
(191,680,o),
(276,727,o),
(373,727,cs),
(477,727,o),
(529,639,o),
(529,475,cs),
(529,285,o),
(419,35,o),
(254,35,cs),
(187,35,o),
(150,75,o),
(150,148,cs),
(150,285,o),
(280,377,o),
(466,377,cs),
(532,377,l),
(536,421,l),
(485,432,o),
(424,439,o),
(360,439,cs),
(189,439,o),
(52,321,o),
(52,176,cs),
(52,39,o),
(108,-25,o),
(239,-25,cs),
(447,-25,o),
(609,187,o),
(609,467,cs),
(609,658,o),
(511,804,o),
(387,804,cs)
);
}
);
userData = {
RMXScaler = {
height = 140;
verticalShift = -4;
width = 138;
};
};
width = 677.77778;
}
);
metricLeft = "=O*.75";
metricRight = O;
unicode = 399;
userData = {
RMXScaler = {
source = e;
};
};
},
{
glyphname = F;
lastChange = "2022-09-23 07:47:40 +0000";
layers = (
{
background = {
shapes = (
{
closed = 1;
nodes = (
(158,693,l),
(154,473,o),
(91,186,o),
(91,69,cs),
(91,7,o),
(122,-17,o),
(198,-17,cs),
(210,-17,o),
(224,-16,o),
(240,-15,c),
(234,20,o),
(234,52,o),
(234,83,cs),
(234,331,o),
(291,573,o),
(291,683,cs),
(291,700,o),
(289,715,o),
(285,729,c)
);
}
);
};
hints = (
{
place = (85, 134);
place = (85, 134);
type = Stem;
},
{
place = (106, 113);
place = (106, 113);
type = Stem;
},
{
place = (173, 103);
place = (173, 103);
type = Stem;
},
{
horizontal = 1;
place = (340, 79);
place = (340, 79);
type = Stem;
},
{
horizontal = 1;
place = (681, 31);
place = (681, 31);
type = Stem;
},
{
horizontal = 1;
place = (681, 90);
place = (681, 90);
type = Stem;
},
{
horizontal = 1;
place = (793, -20);
target = down;
type = TopGhost;
},
{
horizontal = 1;
place = (-17, 21);
target = up;
type = BottomGhost;
}
);
layerId = UUID0;
shapes = (
{
closed = 1;
nodes = (
(205,-17,o),
(212,-16,o),
(225,-15,c),
(219,20,o),
(219,52,o),
(219,83,cs),
(219,331,o),
(276,573,o),
(276,683,cs),
(276,695,o),
(275,706,o),
(273,717,c),
(173,712,l),
(172,489,o),
(106,189,o),
(106,69,cs),
(106,7,o),
(137,-17,o),
(197,-17,cs)
);
},
{
closed = 1;
nodes = (
(162,340,o),
(245,341,o),
(310,341,cs),
(337,341,o),
(366,340,o),
(399,340,cs),
(437,340,o),
(462,360,o),
(462,419,cs),
(462,428,o),
(461,437,o),
(460,445,c),
(429,421,o),
(382,416,o),
(335,416,cs),
(304,416,o),
(241,419,o),
(209,419,cs),
(141,419,o),
(85,408,o),
(85,338,cs),
(85,328,o),
(86,318,o),
(87,309,c)
);
},
{
closed = 1;
nodes = (
(260,681,o),
(385,684,o),
(455,696,cs),
(512,705,o),
(558,729,o),
(568,793,c),
(493,778,o),
(406,771,o),
(320,771,cs),
(251,771,o),
(179,776,o),
(113,785,c),
(109,774,o),
(105,755,o),
(105,732,cs),
(105,690,o),
(123,681,o),
(179,681,cs)
);
}
);
width = 520;
},
{
background = {
shapes = (
{
closed = 1;
nodes = (
(158,693,l),
(154,473,o),
(91,186,o),
(91,69,cs),
(91,7,o),
(122,-17,o),
(198,-17,cs),
(210,-17,o),
(224,-16,o),
(240,-15,c),
(234,20,o),
(234,52,o),
(234,83,cs),
(234,331,o),
(291,573,o),
(291,683,cs),
(291,700,o),
(289,715,o),
(285,729,c)
);
}
);
};
layerId = UUID1;
shapes = (
{
closed = 1;
nodes = (
(210,-17,o),
(224,-16,o),
(240,-15,c),
(234,20,o),
(234,52,o),
(234,83,cs),
(234,331,o),
(291,573,o),
(291,683,cs),
(291,695,o),
(290,706,o),
(288,717,c),
(158,712,l),
(157,489,o),
(91,189,o),
(91,69,cs),
(91,7,o),
(122,-17,o),
(198,-17,cs)
);
},
{
closed = 1;
nodes = (
(153,335,o),
(243,335,o),
(313,335,cs),
(342,335,o),
(373,334,o),
(409,334,cs),
(450,334,o),
(477,357,o),
(477,425,cs),
(477,435,o),
(476,445,o),
(475,455,c),
(442,428,o),
(391,422,o),
(340,422,cs),
(306,422,o),
(238,425,o),
(204,425,cs),
(130,425,o),
(70,412,o),
(70,332,cs),
(70,321,o),
(71,310,o),
(72,299,c)
);
},
{
closed = 1;
nodes = (
(246,655,o),
(388,658,o),
(467,673,cs),
(532,685,o),
(584,717,o),
(595,799,c),
(511,783,o),
(415,775,o),
(318,775,cs),
(240,775,o),
(161,780,o),
(86,790,c),
(82,778,o),
(78,757,o),
(78,731,cs),
(78,669,o),
(86,655,o),
(156,655,cs)
);
}
);
width = 520;
},
{
background = {
shapes = (
{
closed = 1;
nodes = (
(171,693,l),
(167,473,o),
(104,186,o),
(104,69,cs),
(104,7,o),
(135,-17,o),
(211,-17,cs),
(223,-17,o),
(237,-16,o),
(253,-15,c),
(247,20,o),
(247,52,o),
(247,83,cs),
(247,331,o),
(304,573,o),
(304,683,cs),
(304,700,o),
(302,715,o),
(298,729,c)
);
}
);
};
layerId = "BF8042A9-B348-454C-A59B-E2F834F64B4C";
shapes = (
{
closed = 1;
nodes = (
(244,-17,o),
(266,-16,o),
(298,-13,c),
(294,8,o),
(292,37,o),
(292,72,cs),
(292,339,o),
(349,576,o),
(349,676,cs),
(349,696,o),
(347,714,o),
(341,730,c),
(160,713,l),
(160,501,o),
(93,181,o),
(93,76,cs),
(93,5,o),
(125,-17,o),
(227,-17,cs)
);
},
{
closed = 1;
nodes = (
(166,315,o),
(219,322,o),
(326,322,cs),
(353,321,o),
(383,321,o),
(416,321,cs),
(467,321,o),
(501,340,o),
(501,416,cs),
(501,432,o),
(498,450,o),
(493,466,c),
(457,439,o),
(400,433,o),
(343,433,cs),
(306,433,o),
(266,436,o),
(229,436,cs),
(143,436,o),
(74,423,o),
(74,343,cs),
(74,323,o),
(79,300,o),
(82,280,c)
);
},
{
closed = 1;
nodes = (
(269,614,o),
(422,617,o),
(506,636,cs),
(581,653,o),
(639,697,o),
(651,809,c),
(558,791,o),
(454,781,o),
(347,781,cs),
(267,781,o),
(175,786,o),
(91,798,c),
(87,784,o),
(83,761,o),
(83,729,cs),
(83,635,o),
(74,614,o),
(162,614,cs)
);
}
);
width = 612;
},
{
hints = (
{
place = (104, 164);
place = (104, 164);
type = Stem;
},
{
place = (130, 138);
place = (130, 138);
type = Stem;
},
{
place = (211, 126);
place = (211, 126);
type = Stem;
},
{
horizontal = 1;
place = (416, 97);
place = (416, 97);
type = Stem;
},
{
horizontal = 1;
place = (832, 38);
place = (832, 38);
type = Stem;
},
{
horizontal = 1;
place = (832, 110);
place = (832, 110);
type = Stem;
},
{
horizontal = 1;
place = (969, -20);
target = down;
type = TopGhost;
},
{
horizontal = 1;
place = (-21, 21);
target = up;
type = BottomGhost;
}
);
layerId = "540B6D0C-2188-4C95-B7F2-D6A6068F7705";
shapes = (
{
closed = 1;
nodes = (
(196,-17,o),
(200,-16,o),
(209,-15,c),
(202,23,o),
(203,55,o),
(203,85,cs),
(203,329,o),
(260,572,o),
(260,685,cs),
(260,695,o),
(259,704,o),
(258,714,c),
(176,712,l),
(175,486,o),
(109,191,o),
(109,67,cs),
(109,7,o),
(140,-17,o),
(190,-17,cs)
);
},
{
closed = 1;
nodes = (
(161,346,o),
(251,345,o),
(306,345,cs),
(333,345,o),
(362,344,o),
(395,344,cs),
(430,344,o),
(453,364,o),
(453,420,cs),
(453,427,o),
(453,434,o),
(453,440,c),
(423,417,o),
(378,412,o),
(333,412,cs),
(304,412,o),
(235,415,o),
(205,415,cs),
(141,415,o),
(87,405,o),
(87,337,cs),
(87,329,o),
(88,322,o),
(88,315,c)
);
},
{
closed = 1;
nodes = (
(258,696,o),
(377,699,o),
(444,709,cs),
(497,717,o),
(540,736,o),
(550,789,c),
(479,775,o),
(395,769,o),
(314,769,cs),
(247,769,o),
(180,774,o),
(118,782,c),
(114,772,o),
(110,754,o),
(110,733,cs),
(110,702,o),
(134,696,o),
(183,696,cs)
);
}
);
width = 499.55556;
}
);
unicode = 70;
},
{
glyphname = G;
kernLeft = C;
lastChange = "2022-09-23 07:47:40 +0000";
layers = (
{
anchors = (
{
name = bottom;
pos = (323,0);
},
{
name = top;
pos = (397,847);
}
);
hints = (
{
place = (55, 107);
place = (55, 107);
type = Stem;
},
{
place = (70, 92);
place = (70, 92);
type = Stem;
},
{
place = (488, 108);
place = (488, 108);
type = Stem;
},
{
place = (530, 92);
place = (530, 92);
type = Stem;
},
{
place = (70, 112);
place = (70, 112);
type = Stem;
},
{
horizontal = 1;
place = (-329, 58);
place = (-329, 58);
type = Stem;
},
{
horizontal = 1;
place = (29, 70);
place = (29, 70);
type = Stem;
},
{
horizontal = 1;
place = (481, 51);
place = (481, 51);
type = Stem;
},
{
horizontal = 1;
place = (748, 58);
place = (748, 58);
type = Stem;
},
{
horizontal = 1;
place = (-16, 21);
target = up;
type = BottomGhost;
}
);
layerId = UUID0;
shapes = (
{
closed = 1;
nodes = (
(477,364,l),
(479,347,o),
(480,330,o),
(480,314,cs),
(480,192,o),
(409,99,o),
(315,99,cs),
(223,99,o),
(162,191,o),
(162,330,cs),
(162,550,o),
(284,748,o),
(419,748,cs),
(484,748,o),
(530,705,o),
(530,645,cs),
(530,580,o),
(478,532,o),
(408,532,cs),
(391,532,o),
(374,534,o),
(357,539,c),
(383,503,o),
(430,481,o),
(480,481,cs),
(563,481,o),
(622,544,o),
(622,633,cs),
(622,739,o),
(545,806,o),
(424,806,cs),
(214,806,o),
(55,603,o),
(55,335,cs),
(55,152,o),
(145,29,o),
(280,29,cs),
(395,29,o),
(491,121,o),
(524,263,c)
);
},
{
closed = 1;
nodes = (
(208,-271,o),
(182,-219,o),
(182,-159,cs),
(182,-105,o),
(204,-62,o),
(225,-33,c),
(208,-21,o),
(189,-16,o),
(173,-16,cs),
(115,-16,o),
(70,-72,o),
(70,-148,cs),
(70,-235,o),
(126,-329,o),
(269,-329,cs),
(520,-329,o),
(596,0,o),
(596,280,cs),
(596,341,o),
(576,366,o),
(514,366,cs),
(504,366,o),
(486,365,o),
(477,364,c),
(483,330,o),
(488,294,o),
(488,260,cs),
(488,-54,o),
(430,-271,o),
(280,-271,cs)
);
}
);
width = 687;
},
{
anchors = (
{
name = bottom;
pos = (323,0);
},
{
name = top;
pos = (397,847);
}
);
layerId = UUID1;
shapes = (
{
closed = 1;
nodes = (
(462,364,l),
(464,347,o),
(465,330,o),
(465,314,cs),
(465,200,o),
(407,114,o),
(329,114,cs),
(250,114,o),
(197,201,o),
(197,333,cs),
(197,544,o),
(302,733,o),
(420,733,cs),
(475,733,o),
(515,696,o),
(515,645,cs),
(515,586,o),
(465,542,o),
(398,542,cs),
(381,542,o),
(364,544,o),
(347,549,c),
(373,501,o),
(425,471,o),
(482,471,cs),
(571,471,o),
(637,539,o),
(637,631,cs),
(637,739,o),
(557,806,o),
(429,806,cs),
(208,806,o),
(40,603,o),
(40,335,cs),
(40,152,o),
(133,29,o),
(272,29,cs),
(391,29,o),
(491,122,o),
(524,263,c)
);
},
{
closed = 1;
nodes = (
(219,-256,o),
(197,-211,o),
(197,-159,cs),
(197,-99,o),
(224,-51,o),
(250,-18,c),
(227,-7,o),
(205,-1,o),
(184,-1,cs),
(112,-1,o),
(55,-62,o),
(55,-148,cs),
(55,-235,o),
(114,-329,o),
(265,-329,cs),
(531,-329,o),
(611,0,o),
(611,280,cs),
(611,341,o),
(586,366,o),
(508,366,cs),
(496,366,o),
(473,365,o),
(462,364,c),
(468,331,o),
(473,296,o),
(473,262,cs),
(473,-44,o),
(419,-256,o),
(280,-256,cs)
);
}
);
width = 687;
},
{
anchors = (
{
name = bottom;
pos = (352,0);
},
{
name = top;
pos = (426,847);
}
);
layerId = "BF8042A9-B348-454C-A59B-E2F834F64B4C";
shapes = (
{
closed = 1;
nodes = (
(487,364,l),
(489,350,o),
(490,333,o),
(490,314,cs),
(490,203,o),
(438,122,o),
(366,122,cs),
(291,122,o),
(241,207,o),
(241,334,cs),
(241,540,o),
(341,725,o),
(453,725,cs),
(504,725,o),
(542,691,o),
(542,645,cs),
(542,590,o),
(491,548,o),
(423,548,cs),
(408,548,o),
(389,551,o),
(371,555,c),
(398,500,o),
(454,465,o),
(517,465,cs),
(612,465,o),
(685,537,o),
(685,630,cs),
(685,739,o),
(600,806,o),
(464,806,cs),
(223,806,o),
(41,602,o),
(41,334,cs),
(41,153,o),
(144,29,o),
(295,29,cs),
(419,29,o),
(525,122,o),
(560,263,c)
);
},
{
closed = 1;
nodes = (
(251,-248,o),
(230,-207,o),
(230,-159,cs),
(230,-95,o),
(261,-45,o),
(290,-10,c),
(263,1,o),
(238,7,o),
(214,7,cs),
(126,7,o),
(57,-57,o),
(57,-148,cs),
(57,-235,o),
(123,-329,o),
(290,-329,cs),
(573,-329,o),
(658,0,o),
(658,280,cs),
(658,341,o),
(629,366,o),
(540,366,cs),
(526,366,o),
(500,365,o),
(487,364,c),
(493,333,o),
(499,298,o),
(499,263,cs),
(499,-38,o),
(445,-248,o),
(307,-248,cs)
);
}
);
width = 745;
},
{
anchors = (
{
name = bottom;
pos = (317,0);
},
{
name = top;
pos = (391,847);
}
);
hints = (
{
place = (67, 131);
place = (67, 131);
type = Stem;
},
{
place = (86, 112);
place = (86, 112);
type = Stem;
},
{
place = (596, 132);
place = (596, 132);
type = Stem;
},
{
place = (648, 112);
place = (648, 112);
type = Stem;
},
{
place = (86, 137);
place = (86, 137);
type = Stem;
},
{
horizontal = 1;
place = (-402, 71);
place = (-402, 71);
type = Stem;
},
{
horizontal = 1;
place = (35, 86);
place = (35, 86);
type = Stem;
},
{
horizontal = 1;
place = (588, 62);
place = (588, 62);
type = Stem;
},
{
horizontal = 1;
place = (914, 71);
place = (914, 71);
type = Stem;
},
{
horizontal = 1;
place = (-20, 21);
target = up;
type = BottomGhost;
}
);
layerId = "540B6D0C-2188-4C95-B7F2-D6A6068F7705";
shapes = (
{
closed = 1;
nodes = (
(475,364,l),
(477,346,o),
(478,329,o),
(478,314,cs),
(478,190,o),
(403,94,o),
(304,94,cs),
(208,94,o),
(144,187,o),
(144,329,cs),
(144,552,o),
(271,753,o),
(411,753,cs),
(480,753,o),
(527,708,o),
(527,645,cs),
(527,578,o),
(475,528,o),
(405,528,cs),
(387,528,o),
(371,530,o),
(354,535,c),
(380,504,o),
(425,485,o),
(472,485,cs),
(552,485,o),
(608,546,o),
(608,634,cs),
(608,739,o),
(533,806,o),
(415,806,cs),
(212,806,o),
(58,603,o),
(58,335,cs),
(58,152,o),
(145,29,o),
(277,29,cs),
(390,29,o),
(483,121,o),
(516,263,c)
);
},
{
closed = 1;
nodes = (
(198,-276,o),
(171,-222,o),
(171,-159,cs),
(171,-107,o),
(191,-66,o),
(211,-38,c),
(196,-26,o),
(178,-21,o),
(164,-21,cs),
(113,-21,o),
(73,-75,o),
(73,-148,cs),
(73,-235,o),
(127,-329,o),
(264,-329,cs),
(508,-329,o),
(582,0,o),
(582,280,cs),
(582,341,o),
(564,366,o),
(508,366,cs),
(499,366,o),
(483,365,o),
(475,364,c),
(481,329,o),
(486,293,o),
(486,259,cs),
(486,-58,o),
(427,-276,o),
(274,-276,cs)
);
}
);
width = 674.11111;
}
);
unicode = 71;
},
{
glyphname = H;
lastChange = "2022-09-23 07:47:40 +0000";
layers = (
{
anchors = (
{
name = bottom;
pos = (362,0);
},
{
name = center;
pos = (429,599);
},
{
name = top;
pos = (436,847);
},
{
name = topleft;
pos = (20,847);
}
);
background = {
shapes = (
{
closed = 1;
nodes = (
(302,753,o),
(296,796,o),
(156,802,c),
(158,776,o),
(160,748,o),
(160,720,cs),
(160,585,o),
(141,440,o),
(124,322,cs),
(113,241,o),
(103,173,o),
(103,129,cs),
(103,46,o),
(132,-1,o),
(250,-31,c),
(241,-10,o),
(236,29,o),
(236,78,cs),
(236,180,o),
(257,334,o),
(276,464,cs),
(290,560,o),
(302,643,o),
(302,684,cs)
);
},
{
closed = 1;
nodes = (
(721,753,o),
(715,796,o),
(575,802,c),
(577,776,o),
(579,748,o),
(579,720,cs),
(579,585,o),
(559,440,o),
(542,322,cs),
(531,241,o),
(522,173,o),
(522,129,cs),
(522,46,o),
(550,-1,o),
(668,-31,c),
(659,-10,o),
(654,29,o),
(654,78,cs),
(654,180,o),
(676,334,o),
(695,464,cs),
(709,560,o),
(721,643,o),
(721,684,cs)
);
},
{
closed = 1;
nodes = (
(405,437,o),
(243,437,o),
(209,437,cs),
(135,437,o),
(75,424,o),
(75,344,cs),
(75,333,o),
(76,322,o),
(77,311,c),
(158,347,o),
(311,347,o),
(381,347,cs),
(410,347,o),
(441,346,o),
(477,346,cs),
(518,346,o),
(576,354,o),
(576,440,c)
);
}
);
};
hints = (
{
place = (597, 107);
place = (597, 107);
type = Stem;
},
{
place = (539, 99);
place = (539, 99);
type = Stem;
},
{
place = (178, 107);
place = (178, 107);
type = Stem;
},
{
place = (120, 99);
place = (120, 99);
type = Stem;
},
{
horizontal = 1;
place = (354, 78);
place = (354, 78);
type = Stem;
},
{
horizontal = 1;
place = (802, -20);
target = down;
type = TopGhost;
},
{
horizontal = 1;
place = (-31, 21);
target = up;
type = BottomGhost;
}
);
layerId = UUID0;
shapes = (
{
closed = 1;
nodes = (
(412,432,o),
(257,432,o),
(224,432,cs),
(150,432,o),
(90,429,o),
(90,362,cs),
(90,353,o),
(91,333,o),
(92,324,c),
(170,351,o),
(253,356,o),
(335,356,cs),
(384,356,o),
(434,354,o),
(480,354,cs),
(520,354,o),
(568,369,o),
(576,435,c)
);
},
{
closed = 1;
nodes = (
(704,753,o),
(698,796,o),
(593,802,c),
(595,776,o),
(597,748,o),
(597,720,cs),
(597,529,o),
(539,233,o),
(539,129,cs),
(539,46,o),
(568,-1,o),
(652,-31,c),
(643,-10,o),
(638,29,o),
(638,78,cs),
(638,240,o),
(704,576,o),
(704,684,cs)
);
},
{
closed = 1;
nodes = (
(285,753,o),
(279,796,o),
(174,802,c),
(176,776,o),
(178,748,o),
(178,720,cs),
(178,529,o),
(120,233,o),
(120,129,cs),
(120,46,o),
(149,-1,o),
(233,-31,c),
(224,-10,o),
(219,29,o),
(219,78,cs),
(219,240,o),
(285,576,o),
(285,684,cs)
);
}
);
width = 791;
},
{
anchors = (
{
name = bottom;
pos = (362,0);
},
{
name = center;
pos = (426,602);
},
{
name = top;
pos = (436,847);
},
{
name = topleft;
pos = (20,847);
}
);
background = {
shapes = (
{
closed = 1;
nodes = (
(302,753,o),
(296,796,o),
(156,802,c),
(158,776,o),
(160,748,o),
(160,720,cs),
(160,585,o),
(141,440,o),
(124,322,cs),
(113,241,o),
(103,173,o),
(103,129,cs),
(103,46,o),
(132,-1,o),
(250,-31,c),
(241,-10,o),
(236,29,o),
(236,78,cs),
(236,180,o),
(257,334,o),
(276,464,cs),
(290,560,o),
(302,643,o),
(302,684,cs)
);
},
{
closed = 1;
nodes = (
(721,753,o),
(715,796,o),
(575,802,c),
(577,776,o),
(579,748,o),
(579,720,cs),
(579,585,o),
(559,440,o),
(542,322,cs),
(531,241,o),
(522,173,o),
(522,129,cs),
(522,46,o),
(550,-1,o),
(668,-31,c),
(659,-10,o),
(654,29,o),
(654,78,cs),
(654,180,o),
(676,334,o),
(695,464,cs),
(709,560,o),
(721,643,o),
(721,684,cs)
);
},
{
closed = 1;
nodes = (
(405,437,o),
(243,437,o),
(209,437,cs),
(135,437,o),
(75,424,o),
(75,344,cs),
(75,333,o),
(76,322,o),
(77,311,c),
(158,347,o),
(311,347,o),
(381,347,cs),
(410,347,o),
(441,346,o),
(477,346,cs),
(518,346,o),
(576,354,o),
(576,440,c)
);
}
);
};
layerId = UUID1;
shapes = (
{
closed = 1;
nodes = (
(405,437,o),
(243,437,o),
(209,437,cs),
(135,437,o),
(75,424,o),
(75,344,cs),
(75,333,o),
(76,322,o),
(77,311,c),
(157,342,o),
(243,348,o),
(327,348,cs),
(378,348,o),
(428,346,o),
(477,346,cs),
(518,346,o),
(576,354,o),
(576,440,c)
);
},
{
closed = 1;
nodes = (
(721,753,o),
(715,796,o),
(576,802,c),
(578,776,o),
(580,748,o),
(580,720,cs),
(580,529,o),
(522,233,o),
(522,129,cs),
(522,46,o),
(551,-1,o),
(669,-31,c),
(660,-10,o),
(655,29,o),
(655,78,cs),
(655,240,o),
(721,576,o),
(721,684,cs)
);
},
{
closed = 1;
nodes = (
(302,753,o),
(296,796,o),
(157,802,c),
(159,776,o),
(161,748,o),
(161,720,cs),
(161,529,o),
(103,233,o),
(103,129,cs),
(103,46,o),
(132,-1,o),
(250,-31,c),
(241,-10,o),
(236,29,o),
(236,78,cs),
(236,240,o),
(302,576,o),
(302,684,cs)
);
}
);
width = 791;
},
{
anchors = (
{
name = bottom;
pos = (375,0);
},
{
name = center;
pos = (427,599);
},
{
name = top;
pos = (449,847);
},
{
name = topleft;
pos = (20,847);
}
);
background = {
shapes = (
{
closed = 1;
nodes = (
(422,437,o),
(260,437,o),
(226,437,cs),
(152,437,o),
(92,424,o),
(92,344,cs),
(92,333,o),
(93,322,o),
(94,311,c),
(174,342,o),
(260,348,o),
(344,348,cs),
(395,348,o),
(445,346,o),
(494,346,cs),
(535,346,o),
(593,354,o),
(593,440,c)
);
},
{
closed = 1;
nodes = (
(738,753,o),
(732,796,o),
(593,802,c),
(595,776,o),
(597,748,o),
(597,720,cs),
(597,529,o),
(539,233,o),
(539,129,cs),
(539,46,o),
(568,-1,o),
(686,-31,c),
(677,-10,o),
(672,29,o),
(672,78,cs),
(672,240,o),
(738,576,o),
(738,684,cs)
);
},
{
closed = 1;
nodes = (
(319,753,o),
(313,796,o),
(174,802,c),
(176,776,o),
(178,748,o),
(178,720,cs),
(178,529,o),
(120,233,o),
(120,129,cs),
(120,46,o),
(149,-1,o),
(267,-31,c),
(258,-10,o),
(253,29,o),
(253,78,cs),
(253,240,o),
(319,576,o),
(319,684,cs)
);
}
);
};
layerId = "BF8042A9-B348-454C-A59B-E2F834F64B4C";
shapes = (
{
closed = 1;
nodes = (
(379,445,o),
(216,445,o),
(182,445,cs),
(113,445,o),
(57,415,o),
(57,314,cs),
(57,299,o),
(58,303,o),
(59,289,c),
(137,327,o),
(225,335,o),
(305,335,cs),
(356,335,o),
(403,333,o),
(454,333,cs),
(492,333,o),
(566,328,o),
(552,448,c)
);
},
{
closed = 1;
nodes = (
(747,753,o),
(741,796,o),
(552,802,c),
(554,774,o),
(556,745,o),
(556,720,cs),
(556,529,o),
(501,233,o),
(501,129,cs),
(501,49,o),
(526,-1,o),
(698,-31,c),
(690,-10,o),
(685,28,o),
(685,78,cs),
(685,240,o),
(747,576,o),
(747,684,cs)
);
},
{
closed = 1;
nodes = (
(325,754,o),
(318,796,o),
(130,802,c),
(132,776,o),
(134,748,o),
(134,720,cs),
(134,529,o),
(80,233,o),
(80,129,cs),
(80,46,o),
(107,-1,o),
(277,-31,c),
(268,-10,o),
(263,31,o),
(263,78,cs),
(263,240,o),
(325,576,o),
(325,684,cs)
);
}
);
width = 818;
},
{
anchors = (
{
name = bottom;
pos = (359,0);
},
{
name = center;
pos = (429,599);
},
{
name = top;
pos = (433,847);
},
{
name = topleft;
pos = (20,847);
}
);
hints = (
{
place = (730, 131);
place = (730, 131);
type = Stem;
},
{
place = (659, 121);
place = (659, 121);
type = Stem;
},
{
place = (218, 131);
place = (218, 131);
type = Stem;
},
{
place = (147, 121);
place = (147, 121);
type = Stem;
},
{
horizontal = 1;
place = (433, 95);
place = (433, 95);
type = Stem;
},
{
horizontal = 1;
place = (980, -20);
target = down;
type = TopGhost;
},
{
horizontal = 1;
place = (-38, 21);
target = up;
type = BottomGhost;
}
);
layerId = "540B6D0C-2188-4C95-B7F2-D6A6068F7705";
shapes = (
{
closed = 1;
nodes = (
(419,429,o),
(266,429,o),
(233,429,cs),
(158,429,o),
(97,432,o),
(97,373,cs),
(97,365,o),
(98,340,o),
(99,332,c),
(177,356,o),
(259,361,o),
(342,361,cs),
(390,361,o),
(441,359,o),
(486,359,cs),
(526,359,o),
(568,378,o),
(581,432,c)
);
},
{
closed = 1;
nodes = (
(694,753,o),
(688,796,o),
(602,802,c),
(604,776,o),
(606,749,o),
(606,720,cs),
(606,529,o),
(547,233,o),
(547,129,cs),
(547,45,o),
(577,-1,o),
(642,-31,c),
(633,-10,o),
(628,29,o),
(628,78,cs),
(628,240,o),
(694,576,o),
(694,684,cs)
);
},
{
closed = 1;
nodes = (
(276,753,o),
(270,796,o),
(184,802,c),
(186,776,o),
(188,748,o),
(188,720,cs),
(188,529,o),
(129,233,o),
(129,129,cs),
(129,46,o),
(158,-1,o),
(223,-31,c),
(214,-10,o),
(209,29,o),
(209,78,cs),
(209,240,o),
(276,576,o),
(276,684,cs)
);
}
);
width = 785;
}
);
unicode = 72;
},
{
glyphname = I;
lastChange = "2022-09-23 07:47:40 +0000";
layers = (
{
anchors = (
{
name = bottom;
pos = (138,0);
},
{
name = ogonek;
pos = (205,-31);
},
{
name = top;
pos = (212,847);
},
{
name = topleft;
pos = (20,847);
}
);
background = {
shapes = (
{
closed = 1;
nodes = (
(274,753,o),
(268,796,o),
(129,802,c),
(131,776,o),
(133,748,o),
(133,720,cs),
(133,585,o),
(113,440,o),
(96,322,cs),
(85,241,o),
(75,173,o),
(75,129,cs),
(75,46,o),
(104,-1,o),
(222,-31,c),
(213,-10,o),
(208,29,o),
(208,78,cs),
(208,180,o),
(230,334,o),
(249,464,cs),
(263,560,o),
(274,643,o),
(274,684,cs)
);
}
);
};
hints = (
{
place = (92, 99);
place = (92, 99);
type = Stem;
},
{
place = (150, 107);
place = (150, 107);
type = Stem;
},
{
horizontal = 1;
place = (802, -20);
target = down;
type = TopGhost;
},
{
horizontal = 1;
place = (-31, 21);
target = up;
type = BottomGhost;
}
);
layerId = UUID0;
shapes = (
{
closed = 1;
nodes = (
(257,753,o),
(251,796,o),
(146,802,c),
(148,776,o),
(150,748,o),
(150,720,cs),
(150,529,o),
(92,233,o),
(92,129,cs),
(92,46,o),
(121,-1,o),
(205,-31,c),
(196,-10,o),
(191,29,o),
(191,78,cs),
(191,240,o),
(257,576,o),
(257,684,cs)
);
}
);
width = 344;
},
{
anchors = (
{
name = bottom;
pos = (138,0);
},
{
name = ogonek;
pos = (222,-31);
},
{
name = top;
pos = (212,847);
},
{
name = topleft;
pos = (20,847);
}
);
background = {
shapes = (
{
closed = 1;
nodes = (
(274,753,o),
(268,796,o),
(129,802,c),
(131,776,o),
(133,748,o),
(133,720,cs),
(133,585,o),
(113,440,o),
(96,322,cs),
(85,241,o),
(75,173,o),
(75,129,cs),
(75,46,o),
(104,-1,o),
(222,-31,c),
(213,-10,o),
(208,29,o),
(208,78,cs),
(208,180,o),
(230,334,o),
(249,464,cs),
(263,560,o),
(274,643,o),
(274,684,cs)
);
}
);
};
layerId = UUID1;
shapes = (
{
closed = 1;
nodes = (
(274,753,o),
(268,796,o),
(129,802,c),
(131,776,o),
(133,748,o),
(133,720,cs),
(133,529,o),
(75,233,o),
(75,129,cs),
(75,46,o),
(104,-1,o),
(222,-31,c),
(213,-10,o),
(208,29,o),
(208,78,cs),
(208,240,o),
(274,576,o),
(274,684,cs)
);
}
);
width = 344;
},
{
anchors = (
{
name = bottom;
pos = (161,0);
},
{
name = ogonek;
pos = (269,-31);
},
{
name = top;
pos = (235,847);
},
{
name = topleft;
pos = (20,847);
}
);
background = {
shapes = (
{
closed = 1;
nodes = (
(298,753,o),
(292,796,o),
(153,802,c),
(155,776,o),
(157,748,o),
(157,720,cs),
(157,585,o),
(137,440,o),
(120,322,cs),
(109,241,o),
(99,173,o),
(99,129,cs),
(99,46,o),
(128,-1,o),
(246,-31,c),
(237,-10,o),
(232,29,o),
(232,78,cs),
(232,180,o),
(254,334,o),
(273,464,cs),
(287,560,o),
(298,643,o),
(298,684,cs)
);
}
);
};
layerId = "BF8042A9-B348-454C-A59B-E2F834F64B4C";
shapes = (
{
closed = 1;
nodes = (
(318,753,o),
(312,796,o),
(123,802,c),
(125,774,o),
(127,745,o),
(127,720,cs),
(127,529,o),
(72,233,o),
(72,129,cs),
(72,49,o),
(97,-1,o),
(269,-31,c),
(261,-10,o),
(256,28,o),
(256,78,cs),
(256,240,o),
(318,576,o),
(318,684,cs)
);
}
);
width = 389;
},
{
anchors = (
{
name = bottom;
pos = (133,0);
},
{
name = ogonek;
pos = (191,-31);
},
{
name = top;
pos = (207,847);
},
{
name = topleft;
pos = (20,847);
}
);
hints = (
{
place = (112, 121);
place = (112, 121);
type = Stem;
},
{
place = (183, 131);
place = (183, 131);
type = Stem;
},
{
horizontal = 1;
place = (980, -20);
target = down;
type = TopGhost;
},
{
horizontal = 1;
place = (-38, 21);
target = up;
type = BottomGhost;
}
);
layerId = "540B6D0C-2188-4C95-B7F2-D6A6068F7705";
shapes = (
{
closed = 1;
nodes = (
(243,753,o),
(237,796,o),
(151,802,c),
(153,776,o),
(155,749,o),
(155,720,cs),
(155,529,o),
(96,233,o),
(96,129,cs),
(96,45,o),
(126,-1,o),
(191,-31,c),
(182,-10,o),
(177,29,o),
(177,78,cs),
(177,240,o),
(243,576,o),
(243,684,cs)
);
}
);
width = 334;
}
);
unicode = 73;
},
{
glyphname = J;
kernLeft = J;
lastChange = "2022-09-23 07:47:40 +0000";
layers = (
{
anchors = (
{
name = bottom;
pos = (289,0);
},
{
name = top;
pos = (363,847);
}
);
background = {
shapes = (
{
closed = 1;
nodes = (
(243,-36,o),
(339,27,o),
(365,323,cs),
(402,738,l),
(291,733,l),
(256,328,o),
(304,21,o),
(134,21,cs),
(82,21,o),
(59,61,o),
(59,109,cs),
(59,153,o),
(78,204,o),
(114,235,c),
(97,247,o),
(81,251,o),
(65,251,cs),
(-8,251,o),
(-43,190,o),
(-43,132,cs),
(-43,49,o),
(10,-36,o),
(135,-36,cs)
);
},
{
closed = 1;
nodes = (
(278,670,o),
(378,677,o),
(431,686,cs),
(465,691,o),
(526,721,o),
(534,792,c),
(465,771,o),
(394,760,o),
(323,760,cs),
(277,760,o),
(231,764,o),
(179,776,c),
(176,764,o),
(173,747,o),
(173,728,cs),
(173,699,o),
(185,670,o),
(230,670,cs)
);
}
);
};
guides = (
{
angle = 268.7441;
pos = (286,733);
},
{
angle = 264.9052;
pos = (402,738);
}
);
hints = (
{
horizontal = 1;
origin = (0,22);
target = (0,7);
type = Stem;
},
{
horizontal = 1;
origin = (1,17);
target = (1,8);
type = Stem;
},
{
origin = (0,19);
target = (0,10);
type = Stem;
}
);
layerId = UUID0;
shapes = (
{
closed = 1;
nodes = (
(260,-36,o),
(343,89,o),
(365,323,cs),
(402,738,l),
(286,733,l),
(286,166,o),
(241,21,o),
(130,21,cs),
(82,21,o),
(59,49,o),
(59,106,cs),
(59,157,o),
(80,206,o),
(114,235,c),
(98,246,o),
(83,251,o),
(63,251,cs),
(1,251,o),
(-43,201,o),
(-43,129,cs),
(-43,33,o),
(27,-36,o),
(124,-36,cs)
);
},
{
closed = 1;
nodes = (
(282,670,o),
(383,678,o),
(431,686,cs),
(465,691,o),
(526,721,o),
(534,792,c),
(465,771,o),
(394,760,o),
(323,760,cs),
(277,760,o),
(231,764,o),
(179,776,c),
(176,764,o),
(173,747,o),
(173,728,cs),
(173,699,o),
(185,670,o),
(230,670,cs)
);
}
);
width = 518;
},
{
anchors = (
{
name = bottom;
pos = (288,0);
},
{
name = top;
pos = (362,847);
}
);
background = {
shapes = (
{
closed = 1;
nodes = (
(249,-36,o),
(354,26,o),
(380,323,cs),
(417,738,l),
(276,733,l),
(247,340,o),
(289,36,o),
(141,36,cs),
(97,36,o),
(74,76,o),
(74,124,cs),
(74,168,o),
(93,219,o),
(129,250,c),
(109,262,o),
(90,266,o),
(71,266,cs),
(-16,266,o),
(-58,198,o),
(-58,132,cs),
(-58,49,o),
(-1,-36,o),
(133,-36,cs)
);
},
{
closed = 1;
nodes = (
(264,643,o),
(379,652,o),
(440,664,cs),
(479,671,o),
(549,708,o),
(558,799,c),
(481,775,o),
(401,763,o),
(321,763,cs),
(266,763,o),
(210,768,o),
(155,781,c),
(152,768,o),
(149,746,o),
(149,721,cs),
(149,682,o),
(161,643,o),
(209,643,cs)
);
}
);
};
guides = (
{
angle = 264.9052;
pos = (399,531);
}
);
layerId = UUID1;
shapes = (
{
closed = 1;
nodes = (
(272,-36,o),
(359,89,o),
(380,323,cs),
(417,738,l),
(276,733,l),
(276,140,o),
(242,36,o),
(137,36,cs),
(97,36,o),
(74,68,o),
(74,123,cs),
(74,172,o),
(95,221,o),
(129,250,c),
(111,261,o),
(92,266,o),
(71,266,cs),
(-5,266,o),
(-58,210,o),
(-58,130,cs),
(-58,33,o),
(19,-36,o),
(129,-36,cs)
);
},
{
closed = 1;
nodes = (
(262,643,o),
(379,652,o),
(440,664,cs),
(479,671,o),
(549,708,o),
(558,799,c),
(481,775,o),
(401,763,o),
(321,763,cs),
(266,763,o),
(210,768,o),
(155,781,c),
(152,768,o),
(149,746,o),
(149,721,cs),
(149,682,o),
(161,643,o),
(209,643,cs)
);
}
);
width = 518;
},
{
anchors = (
{
name = bottom;
pos = (328,0);
},
{
name = top;
pos = (402,847);
}
);
guides = (
{
angle = 268.7441;
pos = (263,108);
},
{
angle = 264.9052;
pos = (458,323);
}
);
layerId = "BF8042A9-B348-454C-A59B-E2F834F64B4C";
shapes = (
{
closed = 1;
nodes = (
(348,-36,o),
(448,94,o),
(468,323,cs),
(505,738,l),
(293,663,l),
(293,186,o),
(262,62,o),
(202,62,cs),
(172,62,o),
(152,95,o),
(152,145,cs),
(152,198,o),
(175,246,o),
(215,276,c),
(194,286,o),
(169,292,o),
(144,292,cs),
(55,292,o),
(-9,226,o),
(-9,134,cs),
(-9,31,o),
(70,-36,o),
(190,-36,cs)
);
},
{
closed = 1;
nodes = (
(354,614,o),
(459,622,o),
(513,636,cs),
(589,655,o),
(628,712,o),
(636,809,c),
(553,791,o),
(466,781,o),
(379,781,cs),
(304,781,o),
(227,787,o),
(162,798,c),
(158,780,o),
(155,755,o),
(155,729,cs),
(155,643,o),
(172,614,o),
(222,614,cs)
);
}
);
width = 603;
},
{
anchors = (
{
name = bottom;
pos = (280,0);
},
{
name = top;
pos = (354,847);
}
);
hints = (
{
horizontal = 1;
origin = (0,22);
target = (0,7);
type = Stem;
},
{
horizontal = 1;
origin = (1,17);
target = (1,8);
type = Stem;
},
{
origin = (0,19);
target = (0,10);
type = Stem;
}
);
layerId = "540B6D0C-2188-4C95-B7F2-D6A6068F7705";
shapes = (
{
closed = 1;
nodes = (
(240,-36,o),
(320,88,o),
(342,323,cs),
(379,738,l),
(284,749,l),
(284,162,o),
(236,12,o),
(114,12,cs),
(62,12,o),
(38,39,o),
(38,97,cs),
(38,148,o),
(59,197,o),
(92,226,c),
(77,237,o),
(64,242,o),
(45,242,cs),
(-11,242,o),
(-51,195,o),
(-51,128,cs),
(-51,33,o),
(17,-36,o),
(109,-36,cs)
);
},
{
closed = 1;
nodes = (
(266,682,o),
(366,690,o),
(413,697,cs),
(437,699,o),
(503,723,o),
(511,788,c),
(445,767,o),
(378,755,o),
(311,755,cs),
(271,755,o),
(232,759,o),
(183,771,c),
(180,760,o),
(177,745,o),
(177,728,cs),
(177,711,o),
(188,682,o),
(232,682,cs)
);
}
);
width = 499.11111;
}
);
unicode = 74;
},
{
glyphname = K;
kernRight = K;
lastChange = "2022-09-23 07:47:40 +0000";
layers = (
{
anchors = (
{
name = bottom;
pos = (332,0);
},
{
name = top;
pos = (406,847);
}
);
background = {
shapes = (
{
closed = 1;
nodes = (
(411,450,o),
(622,574,o),
(622,695,cs),
(622,736,o),
(612,773,o),
(599,799,c),
(548,679,o),
(403,519,o),
(166,332,c),
(176,282,l)
);
},
{
closed = 1;
nodes = (
(196,-10,o),
(191,29,o),
(191,78,cs),
(191,240,o),
(257,576,o),
(257,684,cs),
(257,753,o),
(251,796,o),
(146,802,c),
(148,776,o),
(150,748,o),
(150,720,cs),
(150,529,o),
(92,233,o),
(92,129,cs),
(92,46,o),
(121,-1,o),
(205,-31,c)
);
},
{
closed = 1;
nodes = (
(613,-33,o),
(631,-28,o),
(641,-23,c),
(539,85,o),
(469,181,o),
(389,433,c),
(285,393,l),
(355,195,o),
(446,-33,o),
(597,-33,cs)
);
}
);
};
hints = (
{
place = (92, 99);
place = (92, 99);
type = Stem;
},
{
place = (150, 107);
place = (150, 107);
type = Stem;
},
{
horizontal = 1;
place = (-33, 21);
target = up;
type = BottomGhost;
},
{
horizontal = 1;
place = (802, -20);
target = down;
type = TopGhost;
}
);
layerId = UUID0;
shapes = (
{
closed = 1;
nodes = (
(543,533,o),
(622,607,o),
(622,695,cs),
(622,733,o),
(614,771,o),
(599,799,c),
(547,676,o),
(397,514,o),
(166,332,c),
(176,282,l)
);
},
{
closed = 1;
nodes = (
(196,-10,o),
(191,29,o),
(191,78,cs),
(191,240,o),
(257,576,o),
(257,684,cs),
(257,753,o),
(251,796,o),
(146,802,c),
(148,776,o),
(150,748,o),
(150,720,cs),
(150,529,o),
(92,233,o),
(92,129,cs),
(92,46,o),
(121,-1,o),
(205,-31,c)
);
},
{
closed = 1;
nodes = (
(613,-33,o),
(631,-28,o),
(641,-23,c),
(534,92,o),
(461,193,o),
(377,461,c),
(285,393,l),
(355,195,o),
(446,-33,o),
(597,-33,cs)
);
}
);
width = 671;
},
{
anchors = (
{
name = bottom;
pos = (332,0);
},
{
name = top;
pos = (406,847);
}
);
background = {
shapes = (
{
closed = 1;
nodes = (
(411,440,o),
(632,567,o),
(632,682,cs),
(632,714,o),
(624,755,o),
(599,799,c),
(548,702,o),
(403,528,o),
(166,347,c),
(176,267,l)
);
}
);
};
layerId = UUID1;
shapes = (
{
closed = 1;
nodes = (
(569,543,o),
(632,601,o),
(632,682,cs),
(632,719,o),
(620,760,o),
(599,799,c),
(535,676,o),
(362,496,o),
(166,347,c),
(176,267,l)
);
},
{
closed = 1;
nodes = (
(213,-10,o),
(208,29,o),
(208,78,cs),
(208,240,o),
(274,576,o),
(274,684,cs),
(274,753,o),
(268,796,o),
(129,802,c),
(131,776,o),
(133,748,o),
(133,720,cs),
(133,529,o),
(75,233,o),
(75,129,cs),
(75,46,o),
(104,-1,o),
(222,-31,c)
);
},
{
closed = 1;
nodes = (
(607,-33,o),
(630,-30,o),
(656,-23,c),
(554,85,o),
(484,181,o),
(404,433,c),
(270,393,l),
(344,195,o),
(429,-33,o),
(587,-33,cs)
);
}
);
width = 671;
},
{
anchors = (
{
name = bottom;
pos = (364,0);
},
{
name = top;
pos = (438,847);
}
);
background = {
shapes = (
{
closed = 1;
nodes = (
(434,423,o),
(668,554,o),
(668,660,cs),
(668,677,o),
(663,726,o),
(620,796,c),
(567,729,o),
(425,538,o),
(187,365,c),
(197,242,l)
);
},
{
closed = 1;
nodes = (
(261,-10,o),
(256,28,o),
(256,78,cs),
(256,240,o),
(318,576,o),
(318,684,cs),
(318,753,o),
(312,796,o),
(123,802,c),
(125,774,o),
(127,745,o),
(127,720,cs),
(127,529,o),
(72,233,o),
(72,129,cs),
(72,49,o),
(97,-1,o),
(269,-31,c)
);
},
{
closed = 1;
nodes = (
(618,-33,o),
(651,-30,o),
(690,-23,c),
(603,66,o),
(488,276,o),
(427,482,c),
(280,372,l),
(346,188,o),
(414,-33,o),
(594,-33,cs)
);
}
);
};
layerId = "BF8042A9-B348-454C-A59B-E2F834F64B4C";
shapes = (
{
closed = 1;
nodes = (
(578,503,o),
(668,583,o),
(668,678,cs),
(668,723,o),
(648,772,o),
(620,796,c),
(530,657,o),
(369,496,o),
(187,365,c),
(197,255,l)
);
},
{
closed = 1;
nodes = (
(261,-10,o),
(256,28,o),
(256,78,cs),
(256,240,o),
(318,576,o),
(318,684,cs),
(318,753,o),
(312,796,o),
(123,802,c),
(125,774,o),
(127,745,o),
(127,720,cs),
(127,529,o),
(72,233,o),
(72,129,cs),
(72,49,o),
(97,-1,o),
(269,-31,c)
);
},
{
closed = 1;
nodes = (
(618,-33,o),
(651,-30,o),
(690,-23,c),
(603,66,o),
(488,276,o),
(427,482,c),
(280,372,l),
(346,188,o),
(414,-33,o),
(594,-33,cs)
);
}
);
width = 695;
},
{
anchors = (
{
name = bottom;
pos = (325,0);
},
{
name = top;
pos = (399,847);
}
);
hints = (
{
place = (112, 121);
place = (112, 121);
type = Stem;
},
{
place = (183, 131);
place = (183, 131);
type = Stem;
},
{
horizontal = 1;
place = (-40, 21);
target = up;
type = BottomGhost;
},
{
horizontal = 1;
place = (980, -20);
target = down;
type = TopGhost;
}
);
layerId = "540B6D0C-2188-4C95-B7F2-D6A6068F7705";
shapes = (
{
closed = 1;
nodes = (
(535,540,o),
(612,612,o),
(612,699,cs),
(612,735,o),
(606,771,o),
(594,800,c),
(551,680,o),
(403,518,o),
(161,325,c),
(171,288,l)
);
},
{
closed = 1;
nodes = (
(182,-10,o),
(177,29,o),
(177,78,cs),
(177,240,o),
(243,576,o),
(243,684,cs),
(243,753,o),
(237,796,o),
(151,802,c),
(153,776,o),
(155,749,o),
(155,720,cs),
(155,529,o),
(96,233,o),
(96,129,cs),
(96,45,o),
(126,-1,o),
(191,-31,c)
);
},
{
closed = 1;
nodes = (
(612,-33,o),
(627,-28,o),
(630,-23,c),
(519,98,o),
(455,175,o),
(366,456,c),
(286,398,l),
(357,197,o),
(453,-33,o),
(598,-33,cs)
);
}
);
width = 665.66667;
}
);
unicode = 75;
},
{
glyphname = L;
kernRight = L;
lastChange = "2022-09-23 07:47:40 +0000";
layers = (
{
anchors = (
{
name = bottom;
pos = (294,0);
},
{
name = center;
pos = (214,424);
},
{
name = top;
pos = (244,847);
},
{
name = topright;
pos = (349,599);
}
);
background = {
shapes = (
{
closed = 1;
nodes = (
(218,44,l),
(217,55,o),
(217,66,o),
(217,78,cs),
(217,180,o),
(239,334,o),
(258,464,cs),
(272,560,o),
(283,643,o),
(283,684,cs),
(283,753,o),
(277,796,o),
(138,802,c),
(140,776,o),
(142,748,o),
(142,720,cs),
(142,585,o),
(122,440,o),
(105,322,cs),
(94,241,o),
(84,173,o),
(84,129,cs),
(84,92,o),
(90,61,o),
(107,37,c)
);
},
{
closed = 1;
nodes = (
(203,26,o),
(364,-12,o),
(433,-12,cs),
(504,-12,o),
(556,44,o),
(568,144,c),
(501,122,o),
(355,106,o),
(209,106,cs),
(67,106,o),
(36,19,o),
(28,-12,c)
);
},
{
closed = 1;
nodes = (
(203,26,o),
(364,-12,o),
(433,-12,cs),
(504,-12,o),
(556,44,o),
(568,144,c),
(501,122,o),
(355,106,o),
(209,106,cs),
(67,106,o),
(36,19,o),
(28,-12,c)
);
}
);
};
hints = (
{
place = (101, 99);
place = (101, 99);
type = Stem;
},
{
place = (159, 107);
place = (159, 107);
type = Stem;
},
{
horizontal = 1;
place = (-8, 92);
place = (-8, 92);
type = Stem;
},
{
horizontal = 1;
place = (5, 79);
place = (5, 79);
type = Stem;
},
{
horizontal = 1;
place = (30, 54);
place = (30, 54);
type = Stem;
},
{
horizontal = 1;
place = (802, -20);
target = down;
type = TopGhost;
}
);
layerId = UUID0;
shapes = (
{
closed = 1;
nodes = (
(201,44,o),
(200,61,o),
(200,78,cs),
(200,240,o),
(266,576,o),
(266,684,cs),
(266,753,o),
(260,796,o),
(155,802,c),
(157,776,o),
(159,748,o),
(159,720,cs),
(159,529,o),
(101,233,o),
(101,129,cs),
(101,88,o),
(108,57,o),
(125,31,c),
(202,30,l)
);
},
{
closed = 1;
nodes = (
(108,2,o),
(159,5,o),
(206,5,cs),
(300,5,o),
(378,-8,o),
(419,-8,cs),
(483,-8,o),
(530,36,o),
(540,114,c),
(480,97,o),
(349,84,o),
(218,84,cs),
(91,84,o),
(63,16,o),
(56,-8,c)
);
}
);
width = 547;
},
{
anchors = (
{
name = bottom;
pos = (294,0);
},
{
name = center;
pos = (214,424);
},
{
name = top;
pos = (224,847);
},
{
name = topright;
pos = (349,599);
}
);
background = {
shapes = (
{
closed = 1;
nodes = (
(218,44,l),
(217,55,o),
(217,66,o),
(217,78,cs),
(217,180,o),
(239,334,o),
(258,464,cs),
(272,560,o),
(283,643,o),
(283,684,cs),
(283,753,o),
(277,796,o),
(138,802,c),
(140,776,o),
(142,748,o),
(142,720,cs),
(142,585,o),
(122,440,o),
(105,322,cs),
(94,241,o),
(84,173,o),
(84,129,cs),
(84,92,o),
(90,61,o),
(107,37,c)
);
},
{
closed = 1;
nodes = (
(203,26,o),
(364,-12,o),
(433,-12,cs),
(504,-12,o),
(556,44,o),
(568,144,c),
(501,122,o),
(355,106,o),
(209,106,cs),
(67,106,o),
(36,19,o),
(28,-12,c)
);
},
{
closed = 1;
nodes = (
(203,26,o),
(364,-12,o),
(433,-12,cs),
(504,-12,o),
(556,44,o),
(568,144,c),
(501,122,o),
(355,106,o),
(209,106,cs),
(67,106,o),
(36,19,o),
(28,-12,c)
);
}
);
};
layerId = UUID1;
shapes = (
{
closed = 1;
nodes = (
(218,44,o),
(217,61,o),
(217,78,cs),
(217,240,o),
(283,576,o),
(283,684,cs),
(283,753,o),
(277,796,o),
(138,802,c),
(140,776,o),
(142,748,o),
(142,720,cs),
(142,529,o),
(84,233,o),
(84,129,cs),
(84,88,o),
(91,57,o),
(112,31,c),
(219,30,l)
);
},
{
closed = 1;
nodes = (
(86,1,o),
(143,5,o),
(195,5,cs),
(300,5,o),
(387,-12,o),
(433,-12,cs),
(504,-12,o),
(556,44,o),
(568,144,c),
(501,122,o),
(355,106,o),
(209,106,cs),
(67,106,o),
(36,19,o),
(28,-12,c)
);
}
);
width = 547;
},
{
anchors = (
{
name = bottom;
pos = (317,0);
},
{
name = center;
pos = (247,424);
},
{
name = top;
pos = (247,847);
},
{
name = topright;
pos = (386,599);
}
);
background = {
shapes = (
{
closed = 1;
nodes = (
(236,44,o),
(235,61,o),
(235,78,cs),
(235,240,o),
(301,576,o),
(301,684,cs),
(301,753,o),
(295,796,o),
(156,802,c),
(158,776,o),
(160,748,o),
(160,720,cs),
(160,529,o),
(102,233,o),
(102,129,cs),
(102,88,o),
(109,57,o),
(130,31,c),
(237,30,l)
);
},
{
closed = 1;
nodes = (
(104,1,o),
(161,5,o),
(213,5,cs),
(318,5,o),
(405,-12,o),
(451,-12,cs),
(522,-12,o),
(574,44,o),
(586,144,c),
(519,122,o),
(373,106,o),
(227,106,cs),
(85,106,o),
(54,19,o),
(46,-12,c)
);
}
);
};
layerId = "BF8042A9-B348-454C-A59B-E2F834F64B4C";
shapes = (
{
closed = 1;
nodes = (
(271,42,o),
(270,59,o),
(270,78,cs),
(270,240,o),
(330,576,o),
(330,684,cs),
(330,752,o),
(325,796,o),
(137,802,c),
(139,778,o),
(141,749,o),
(141,720,cs),
(141,529,o),
(88,233,o),
(88,129,cs),
(88,89,o),
(94,57,o),
(121,31,c),
(272,30,l)
);
},
{
closed = 1;
nodes = (
(81,-1,o),
(141,5,o),
(200,5,cs),
(316,5,o),
(412,-19,o),
(463,-19,cs),
(540,-19,o),
(597,58,o),
(611,194,c),
(537,164,o),
(376,143,o),
(217,143,cs),
(60,143,o),
(26,24,o),
(17,-19,c)
);
}
);
width = 594;
},
{
anchors = (
{
name = bottom;
pos = (289,0);
},
{
name = center;
pos = (207,424);
},
{
name = top;
pos = (243,847);
},
{
name = topright;
pos = (341,599);
}
);
hints = (
{
place = (123, 121);
place = (123, 121);
type = Stem;
},
{
place = (194, 131);
place = (194, 131);
type = Stem;
},
{
horizontal = 1;
place = (-10, 112);
place = (-10, 112);
type = Stem;
},
{
horizontal = 1;
place = (6, 97);
place = (6, 97);
type = Stem;
},
{
horizontal = 1;
place = (37, 66);
place = (37, 66);
type = Stem;
},
{
horizontal = 1;
place = (980, -20);
target = down;
type = TopGhost;
}
);
layerId = "540B6D0C-2188-4C95-B7F2-D6A6068F7705";
shapes = (
{
closed = 1;
nodes = (
(185,44,o),
(184,61,o),
(184,78,cs),
(184,240,o),
(252,576,o),
(252,684,cs),
(252,753,o),
(246,796,o),
(159,802,c),
(161,776,o),
(163,748,o),
(163,720,cs),
(163,529,o),
(104,233,o),
(104,129,cs),
(104,88,o),
(111,57,o),
(126,31,c),
(186,30,l)
);
},
{
closed = 1;
nodes = (
(114,3,o),
(163,5,o),
(207,5,cs),
(296,5,o),
(370,-6,o),
(409,-6,cs),
(470,-6,o),
(515,31,o),
(524,96,c),
(467,82,o),
(343,71,o),
(218,71,cs),
(98,71,o),
(71,14,o),
(65,-6,c)
);
}
);
width = 536.55556;
}
);
unicode = 76;
},
{
glyphname = M;
lastChange = "2022-09-23 07:47:40 +0000";
layers = (
{
background = {
shapes = (
{
closed = 1;
nodes = (
(842,753,o),
(816,795,o),
(738,802,c),
(740,776,o),
(742,748,o),
(742,720,cs),
(742,689,o),
(730,658,o),
(728,626,cs),
(722,520,o),
(707,413,o),
(694,322,cs),
(683,241,o),
(673,173,o),
(673,129,cs),
(673,46,o),
(700,-1,o),
(790,-31,c),
(781,-10,o),
(776,29,o),
(776,78,cs),
(776,240,o),
(842,576,o),
(842,684,cs)
);
},
{
closed = 1;
nodes = (
(75,24,o),
(102,-5,o),
(179,-5,c),
(177,21,o),
(175,50,o),
(175,78,cs),
(175,303,o),
(228,495,o),
(228,657,cs),
(228,721,o),
(215,769,o),
(138,796,c),
(147,776,o),
(152,745,o),
(152,695,cs),
(152,521,o),
(75,108,o),
(75,58,cs)
);
},
{
closed = 1;
nodes = (
(262,754,o),
(244,803,o),
(150,803,cs),
(133,803,o),
(106,793,o),
(91,777,c),
(194,683,o),
(294,400,o),
(375,191,c),
(377,183,o),
(395,174,o),
(417,174,cs),
(432,174,o),
(461,178,o),
(478,188,c),
(565,329,o),
(670,465,o),
(739,610,cs),
(778,693,o),
(789,740,o),
(738,802,c),
(708,627,o),
(537,397,o),
(448,264,c)
);
}
);
};
hints = (
{
place = (75, 100);
place = (75, 100);
type = Stem;
},
{
place = (152, 23);
place = (152, 23);
type = Stem;
},
{
place = (673, 103);
place = (673, 103);
type = Stem;
},
{
place = (728, 114);
place = (728, 114);
type = Stem;
},
{
place = (742, 100);
place = (742, 100);
type = Stem;
},
{
place = (152, 76);
place = (152, 76);
type = Stem;
},
{
horizontal = 1;
place = (-31, 21);
target = up;
type = BottomGhost;
},
{
horizontal = 1;
place = (-5, 21);
target = up;
type = BottomGhost;
},
{
horizontal = 1;
place = (803, -20);
target = down;
type = TopGhost;
}
);
layerId = UUID0;
shapes = (
{
closed = 1;
nodes = (
(432,174,o),
(461,178,o),
(478,188,c),
(565,329,o),
(670,465,o),
(739,610,cs),
(778,693,o),
(789,740,o),
(738,802,c),
(708,627,o),
(537,397,o),
(448,264,c),
(262,754,o),
(244,803,o),
(150,803,cs),
(133,803,o),
(106,793,o),
(91,777,c),
(194,683,o),
(294,400,o),
(375,191,c),
(377,183,o),
(395,174,o),
(417,174,cs)
);
},
{
closed = 1;
nodes = (
(177,21,o),
(175,50,o),
(175,78,cs),
(175,303,o),
(228,495,o),
(228,657,cs),
(228,721,o),
(215,769,o),
(138,796,c),
(147,776,o),
(152,745,o),
(152,695,cs),
(152,521,o),
(75,108,o),
(75,58,cs),
(75,24,o),
(102,-5,o),
(179,-5,c)
);
},
{
closed = 1;
nodes = (
(781,-10,o),
(776,29,o),
(776,78,cs),
(776,240,o),
(842,576,o),
(842,684,cs),
(842,753,o),
(816,795,o),
(738,802,c),
(738,539,o),
(673,240,o),
(673,129,cs),
(673,46,o),
(700,-1,o),
(790,-31,c)
);
}
);
width = 927;
},
{
background = {
shapes = (
{
closed = 1;
nodes = (
(857,753,o),
(834,796,o),
(723,802,c),
(725,776,o),
(727,748,o),
(727,720,cs),
(727,689,o),
(715,658,o),
(713,626,cs),
(707,520,o),
(692,413,o),
(679,322,cs),
(668,241,o),
(658,173,o),
(658,129,cs),
(658,46,o),
(687,-1,o),
(805,-31,c),
(796,-10,o),
(791,29,o),
(791,78,cs),
(791,240,o),
(857,576,o),
(857,684,cs)
);
}
);
};
layerId = UUID1;
shapes = (
{
closed = 1;
nodes = (
(436,174,o),
(460,178,o),
(483,188,c),
(569,328,o),
(658,461,o),
(733,600,cs),
(780,688,o),
(801,738,o),
(723,802,c),
(692,641,o),
(547,422,o),
(454,286,c),
(274,756,o),
(256,803,o),
(165,803,cs),
(140,803,o),
(99,793,o),
(76,777,c),
(179,683,o),
(279,400,o),
(360,191,c),
(363,183,o),
(386,174,o),
(416,174,cs)
);
},
{
closed = 1;
nodes = (
(187,21,o),
(185,50,o),
(185,78,cs),
(185,303,o),
(228,495,o),
(228,657,cs),
(228,715,o),
(216,759,o),
(123,783,c),
(132,766,o),
(137,739,o),
(137,695,cs),
(137,521,o),
(70,108,o),
(70,58,cs),
(70,24,o),
(87,-5,o),
(189,-5,c)
);
},
{
closed = 1;
nodes = (
(796,-10,o),
(791,29,o),
(791,78,cs),
(791,240,o),
(857,576,o),
(857,684,cs),
(857,753,o),
(834,796,o),
(723,802,c),
(723,536,o),
(658,243,o),
(658,129,cs),
(658,46,o),
(687,-1,o),
(805,-31,c)
);
}
);
width = 927;
},
{
background = {
shapes = (
{
closed = 1;
nodes = (
(880,752,o),
(862,798,o),
(702,802,c),
(704,776,o),
(706,749,o),
(706,720,cs),
(706,689,o),
(694,663,o),
(692,626,cs),
(685,499,o),
(674,433,o),
(659,321,cs),
(647,234,o),
(639,164,o),
(639,129,cs),
(639,47,o),
(670,-1,o),
(829,-31,c),
(820,-9,o),
(816,32,o),
(816,78,cs),
(816,240,o),
(880,576,o),
(880,684,cs)
);
},
{
closed = 1;
nodes = (
(82,24,o),
(83,-5,o),
(221,-5,c),
(219,30,o),
(218,54,o),
(218,78,cs),
(218,303,o),
(259,495,o),
(259,657,cs),
(259,709,o),
(243,744,o),
(118,763,c),
(127,750,o),
(131,728,o),
(131,695,cs),
(131,521,o),
(82,108,o),
(82,58,cs)
);
},
{
closed = 1;
nodes = (
(307,759,o),
(290,803,o),
(206,803,cs),
(170,803,o),
(107,793,o),
(72,777,c),
(172,683,o),
(267,407,o),
(349,191,c),
(353,183,o),
(384,174,o),
(425,174,cs),
(452,174,o),
(468,178,o),
(500,188,c),
(582,326,o),
(641,449,o),
(726,585,cs),
(784,679,o),
(821,735,o),
(702,802,c),
(670,662,o),
(570,461,o),
(473,320,c)
);
}
);
};
layerId = "BF8042A9-B348-454C-A59B-E2F834F64B4C";
shapes = (
{
closed = 1;
nodes = (
(452,174,o),
(468,178,o),
(500,188,c),
(582,326,o),
(641,449,o),
(726,585,cs),
(784,679,o),
(821,735,o),
(702,802,c),
(670,662,o),
(570,461,o),
(473,320,c),
(307,759,o),
(290,803,o),
(206,803,cs),
(170,803,o),
(107,793,o),
(72,777,c),
(172,683,o),
(267,407,o),
(349,191,c),
(353,183,o),
(384,174,o),
(425,174,cs)
);
},
{
closed = 1;
nodes = (
(220,27,o),
(219,54,o),
(219,78,cs),
(219,303,o),
(258,495,o),
(258,657,cs),
(258,708,o),
(247,745,o),
(117,766,c),
(125,753,o),
(130,730,o),
(130,695,cs),
(130,521,o),
(84,108,o),
(84,58,cs),
(84,24,o),
(83,-5,o),
(222,-5,c)
);
},
{
closed = 1;
nodes = (
(840,-10,o),
(835,28,o),
(835,78,cs),
(835,240,o),
(897,576,o),
(897,684,cs),
(897,753,o),
(891,796,o),
(702,802,c),
(702,616,o),
(651,173,o),
(651,129,cs),
(651,49,o),
(676,-1,o),
(848,-31,c)
);
}
);
width = 968;
},
{
hints = (
{
place = (92, 122);
place = (92, 122);
type = Stem;
},
{
place = (186, 28);
place = (186, 28);
type = Stem;
},
{
place = (823, 126);
place = (823, 126);
type = Stem;
},
{
place = (890, 139);
place = (890, 139);
type = Stem;
},
{
place = (907, 122);
place = (907, 122);
type = Stem;
},
{
place = (186, 93);
place = (186, 93);
type = Stem;
},
{
horizontal = 1;
place = (-38, 21);
target = up;
type = BottomGhost;
},
{
horizontal = 1;
place = (-6, 21);
target = up;
type = BottomGhost;
},
{
horizontal = 1;
place = (981, -20);
target = down;
type = TopGhost;
}
);
layerId = "540B6D0C-2188-4C95-B7F2-D6A6068F7705";
shapes = (
{
closed = 1;
nodes = (
(428,174,o),
(459,178,o),
(473,188,c),
(561,330,o),
(676,469,o),
(742,616,cs),
(777,696,o),
(782,741,o),
(746,802,c),
(716,619,o),
(530,383,o),
(442,252,c),
(252,753,o),
(234,803,o),
(138,803,cs),
(125,803,o),
(106,793,o),
(95,777,c),
(199,683,o),
(300,398,o),
(381,191,c),
(382,183,o),
(397,174,o),
(415,174,cs)
);
},
{
closed = 1;
nodes = (
(167,20,o),
(165,49,o),
(165,78,cs),
(165,303,o),
(221,495,o),
(221,657,cs),
(221,724,o),
(208,774,o),
(143,803,c),
(152,781,o),
(157,748,o),
(157,695,cs),
(157,521,o),
(73,108,o),
(73,58,cs),
(73,24,o),
(106,-5,o),
(169,-5,c)
);
},
{
closed = 1;
nodes = (
(768,-10,o),
(763,29,o),
(763,78,cs),
(763,240,o),
(830,576,o),
(830,684,cs),
(830,753,o),
(799,795,o),
(746,802,c),
(746,522,o),
(678,255,o),
(678,129,cs),
(678,45,o),
(705,-1,o),
(777,-31,c)
);
}
);
width = 917.88889;
}
);
unicode = 77;
},
{
glyphname = N;
kernRight = N;
lastChange = "2022-09-23 07:47:40 +0000";
layers = (
{
anchors = (
{
name = bottom;
pos = (387,0);
},
{
name = top;
pos = (451,847);
}
);
hints = (
{
place = (85, 100);
place = (85, 100);
type = Stem;
},
{
place = (162, 23);
place = (162, 23);
type = Stem;
},
{
place = (593, 77);
place = (593, 77);
type = Stem;
},
{
place = (647, 23);
place = (647, 23);
type = Stem;
},
{
place = (647, 99);
place = (647, 99);
type = Stem;
},
{
place = (162, 76);
place = (162, 76);
type = Stem;
},
{
horizontal = 1;
place = (-5, 21);
target = up;
type = BottomGhost;
},
{
horizontal = 1;
place = (801, -20);
target = down;
type = TopGhost;
},
{
horizontal = 1;
place = (-21, 21);
target = up;
type = BottomGhost;
},
{
horizontal = 1;
place = (802, -20);
target = down;
type = TopGhost;
}
);
layerId = UUID0;
shapes = (
{
closed = 1;
nodes = (
(85,24,o),
(112,-5,o),
(189,-5,c),
(187,21,o),
(185,50,o),
(185,78,cs),
(185,303,o),
(238,495,o),
(238,657,cs),
(238,721,o),
(225,769,o),
(148,796,c),
(157,776,o),
(162,745,o),
(162,695,cs),
(162,521,o),
(85,108,o),
(85,58,cs)
);
},
{
closed = 1;
nodes = (
(675,14,l),
(671,36,o),
(670,63,o),
(670,90,cs),
(670,265,o),
(746,688,o),
(746,740,cs),
(746,773,o),
(720,801,o),
(643,801,c),
(645,776,o),
(647,747,o),
(647,720,cs),
(647,490,o),
(593,260,o),
(593,97,cs),
(593,77,o),
(595,62,o),
(600,45,c)
);
},
{
closed = 1;
nodes = (
(545,2,o),
(568,-21,o),
(603,-21,cs),
(633,-21,o),
(660,-10,o),
(698,19,c),
(593,77,o),
(505,282,o),
(416,461,cs),
(341,612,o),
(288,707,o),
(265,742,cs),
(235,787,o),
(199,802,o),
(155,802,cs),
(132,802,o),
(105,794,o),
(75,773,c),
(94,760,o),
(128,743,o),
(161,703,cs),
(285,554,o),
(474,113,o),
(524,38,cs)
);
}
);
width = 821;
},
{
anchors = (
{
name = bottom;
pos = (387,0);
},
{
name = top;
pos = (451,847);
}
);
layerId = UUID1;
shapes = (
{
closed = 1;
nodes = (
(80,24,o),
(97,-5,o),
(199,-5,c),
(197,21,o),
(195,50,o),
(195,78,cs),
(195,303,o),
(248,495,o),
(248,657,cs),
(248,721,o),
(235,769,o),
(133,796,c),
(142,776,o),
(147,745,o),
(147,695,cs),
(147,521,o),
(80,108,o),
(80,58,cs)
);
},
{
closed = 1;
nodes = (
(690,14,l),
(686,36,o),
(685,63,o),
(685,90,cs),
(685,265,o),
(751,688,o),
(751,740,cs),
(751,773,o),
(735,801,o),
(633,801,c),
(635,776,o),
(637,747,o),
(637,720,cs),
(637,490,o),
(583,260,o),
(583,97,cs),
(583,77,o),
(585,62,o),
(590,45,c)
);
},
{
closed = 1;
nodes = (
(534,-5,o),
(558,-21,o),
(601,-21,cs),
(635,-21,o),
(668,-10,o),
(713,19,c),
(608,77,o),
(523,282,o),
(434,461,cs),
(359,612,o),
(307,708,o),
(283,742,cs),
(250,788,o),
(203,802,o),
(152,802,cs),
(126,802,o),
(95,794,o),
(60,773,c),
(79,760,o),
(117,744,o),
(148,703,cs),
(262,554,o),
(457,113,o),
(506,38,cs)
);
}
);
width = 821;
},
{
anchors = (
{
name = bottom;
pos = (393,0);
},
{
name = top;
pos = (447,847);
}
);
layerId = "BF8042A9-B348-454C-A59B-E2F834F64B4C";
shapes = (
{
closed = 1;
nodes = (
(85,24,o),
(84,-5,o),
(223,-5,c),
(221,27,o),
(220,54,o),
(220,78,cs),
(220,303,o),
(259,495,o),
(259,657,cs),
(259,722,o),
(248,769,o),
(118,796,c),
(126,776,o),
(131,745,o),
(131,695,cs),
(131,521,o),
(85,108,o),
(85,58,cs)
);
},
{
closed = 1;
nodes = (
(694,14,l),
(690,36,o),
(689,63,o),
(689,90,cs),
(689,265,o),
(734,688,o),
(734,740,cs),
(734,773,o),
(736,801,o),
(597,801,c),
(598,784,o),
(600,750,o),
(600,720,cs),
(600,490,o),
(560,260,o),
(560,97,cs),
(560,80,o),
(559,64,o),
(556,45,c)
);
},
{
closed = 1;
nodes = (
(499,-15,o),
(521,-21,o),
(580,-21,cs),
(620,-21,o),
(661,-10,o),
(715,19,c),
(617,77,o),
(540,285,o),
(458,461,cs),
(388,612,o),
(339,712,o),
(317,741,cs),
(280,790,o),
(217,802,o),
(156,802,cs),
(127,802,o),
(91,794,o),
(49,773,c),
(67,760,o),
(109,746,o),
(135,703,cs),
(225,554,o),
(419,110,o),
(464,39,cs)
);
}
);
width = 813;
},
{
anchors = (
{
name = bottom;
pos = (386,0);
},
{
name = top;
pos = (452,847);
}
);
hints = (
{
place = (104, 122);
place = (104, 122);
type = Stem;
},
{
place = (198, 28);
place = (198, 28);
type = Stem;
},
{
place = (725, 94);
place = (725, 94);
type = Stem;
},
{
place = (791, 28);
place = (791, 28);
type = Stem;
},
{
place = (791, 121);
place = (791, 121);
type = Stem;
},
{
place = (198, 93);
place = (198, 93);
type = Stem;
},
{
horizontal = 1;
place = (-6, 21);
target = up;
type = BottomGhost;
},
{
horizontal = 1;
place = (979, -20);
target = down;
type = TopGhost;
},
{
horizontal = 1;
place = (-26, 21);
target = up;
type = BottomGhost;
},
{
horizontal = 1;
place = (980, -20);
target = down;
type = TopGhost;
}
);
layerId = "540B6D0C-2188-4C95-B7F2-D6A6068F7705";
shapes = (
{
closed = 1;
nodes = (
(85,24,o),
(118,-5,o),
(181,-5,c),
(179,20,o),
(177,49,o),
(177,78,cs),
(177,303,o),
(233,495,o),
(233,657,cs),
(233,721,o),
(220,769,o),
(155,796,c),
(164,776,o),
(169,745,o),
(169,695,cs),
(169,521,o),
(85,108,o),
(85,58,cs)
);
},
{
closed = 1;
nodes = (
(671,14,l),
(667,36,o),
(666,63,o),
(666,90,cs),
(666,265,o),
(749,688,o),
(749,740,cs),
(749,773,o),
(716,801,o),
(653,801,c),
(655,774,o),
(657,746,o),
(657,720,cs),
(657,490,o),
(600,260,o),
(600,97,cs),
(600,76,o),
(603,62,o),
(610,45,c)
);
},
{
closed = 1;
nodes = (
(555,6,o),
(578,-21,o),
(608,-21,cs),
(636,-21,o),
(660,-10,o),
(694,19,c),
(588,77,o),
(497,281,o),
(407,461,cs),
(331,612,o),
(277,706,o),
(253,742,cs),
(225,786,o),
(195,802,o),
(155,802,cs),
(133,802,o),
(108,794,o),
(81,773,c),
(100,760,o),
(132,742,o),
(167,703,cs),
(298,554,o),
(486,114,o),
(537,38,cs)
);
}
);
width = 822.77778;
}
);
unicode = 78;
},
{
glyphname = Eng;
lastChange = "2022-10-06 12:52:15 +0000";
layers = (
{
background = {
shapes = (
{
closed = 1;
nodes = (
(711,560,o),
(689,583,o),
(634,583,cs),
(624,583,o),
(609,582,o),
(600,581,c),
(603,532,o),
(606,475,o),
(606,412,cs),
(606,124,o),
(562,-270,o),
(410,-270,cs),
(382,-270,o),
(363,-247,o),
(363,-207,cs),
(363,-167,o),
(379,-135,o),
(400,-115,c),
(389,-110,o),
(376,-108,o),
(367,-108,cs),
(305,-108,o),
(269,-163,o),
(269,-218,cs),
(269,-284,o),
(324,-334,o),
(395,-334,cs),
(676,-334,o),
(711,246,o),
(711,504,cs)
);
},
{
closed = 1;
nodes = (
(85,24,o),
(112,-5,o),
(189,-5,c),
(187,21,o),
(185,50,o),
(185,78,cs),
(185,303,o),
(238,495,o),
(238,657,cs),
(238,721,o),
(225,769,o),
(148,796,c),
(157,776,o),
(162,745,o),
(162,695,cs),
(162,521,o),
(85,108,o),
(85,58,cs)
);
},
{
closed = 1;
nodes = (
(675,14,l),
(671,36,o),
(670,63,o),
(670,90,cs),
(670,265,o),
(746,688,o),
(746,740,cs),
(746,773,o),
(720,801,o),
(643,801,c),
(645,776,o),
(647,747,o),
(647,720,cs),
(647,490,o),
(593,260,o),
(593,97,cs),
(593,77,o),
(595,62,o),
(600,45,c)
);
},
{
closed = 1;
nodes = (
(545,2,o),
(568,-21,o),
(603,-21,cs),
(633,-21,o),
(660,-10,o),
(698,19,c),
(593,77,o),
(505,282,o),
(416,461,cs),
(341,612,o),
(288,707,o),
(265,742,cs),
(235,787,o),
(199,802,o),
(155,802,cs),
(132,802,o),
(105,794,o),
(75,773,c),
(94,760,o),
(128,743,o),
(161,703,cs),
(285,554,o),
(474,113,o),
(524,38,c)
);
}
);
};
layerId = UUID0;
shapes = (
{
closed = 1;
nodes = (
(676,-334,o),
(745,466,o),
(745,724,cs),
(745,780,o),
(732,803,o),
(677,803,cs),
(667,803,o),
(652,802,o),
(643,801,c),
(646,752,o),
(649,695,o),
(649,632,cs),
(649,344,o),
(562,-270,o),
(410,-270,cs),
(382,-270,o),
(363,-247,o),
(363,-207,cs),
(363,-167,o),
(379,-135,o),
(400,-115,c),
(389,-110,o),
(376,-108,o),
(367,-108,cs),
(305,-108,o),
(269,-163,o),
(269,-218,cs),
(269,-284,o),
(324,-334,o),
(395,-334,cs)
);
},
{
closed = 1;
nodes = (
(187,21,o),
(185,50,o),
(185,78,cs),
(185,303,o),
(238,495,o),
(238,657,cs),
(238,721,o),
(225,769,o),
(148,796,c),
(157,776,o),
(162,745,o),
(162,695,cs),
(162,521,o),
(85,108,o),
(85,58,cs),
(85,24,o),
(112,-5,o),
(189,-5,c)
);
},
{
closed = 1;
nodes = (
(612,92,l),
(543,183,o),
(480,333,o),
(416,461,cs),
(341,612,o),
(288,707,o),
(265,742,cs),
(235,787,o),
(199,802,o),
(155,802,cs),
(132,802,o),
(105,794,o),
(75,773,c),
(94,760,o),
(128,743,o),
(161,703,cs),
(285,554,o),
(455,163,o),
(499,85,cs),
(526,36,o),
(572,1,o),
(612,-1,c)
);
}
);
width = 820;
},
{
background = {
shapes = (
{
closed = 1;
nodes = (
(735,560,o),
(710,583,o),
(635,583,cs),
(623,583,o),
(603,582,o),
(592,581,c),
(595,532,o),
(596,475,o),
(596,412,cs),
(596,124,o),
(559,-260,o),
(423,-260,cs),
(398,-260,o),
(381,-239,o),
(381,-205,cs),
(381,-165,o),
(410,-119,o),
(428,-105,c),
(414,-100,o),
(399,-98,o),
(387,-98,cs),
(311,-98,o),
(267,-158,o),
(267,-218,cs),
(267,-284,o),
(325,-334,o),
(400,-334,cs),
(697,-334,o),
(735,246,o),
(735,504,cs)
);
},
{
closed = 1;
nodes = (
(80,24,o),
(97,-5,o),
(199,-5,c),
(197,21,o),
(195,50,o),
(195,78,cs),
(195,303,o),
(248,495,o),
(248,657,cs),
(248,721,o),
(235,769,o),
(133,796,c),
(142,776,o),
(147,745,o),
(147,695,cs),
(147,521,o),
(80,108,o),
(80,58,cs)
);
},
{
closed = 1;
nodes = (
(690,14,l),
(686,36,o),
(685,63,o),
(685,90,cs),
(685,265,o),
(751,688,o),
(751,740,cs),
(751,773,o),
(735,801,o),
(633,801,c),
(635,776,o),
(637,747,o),
(637,720,cs),
(637,490,o),
(583,260,o),
(583,97,cs),
(583,77,o),
(585,62,o),
(590,45,c)
);
},
{
closed = 1;
nodes = (
(534,-5,o),
(558,-21,o),
(601,-21,cs),
(635,-21,o),
(668,-10,o),
(713,19,c),
(608,77,o),
(523,282,o),
(434,461,cs),
(359,612,o),
(307,708,o),
(283,742,cs),
(250,788,o),
(203,802,o),
(152,802,cs),
(126,802,o),
(95,794,o),
(60,773,c),
(79,760,o),
(117,744,o),
(148,703,cs),
(262,554,o),
(457,113,o),
(506,38,c)
);
}
);
};
layerId = UUID1;
shapes = (
{
closed = 1;
nodes = (
(697,-334,o),
(750,541,o),
(750,724,cs),
(750,780,o),
(751,803,o),
(676,803,cs),
(664,803,o),
(644,802,o),
(633,801,c),
(636,752,o),
(637,695,o),
(637,632,cs),
(637,344,o),
(559,-260,o),
(423,-260,cs),
(398,-260,o),
(381,-239,o),
(381,-205,cs),
(381,-165,o),
(410,-119,o),
(428,-105,c),
(414,-100,o),
(399,-98,o),
(387,-98,cs),
(311,-98,o),
(267,-158,o),
(267,-218,cs),
(267,-284,o),
(325,-334,o),
(400,-334,cs)
);
},
{
closed = 1;
nodes = (
(197,21,o),
(195,50,o),
(195,78,cs),
(195,303,o),
(248,495,o),
(248,657,cs),
(248,721,o),
(235,769,o),
(133,796,c),
(142,776,o),
(147,745,o),
(147,695,cs),
(147,521,o),
(80,108,o),
(80,58,cs),
(80,24,o),
(97,-5,o),
(199,-5,c)
);
},
{
closed = 1;
nodes = (
(627,81,l),
(559,172,o),
(498,333,o),
(434,461,cs),
(359,612,o),
(307,708,o),
(283,742,cs),
(250,788,o),
(203,802,o),
(152,802,cs),
(126,802,o),
(95,794,o),
(60,773,c),
(79,760,o),
(117,744,o),
(148,703,cs),
(262,554,o),
(435,161,o),
(483,86,cs),
(528,16,o),
(567,0,o),
(627,0,c)
);
}
);
width = 820;
},
{
background = {
shapes = (
{
closed = 1;
nodes = (
(85,24,o),
(84,-5,o),
(223,-5,c),
(221,27,o),
(220,54,o),
(220,78,cs),
(220,303,o),
(259,495,o),
(259,657,cs),
(259,722,o),
(248,769,o),
(118,796,c),
(126,776,o),
(131,745,o),
(131,695,cs),
(131,521,o),
(85,108,o),
(85,58,cs)
);
},
{
closed = 1;
nodes = (
(499,-15,o),
(521,-21,o),
(580,-21,c),
(620,125,l),
(563,216,o),
(512,346,o),
(458,461,cs),
(388,612,o),
(339,712,o),
(317,741,cs),
(280,790,o),
(217,802,o),
(156,802,cs),
(127,802,o),
(91,794,o),
(49,773,c),
(67,760,o),
(109,746,o),
(135,703,cs),
(225,554,o),
(419,110,o),
(464,39,cs)
);
},
{
closed = 1;
nodes = (
(801,-334,o),
(832,241,o),
(832,497,cs),
(832,560,o),
(803,583,o),
(719,583,cs),
(694,583,o),
(655,578,o),
(624,571,c),
(632,533,o),
(634,489,o),
(634,441,cs),
(634,139,o),
(603,-260,o),
(490,-260,cs),
(470,-260,o),
(457,-239,o),
(457,-205,cs),
(457,-157,o),
(486,-101,o),
(504,-85,c),
(484,-80,o),
(459,-78,o),
(444,-78,cs),
(355,-78,o),
(303,-148,o),
(303,-215,cs),
(303,-285,o),
(361,-334,o),
(446,-334,cs)
);
},
{
closed = 1;
nodes = (
(694,14,l),
(690,36,o),
(689,63,o),
(689,90,cs),
(689,265,o),
(734,688,o),
(734,740,cs),
(734,773,o),
(736,801,o),
(597,801,c),
(598,784,o),
(600,750,o),
(600,720,cs),
(600,490,o),
(560,260,o),
(560,97,cs),
(560,80,o),
(559,64,o),
(556,45,c)
);
}
);
};
layerId = "BF8042A9-B348-454C-A59B-E2F834F64B4C";
shapes = (
{
closed = 1;
nodes = (
(706,-334,o),
(734,392,o),
(734,715,cs),
(734,778,o),
(715,801,o),
(659,801,cs),
(641,801,o),
(613,796,o),
(590,789,c),
(598,751,o),
(600,707,o),
(600,659,cs),
(600,263,o),
(563,-260,o),
(430,-260,cs),
(410,-260,o),
(397,-239,o),
(397,-205,cs),
(397,-157,o),
(426,-101,o),
(444,-85,c),
(424,-80,o),
(399,-78,o),
(384,-78,cs),
(295,-78,o),
(243,-148,o),
(243,-215,cs),
(243,-285,o),
(301,-334,o),
(386,-334,cs)
);
},
{
closed = 1;
nodes = (
(221,27,o),
(220,54,o),
(220,78,cs),
(220,303,o),
(259,495,o),
(259,657,cs),
(259,722,o),
(248,769,o),
(118,796,c),
(126,776,o),
(131,745,o),
(131,695,cs),
(131,521,o),
(85,108,o),
(85,58,cs),
(85,24,o),
(84,-5,o),
(223,-5,c)
);
},
{
closed = 1;
nodes = (
(620,145,l),
(563,231,o),
(512,353,o),
(458,461,cs),
(388,612,o),
(339,712,o),
(317,741,cs),
(280,790,o),
(217,802,o),
(156,802,cs),
(127,802,o),
(91,794,o),
(49,773,c),
(67,760,o),
(109,746,o),
(135,703,cs),
(225,558,o),
(419,130,o),
(464,59,cs),
(499,5,o),
(521,-1,o),
(580,-1,c)
);
}
);
width = 813;
},
{
layerId = "540B6D0C-2188-4C95-B7F2-D6A6068F7705";
shapes = (
{
closed = 1;
nodes = (
(669,-334,o),
(747,482,o),
(747,726,cs),
(747,780,o),
(736,803,o),
(681,803,cs),
(673,803,o),
(661,803,o),
(655,804,c),
(657,752,o),
(660,692,o),
(660,626,cs),
(660,362,o),
(562,-272,o),
(406,-272,cs),
(376,-272,o),
(355,-249,o),
(355,-207,cs),
(355,-169,o),
(369,-143,o),
(390,-122,c),
(381,-117,o),
(371,-115,o),
(363,-115,cs),
(307,-115,o),
(275,-166,o),
(275,-219,cs),
(275,-284,o),
(329,-334,o),
(397,-334,cs)
);
},
{
closed = 1;
nodes = (
(179,20,o),
(177,49,o),
(177,78,cs),
(177,303,o),
(233,495,o),
(233,657,cs),
(233,721,o),
(220,769,o),
(155,796,c),
(164,776,o),
(169,745,o),
(169,695,cs),
(169,521,o),
(85,108,o),
(85,58,cs),
(85,24,o),
(118,-5,o),
(181,-5,c)
);
},
{
closed = 1;
nodes = (
(610,80,l),
(539,172,o),
(473,329,o),
(407,461,cs),
(331,612,o),
(277,706,o),
(253,742,cs),
(225,786,o),
(195,802,o),
(155,802,cs),
(133,802,o),
(108,794,o),
(81,773,c),
(100,760,o),
(132,742,o),
(167,703,cs),
(298,553,o),
(463,170,o),
(507,91,cs),
(532,43,o),
(583,1,o),
(619,-1,c)
);
}
);
width = 821;
}
);
metricLeft = N;
metricRight = N;
unicode = 330;
},
{
glyphname = O;
kernLeft = C;
kernRight = D;
lastChange = "2022-09-23 07:47:40 +0000";
layers = (
{
anchors = (
{
name = bottom;
pos = (366,0);
},
{
name = center;
pos = (401,424);
},
{
name = ogonek;
pos = (434,0);
},
{
name = top;
pos = (460,847);
},
{
name = topleft;
pos = (20,847);
},
{
name = topright;
pos = (547,784);
}
);
background = {
shapes = (
{
closed = 1;
nodes = (
(539,716,o),
(601,647,o),
(601,450,cs),
(601,255,o),
(518,45,o),
(372,45,cs),
(254,45,o),
(205,175,o),
(205,330,cs),
(205,512,o),
(318,716,o),
(459,716,cs)
);
},
{
closed = 1;
nodes = (
(641,-25,o),
(752,244,o),
(752,479,cs),
(752,700,o),
(640,804,o),
(513,804,cs),
(396,804,o),
(268,716,o),
(210,553,c),
(231,680,o),
(300,761,o),
(366,809,c),
(365,818,o),
(353,828,o),
(342,830,c),
(163,786,o),
(50,600,o),
(50,379,cs),
(50,191,o),
(141,-25,o),
(357,-25,cs)
);
}
);
};
hints = (
{
place = (65, 117);
place = (65, 117);
type = Stem;
},
{
place = (624, 113);
place = (624, 113);
type = Stem;
},
{
horizontal = 1;
place = (-25, 60);
place = (-25, 60);
type = Stem;
},
{
horizontal = 1;
place = (731, 73);
place = (731, 73);
type = Stem;
},
{
horizontal = 1;
place = (827, -20);
target = down;
type = TopGhost;
}
);
layerId = UUID0;
shapes = (
{
closed = 1;
nodes = (
(631,-25,o),
(737,244,o),
(737,479,cs),
(737,700,o),
(625,804,o),
(498,804,cs),
(391,804,o),
(267,731,o),
(202,594,c),
(194,596,l),
(225,711,o),
(290,767,o),
(361,811,c),
(360,818,o),
(351,825,o),
(342,827,c),
(180,776,o),
(65,600,o),
(65,379,cs),
(65,191,o),
(152,-25,o),
(359,-25,cs)
);
},
{
closed = 1;
nodes = (
(238,35,o),
(182,170,o),
(182,330,cs),
(182,519,o),
(295,731,o),
(458,731,cs),
(551,731,o),
(624,658,o),
(624,450,cs),
(624,250,o),
(533,35,o),
(372,35,cs)
);
}
);
width = 802;
},
{
anchors = (
{
name = bottom;
pos = (366,0);
},
{
name = center;
pos = (401,424);
},
{
name = ogonek;
pos = (434,0);
},
{
name = top;
pos = (460,847);
},
{
name = topleft;
pos = (20,847);
},
{
name = topright;
pos = (547,784);
}
);
background = {
shapes = (
{
closed = 1;
nodes = (
(539,716,o),
(601,647,o),
(601,450,cs),
(601,255,o),
(518,45,o),
(372,45,cs),
(254,45,o),
(205,175,o),
(205,330,cs),
(205,512,o),
(318,716,o),
(459,716,cs)
);
},
{
closed = 1;
nodes = (
(641,-25,o),
(752,244,o),
(752,479,cs),
(752,700,o),
(640,804,o),
(513,804,cs),
(396,804,o),
(268,716,o),
(210,553,c),
(231,680,o),
(300,761,o),
(366,809,c),
(365,818,o),
(353,828,o),
(342,830,c),
(163,786,o),
(50,600,o),
(50,379,cs),
(50,191,o),
(141,-25,o),
(357,-25,cs)
);
}
);
};
layerId = UUID1;
shapes = (
{
closed = 1;
nodes = (
(641,-25,o),
(752,244,o),
(752,479,cs),
(752,700,o),
(640,804,o),
(513,804,cs),
(406,804,o),
(290,731,o),
(227,594,c),
(220,597,l),
(247,699,o),
(308,767,o),
(366,809,c),
(365,818,o),
(353,828,o),
(342,830,c),
(163,786,o),
(50,600,o),
(50,379,cs),
(50,191,o),
(141,-25,o),
(357,-25,cs)
);
},
{
closed = 1;
nodes = (
(259,45,o),
(211,175,o),
(211,330,cs),
(211,512,o),
(321,716,o),
(457,716,cs),
(535,716,o),
(595,647,o),
(595,450,cs),
(595,255,o),
(514,45,o),
(373,45,cs)
);
}
);
width = 802;
},
{
anchors = (
{
name = bottom;
pos = (369,0);
},
{
name = center;
pos = (404,424);
},
{
name = ogonek;
pos = (454,0);
},
{
name = top;
pos = (463,847);
},
{
name = topleft;
pos = (20,847);
},
{
name = topright;
pos = (547,784);
}
);
background = {
shapes = (
{
closed = 1;
nodes = (
(542,716,o),
(604,647,o),
(604,450,cs),
(604,255,o),
(521,45,o),
(375,45,cs),
(257,45,o),
(208,175,o),
(208,330,cs),
(208,512,o),
(321,716,o),
(462,716,cs)
);
},
{
closed = 1;
nodes = (
(644,-25,o),
(755,244,o),
(755,479,cs),
(755,700,o),
(643,804,o),
(516,804,cs),
(399,804,o),
(271,716,o),
(213,553,c),
(234,680,o),
(303,761,o),
(369,809,c),
(368,818,o),
(356,828,o),
(345,830,c),
(166,786,o),
(53,600,o),
(53,379,cs),
(53,191,o),
(144,-25,o),
(360,-25,cs)
);
}
);
};
layerId = "BF8042A9-B348-454C-A59B-E2F834F64B4C";
shapes = (
{
closed = 1;
nodes = (
(639,-25,o),
(760,244,o),
(760,476,cs),
(760,702,o),
(655,804,o),
(536,804,cs),
(435,804,o),
(340,731,o),
(284,594,c),
(278,596,l),
(297,677,o),
(351,772,o),
(380,806,c),
(379,818,o),
(364,832,o),
(349,835,c),
(155,805,o),
(48,603,o),
(48,385,cs),
(48,191,o),
(133,-25,o),
(372,-25,cs)
);
},
{
closed = 1;
nodes = (
(284,62,o),
(248,191,o),
(248,308,cs),
(248,521,o),
(366,691,o),
(456,691,cs),
(516,691,o),
(560,624,o),
(560,462,cs),
(560,244,o),
(484,62,o),
(375,62,cs)
);
}
);
width = 807;
},
{
anchors = (
{
name = bottom;
pos = (365,0);
},
{
name = center;
pos = (400,424);
},
{
name = ogonek;
pos = (430,0);
},
{
name = top;
pos = (459,847);
},
{
name = topleft;
pos = (20,847);
},
{
name = topright;
pos = (547,784);
}
);
hints = (
{
place = (79, 143);
place = (79, 143);
type = Stem;
},
{
place = (763, 138);
place = (763, 138);
type = Stem;
},
{
horizontal = 1;
place = (-31, 73);
place = (-31, 73);
type = Stem;
},
{
horizontal = 1;
place = (893, 89);
place = (893, 89);
type = Stem;
},
{
horizontal = 1;
place = (1011, -20);
target = down;
type = TopGhost;
}
);
layerId = "540B6D0C-2188-4C95-B7F2-D6A6068F7705";
shapes = (
{
closed = 1;
nodes = (
(629,-25,o),
(732,244,o),
(732,480,cs),
(732,700,o),
(618,804,o),
(490,804,cs),
(381,804,o),
(251,731,o),
(184,594,c),
(175,596,l),
(209,719,o),
(276,766,o),
(357,812,c),
(356,818,o),
(348,823,o),
(340,825,c),
(186,770,o),
(69,599,o),
(69,378,cs),
(69,191,o),
(156,-25,o),
(356,-25,cs)
);
},
{
closed = 1;
nodes = (
(228,29,o),
(167,165,o),
(167,335,cs),
(167,519,o),
(279,740,o),
(458,740,cs),
(559,740,o),
(638,666,o),
(638,447,cs),
(638,251,o),
(544,29,o),
(371,29,cs)
);
}
);
width = 800.88889;
}
);
unicode = 79;
},
{
glyphname = OE;
kernLeft = C;
lastChange = "2022-09-23 07:47:40 +0000";
layers = (
{
anchors = (
{
name = bottom;
pos = (472,0);
},
{
name = top;
pos = (546,847);
}
);
background = {
shapes = (
{
closed = 1;
nodes = (
(372,35,l),
(238,35,o),
(182,170,o),
(182,330,cs),
(182,519,o),
(295,731,o),
(458,731,c)
);
},
{
closed = 1;
nodes = (
(498,804,l),
(381,804,o),
(243,716,o),
(185,553,c),
(210,697,o),
(282,762,o),
(361,811,c),
(360,818,o),
(351,825,o),
(342,827,c),
(180,776,o),
(65,600,o),
(65,379,cs),
(65,191,o),
(152,-25,o),
(359,-25,c)
);
},
{
closed = 1;
nodes = (
(541,690,o),
(559,681,o),
(615,681,cs),
(696,681,o),
(821,684,o),
(891,696,cs),
(948,705,o),
(994,729,o),
(1004,793,c),
(929,778,o),
(842,771,o),
(756,771,cs),
(687,771,o),
(615,776,o),
(549,785,c),
(545,774,o),
(541,755,o),
(541,732,cs)
);
},
{
closed = 1;
nodes = (
(537,2,o),
(588,5,o),
(635,5,cs),
(729,5,o),
(807,-8,o),
(848,-8,cs),
(912,-8,o),
(959,36,o),
(969,114,c),
(909,97,o),
(778,84,o),
(647,84,cs),
(520,84,o),
(492,16,o),
(485,-8,c)
);
},
{
closed = 1;
nodes = (
(845,421,o),
(798,416,o),
(751,416,cs),
(720,416,o),
(657,419,o),
(625,419,cs),
(557,419,o),
(501,408,o),
(501,338,cs),
(501,328,o),
(502,318,o),
(503,309,c),
(578,340,o),
(661,341,o),
(726,341,cs),
(753,341,o),
(782,340,o),
(815,340,cs),
(853,340,o),
(878,360,o),
(878,419,cs),
(878,428,o),
(877,437,o),
(876,445,c)
);
},
{
closed = 1;
nodes = (
(635,70,l),
(635,74,o),
(635,79,o),
(635,83,cs),
(635,331,o),
(692,573,o),
(692,683,cs),
(692,695,o),
(691,706,o),
(689,717,c),
(589,712,l),
(588,489,o),
(522,189,o),
(522,69,cs),
(522,59,o),
(523,49,o),
(525,41,c)
);
}
);
};
layerId = UUID0;
shapes = (
{
closed = 1;
nodes = (
(488,-25,o),
(533,0,o),
(681,0,cs),
(730,0,o),
(784,-11,o),
(830,-11,cs),
(918,-11,o),
(960,27,o),
(969,114,c),
(904,96,o),
(766,83,o),
(635,83,c),
(636,157,o),
(642,243,o),
(652,341,c),
(671,342,o),
(762,339,o),
(801,339,cs),
(855,339,o),
(878,361,o),
(878,412,cs),
(878,425,o),
(877,433,o),
(876,445,c),
(846,426,o),
(806,417,o),
(745,417,cs),
(729,417,o),
(705,418,o),
(661,419,c),
(674,523,o),
(688,620,o),
(692,683,c),
(722,678,o),
(749,676,o),
(775,676,cs),
(912,676,o),
(997,720,o),
(1004,794,c),
(942,781,o),
(876,775,o),
(807,775,cs),
(674,775,o),
(569,799,o),
(502,799,cs),
(375,799,o),
(263,722,o),
(202,594,c),
(195,597,l),
(222,692,o),
(275,760,o),
(361,810,c),
(360,819,o),
(353,825,o),
(342,827,c),
(174,774,o),
(65,598,o),
(65,379,cs),
(65,143,o),
(187,-25,o),
(357,-25,cs)
);
},
{
closed = 1;
nodes = (
(257,35,o),
(182,146,o),
(182,330,cs),
(182,541,o),
(319,731,o),
(472,731,cs),
(520,731,o),
(557,723,o),
(590,705,c),
(581,521,o),
(533,210,o),
(522,83,c),
(496,56,o),
(434,35,o),
(381,35,cs)
);
}
);
width = 1014;
},
{
anchors = (
{
name = bottom;
pos = (481,0);
},
{
name = top;
pos = (555,847);
}
);
background = {
shapes = (
{
closed = 1;
nodes = (
(372,45,l),
(254,45,o),
(205,175,o),
(205,330,cs),
(205,512,o),
(318,716,o),
(459,716,c)
);
},
{
closed = 1;
nodes = (
(513,804,l),
(396,804,o),
(268,716,o),
(210,553,c),
(231,680,o),
(300,761,o),
(366,809,c),
(365,818,o),
(353,828,o),
(342,830,c),
(163,786,o),
(50,600,o),
(50,379,cs),
(50,191,o),
(141,-25,o),
(357,-25,c)
);
},
{
closed = 1;
nodes = (
(514,669,o),
(522,655,o),
(592,655,cs),
(683,655,o),
(825,658,o),
(903,673,cs),
(968,685,o),
(1020,717,o),
(1031,799,c),
(947,783,o),
(851,775,o),
(754,775,cs),
(676,775,o),
(597,780,o),
(522,790,c),
(518,778,o),
(514,757,o),
(514,731,cs)
);
},
{
closed = 1;
nodes = (
(515,1,o),
(572,5,o),
(624,5,cs),
(729,5,o),
(816,-12,o),
(862,-12,cs),
(933,-12,o),
(985,44,o),
(997,144,c),
(930,122,o),
(784,106,o),
(638,106,cs),
(496,106,o),
(465,19,o),
(457,-12,c)
);
},
{
closed = 1;
nodes = (
(857,428,o),
(806,422,o),
(755,422,cs),
(721,422,o),
(653,425,o),
(619,425,cs),
(545,425,o),
(485,412,o),
(485,332,cs),
(485,321,o),
(486,310,o),
(487,299,c),
(568,335,o),
(658,335,o),
(728,335,cs),
(757,335,o),
(788,334,o),
(824,334,cs),
(865,334,o),
(892,357,o),
(892,425,cs),
(892,435,o),
(891,445,o),
(890,455,c)
);
},
{
closed = 1;
nodes = (
(649,70,l),
(649,74,o),
(649,79,o),
(649,83,cs),
(649,331,o),
(706,573,o),
(706,683,cs),
(706,695,o),
(705,706,o),
(703,717,c),
(573,712,l),
(572,489,o),
(506,189,o),
(506,69,cs),
(506,59,o),
(507,49,o),
(509,41,c)
);
}
);
};
layerId = UUID1;
shapes = (
{
closed = 1;
nodes = (
(488,-25,o),
(533,0,o),
(681,0,cs),
(735,0,o),
(794,-11,o),
(845,-11,cs),
(943,-11,o),
(988,35,o),
(998,144,c),
(930,122,o),
(786,106,o),
(649,106,c),
(650,173,o),
(655,247,o),
(665,335,c),
(694,335,o),
(790,334,o),
(828,334,cs),
(874,334,o),
(896,364,o),
(896,425,cs),
(896,437,o),
(896,444,o),
(894,455,c),
(867,433,o),
(823,422,o),
(759,422,cs),
(739,422,o),
(706,422,o),
(676,423,c),
(688,518,o),
(701,596,o),
(705,653,c),
(736,648,o),
(765,646,o),
(792,646,cs),
(936,646,o),
(1025,703,o),
(1032,799,c),
(968,786,o),
(900,780,o),
(828,780,cs),
(691,780,o),
(582,804,o),
(513,804,cs),
(398,804,o),
(287,723,o),
(227,595,c),
(220,598,l),
(244,684,o),
(296,759,o),
(366,809,c),
(365,818,o),
(353,828,o),
(342,830,c),
(167,787,o),
(50,606,o),
(50,379,cs),
(50,143,o),
(178,-25,o),
(357,-25,cs)
);
},
{
closed = 1;
nodes = (
(268,45,o),
(205,152,o),
(205,330,cs),
(205,528,o),
(329,716,o),
(459,716,cs),
(505,716,o),
(542,708,o),
(575,691,c),
(566,514,o),
(518,214,o),
(507,91,c),
(482,65,o),
(423,45,o),
(372,45,cs)
);
}
);
width = 1032;
},
{
anchors = (
{
name = bottom;
pos = (512,0);
},
{
name = top;
pos = (586,847);
}
);
background = {
shapes = (
{
closed = 0;
nodes = (
(375,62,l),
(284,62,o),
(248,191,o),
(248,308,cs),
(248,521,o),
(366,691,o),
(456,691,c)
);
},
{
closed = 1;
nodes = (
(532,-1,o),
(595,4,o),
(649,4,cs),
(764,4,o),
(859,-19,o),
(910,-19,cs),
(985,-19,o),
(1043,52,o),
(1058,191,c),
(984,161,o),
(826,140,o),
(665,140,cs),
(509,140,o),
(475,23,o),
(466,-19,c)
);
},
{
closed = 0;
nodes = (
(599,614,l),
(757,614,o),
(879,622,o),
(943,636,cs),
(1032,655,o),
(1078,712,o),
(1088,809,c),
(990,791,o),
(887,781,o),
(784,781,cs),
(692,781,o),
(597,804,o),
(516,804,cs),
(423,804,o),
(336,731,o),
(284,594,c),
(278,596,l),
(297,677,o),
(351,772,o),
(380,806,c),
(379,818,o),
(364,832,o),
(349,835,c),
(155,805,o),
(48,603,o),
(48,385,cs),
(48,191,o),
(133,-25,o),
(372,-25,c)
);
},
{
closed = 1;
nodes = (
(894,439,o),
(837,433,o),
(780,433,cs),
(770,433,o),
(760,433,o),
(749,434,c),
(763,539,o),
(776,634,o),
(776,683,cs),
(776,697,o),
(776,709,o),
(774,721,c),
(585,719,l),
(585,528,o),
(530,232,o),
(530,128,cs),
(530,88,o),
(536,56,o),
(564,29,c),
(714,52,l),
(714,77,ls),
(714,140,o),
(723,230,o),
(735,322,c),
(763,322,ls),
(790,322,o),
(820,321,o),
(853,321,cs),
(904,321,o),
(938,340,o),
(938,416,cs),
(938,432,o),
(935,450,o),
(930,466,c)
);
}
);
};
layerId = "BF8042A9-B348-454C-A59B-E2F834F64B4C";
shapes = (
{
closed = 1;
nodes = (
(472,-25,o),
(567,4,o),
(649,4,cs),
(764,4,o),
(859,-19,o),
(910,-19,cs),
(989,-19,o),
(1044,59,o),
(1058,191,c),
(994,164,o),
(862,145,o),
(716,141,c),
(719,198,o),
(726,261,o),
(735,322,c),
(790,322,o),
(824,321,o),
(853,321,cs),
(913,321,o),
(938,349,o),
(938,416,cs),
(938,432,o),
(935,450,o),
(930,466,c),
(900,444,o),
(851,433,o),
(780,433,cs),
(761,433,o),
(756,433,o),
(749,434,c),
(761,523,o),
(769,582,o),
(773,625,c),
(790,623,o),
(808,622,o),
(828,622,cs),
(992,622,o),
(1075,682,o),
(1088,809,c),
(990,790,o),
(887,781,o),
(784,781,cs),
(692,781,o),
(597,804,o),
(516,804,cs),
(420,804,o),
(334,726,o),
(284,594,c),
(278,596,l),
(293,660,o),
(341,760,o),
(380,806,c),
(379,818,o),
(364,832,o),
(349,835,c),
(171,807,o),
(48,624,o),
(48,385,cs),
(48,137,o),
(176,-25,o),
(372,-25,cs)
);
},
{
closed = 1;
nodes = (
(301,62,o),
(248,151,o),
(248,308,cs),
(248,522,o),
(353,691,o),
(486,691,cs),
(520,691,o),
(550,687,o),
(584,677,c),
(577,491,o),
(533,228,o),
(530,114,c),
(494,79,o),
(449,62,o),
(395,62,cs)
);
}
);
width = 1093;
},
{
anchors = (
{
name = bottom;
pos = (463,0);
},
{
name = top;
pos = (537,847);
}
);
layerId = "540B6D0C-2188-4C95-B7F2-D6A6068F7705";
shapes = (
{
closed = 1;
nodes = (
(492,-25,o),
(525,-1,o),
(688,-1,cs),
(722,-1,o),
(767,-9,o),
(812,-9,cs),
(902,-9,o),
(941,20,o),
(949,97,c),
(884,81,o),
(745,69,o),
(617,70,c),
(618,148,o),
(623,239,o),
(634,345,c),
(645,346,o),
(748,343,o),
(789,343,cs),
(842,343,o),
(865,364,o),
(865,411,cs),
(865,423,o),
(864,429,o),
(864,440,c),
(834,422,o),
(796,413,o),
(737,413,cs),
(722,413,o),
(694,415,o),
(641,416,c),
(655,523,o),
(670,628,o),
(674,696,c),
(707,690,o),
(736,688,o),
(763,688,cs),
(894,688,o),
(980,728,o),
(985,791,c),
(931,779,o),
(874,774,o),
(812,774,cs),
(670,774,o),
(563,798,o),
(499,798,cs),
(365,798,o),
(247,721,o),
(184,594,c),
(177,597,l),
(206,699,o),
(260,760,o),
(357,811,c),
(356,819,o),
(351,823,o),
(340,825,c),
(175,767,o),
(69,592,o),
(69,378,cs),
(69,144,o),
(189,-25,o),
(354,-25,cs)
);
},
{
closed = 1;
nodes = (
(247,29,o),
(167,145,o),
(167,335,cs),
(167,545,o),
(311,740,o),
(469,740,cs),
(520,740,o),
(559,731,o),
(591,711,c),
(582,528,o),
(533,206,o),
(520,76,c),
(496,51,o),
(431,29,o),
(378,29,cs)
);
}
);
width = 996.44444;
}
);
metricLeft = O;
metricRight = E;
unicode = 338;
},
{
glyphname = P;
lastChange = "2022-09-23 07:47:40 +0000";
layers = (
{
background = {
shapes = (
{
closed = 1;
nodes = (
(274,683,l),
(310,698,o),
(343,705,o),
(371,705,cs),
(465,705,o),
(509,642,o),
(509,570,cs),
(509,472,o),
(455,357,o),
(275,357,c),
(278,315,l),
(298,312,o),
(316,311,o),
(335,311,cs),
(531,311,o),
(636,458,o),
(636,589,cs),
(636,694,o),
(569,788,o),
(430,788,cs),
(379,788,o),
(315,775,o),
(258,741,c)
);
},
{
closed = 1;
nodes = (
(80,7,o),
(111,-17,o),
(187,-17,cs),
(199,-17,o),
(213,-16,o),
(229,-15,c),
(223,20,o),
(223,52,o),
(223,83,cs),
(223,331,o),
(280,573,o),
(280,683,cs),
(280,768,o),
(226,819,o),
(133,826,c),
(142,806,o),
(147,767,o),
(147,716,cs),
(147,493,o),
(80,190,o),
(80,69,cs)
);
}
);
};
hints = (
{
place = (97, 109);
place = (97, 109);
type = Stem;
},
{
place = (164, 42);
place = (164, 42);
type = Stem;
},
{
place = (519, 102);
place = (519, 102);
type = Stem;
},
{
place = (164, 99);
place = (164, 99);
type = Stem;
},
{
horizontal = 1;
place = (715, 73);
place = (715, 73);
type = Stem;
},
{
horizontal = 1;
place = (311, 36);
place = (311, 36);
type = Stem;
},
{
horizontal = 1;
place = (-17, 21);
target = up;
type = BottomGhost;
},
{
horizontal = 1;
place = (826, -20);
target = down;
type = TopGhost;
}
);
layerId = UUID0;
shapes = (
{
closed = 1;
nodes = (
(257,693,l),
(297,708,o),
(334,715,o),
(365,715,cs),
(470,715,o),
(519,648,o),
(519,570,cs),
(519,467,o),
(463,347,o),
(275,347,c),
(278,315,l),
(297,312,o),
(314,311,o),
(333,311,cs),
(520,311,o),
(621,458,o),
(621,589,cs),
(621,694,o),
(554,788,o),
(414,788,cs),
(363,788,o),
(298,775,o),
(241,741,c)
);
},
{
closed = 1;
nodes = (
(97,7,o),
(128,-17,o),
(186,-17,cs),
(193,-17,o),
(200,-16,o),
(212,-15,c),
(206,20,o),
(206,52,o),
(206,83,cs),
(206,331,o),
(263,573,o),
(263,683,cs),
(263,768,o),
(209,819,o),
(150,826,c),
(159,806,o),
(164,767,o),
(164,716,cs),
(164,493,o),
(97,190,o),
(97,69,cs)
);
}
);
width = 621;
},
{
background = {
shapes = (
{
closed = 1;
nodes = (
(257,693,l),
(298,708,o),
(336,715,o),
(368,715,cs),
(476,715,o),
(526,648,o),
(526,570,cs),
(526,467,o),
(468,347,o),
(275,347,c),
(278,315,l),
(297,312,o),
(314,311,o),
(332,311,cs),
(519,311,o),
(619,458,o),
(619,589,cs),
(619,694,o),
(552,788,o),
(413,788,cs),
(362,788,o),
(298,775,o),
(241,741,c)
);
},
{
closed = 1;
nodes = (
(97,7,o),
(128,-17,o),
(186,-17,cs),
(193,-17,o),
(200,-16,o),
(212,-15,c),
(206,20,o),
(206,52,o),
(206,83,cs),
(206,331,o),
(263,573,o),
(263,683,cs),
(263,768,o),
(209,819,o),
(150,826,c),
(159,806,o),
(164,767,o),
(164,716,cs),
(164,493,o),
(97,190,o),
(97,69,cs)
);
}
);
};
layerId = UUID1;
shapes = (
{
closed = 1;
nodes = (
(274,683,l),
(310,698,o),
(343,705,o),
(371,705,cs),
(465,705,o),
(509,642,o),
(509,570,cs),
(509,472,o),
(455,357,o),
(275,357,c),
(278,315,l),
(298,312,o),
(316,311,o),
(335,311,cs),
(531,311,o),
(636,458,o),
(636,589,cs),
(636,694,o),
(569,788,o),
(430,788,cs),
(379,788,o),
(315,775,o),
(258,741,c)
);
},
{
closed = 1;
nodes = (
(80,7,o),
(111,-17,o),
(187,-17,cs),
(199,-17,o),
(213,-16,o),
(229,-15,c),
(223,20,o),
(223,52,o),
(223,83,cs),
(223,331,o),
(280,573,o),
(280,683,cs),
(280,768,o),
(226,819,o),
(133,826,c),
(142,806,o),
(147,767,o),
(147,716,cs),
(147,493,o),
(80,190,o),
(80,69,cs)
);
}
);
width = 621;
},
{
background = {
shapes = (
{
closed = 1;
nodes = (
(272,693,l),
(313,708,o),
(351,715,o),
(383,715,cs),
(491,715,o),
(541,648,o),
(541,570,cs),
(541,467,o),
(483,347,o),
(290,347,c),
(293,315,l),
(312,312,o),
(329,311,o),
(347,311,cs),
(534,311,o),
(634,458,o),
(634,589,cs),
(634,694,o),
(567,788,o),
(428,788,cs),
(377,788,o),
(313,775,o),
(256,741,c)
);
},
{
closed = 1;
nodes = (
(112,7,o),
(143,-17,o),
(201,-17,cs),
(208,-17,o),
(215,-16,o),
(227,-15,c),
(221,20,o),
(221,52,o),
(221,83,cs),
(221,331,o),
(278,573,o),
(278,683,cs),
(278,768,o),
(224,819,o),
(165,826,c),
(174,806,o),
(179,767,o),
(179,716,cs),
(179,493,o),
(112,190,o),
(112,69,cs)
);
}
);
};
layerId = "BF8042A9-B348-454C-A59B-E2F834F64B4C";
shapes = (
{
closed = 1;
nodes = (
(287,667,l),
(320,681,o),
(357,689,o),
(388,689,cs),
(454,689,o),
(497,634,o),
(497,550,cs),
(497,426,o),
(414,343,o),
(290,343,c),
(293,285,l),
(307,282,o),
(325,281,o),
(353,281,cs),
(540,281,o),
(685,409,o),
(685,575,cs),
(685,702,o),
(599,788,o),
(473,788,cs),
(404,788,o),
(330,771,o),
(271,741,c)
);
},
{
closed = 1;
nodes = (
(67,5,o),
(99,-17,o),
(201,-17,cs),
(218,-17,o),
(240,-16,o),
(272,-13,c),
(268,8,o),
(266,37,o),
(266,72,cs),
(266,339,o),
(323,576,o),
(323,676,cs),
(323,775,o),
(264,818,o),
(120,826,c),
(130,806,o),
(134,773,o),
(134,713,cs),
(134,501,o),
(67,181,o),
(67,76,cs)
);
}
);
width = 690;
},
{
hints = (
{
place = (119, 133);
place = (119, 133);
type = Stem;
},
{
place = (200, 51);
place = (200, 51);
type = Stem;
},
{
place = (634, 125);
place = (634, 125);
type = Stem;
},
{
place = (200, 121);
place = (200, 121);
type = Stem;
},
{
horizontal = 1;
place = (874, 89);
place = (874, 89);
type = Stem;
},
{
horizontal = 1;
place = (380, 44);
place = (380, 44);
type = Stem;
},
{
horizontal = 1;
place = (-21, 21);
target = up;
type = BottomGhost;
},
{
horizontal = 1;
place = (1010, -20);
target = down;
type = TopGhost;
}
);
layerId = "540B6D0C-2188-4C95-B7F2-D6A6068F7705";
shapes = (
{
closed = 1;
nodes = (
(250,699,l),
(292,714,o),
(329,721,o),
(360,721,cs),
(474,721,o),
(524,651,o),
(524,574,cs),
(524,476,o),
(474,348,o),
(272,348,c),
(275,322,l),
(295,319,o),
(312,318,o),
(329,318,cs),
(516,318,o),
(607,469,o),
(607,592,cs),
(607,692,o),
(544,788,o),
(401,788,cs),
(354,788,o),
(291,776,o),
(234,741,c)
);
},
{
closed = 1;
nodes = (
(104,7,o),
(134,-17,o),
(183,-17,cs),
(187,-17,o),
(191,-16,o),
(199,-15,c),
(192,23,o),
(193,55,o),
(193,85,cs),
(193,329,o),
(250,572,o),
(250,685,cs),
(250,766,o),
(197,819,o),
(157,826,c),
(165,806,o),
(171,766,o),
(171,717,cs),
(171,491,o),
(104,192,o),
(104,67,cs)
);
}
);
width = 605.66667;
}
);
unicode = 80;
},
{
glyphname = Thorn;
lastChange = "2022-09-23 07:47:40 +0000";
layers = (
{
background = {
shapes = (
{
closed = 1;
nodes = (
(80,7,o),
(111,-17,o),
(187,-17,cs),
(199,-17,o),
(213,-16,o),
(229,-15,c),
(223,20,o),
(223,52,o),
(223,83,cs),
(223,250,o),
(249,415,o),
(266,538,c),
(301,553,o),
(334,560,o),
(362,560,cs),
(456,559,o),
(500,497,o),
(500,425,cs),
(500,322,o),
(416,212,o),
(266,212,c),
(269,170,l),
(289,167,o),
(307,166,o),
(326,166,cs),
(522,166,o),
(627,313,o),
(627,444,cs),
(627,549,o),
(560,643,o),
(421,643,cs),
(377,643,o),
(325,633,o),
(275,610,c),
(278,638,o),
(280,663,o),
(280,683,cs),
(280,768,o),
(226,819,o),
(133,826,c),
(142,806,o),
(147,767,o),
(147,716,cs),
(147,493,o),
(80,190,o),
(80,69,cs)
);
}
);
};
hints = (
{
place = (97, 109);
place = (97, 109);
type = Stem;
},
{
place = (164, 42);
place = (164, 42);
type = Stem;
},
{
place = (510, 102);
place = (510, 102);
type = Stem;
},
{
place = (164, 99);
place = (164, 99);
type = Stem;
},
{
horizontal = 1;
place = (570, 73);
place = (570, 73);
type = Stem;
},
{
horizontal = 1;
place = (166, 36);
place = (166, 36);
type = Stem;
},
{
horizontal = 1;
place = (-17, 21);
target = up;
type = BottomGhost;
},
{
horizontal = 1;
place = (826, -20);
target = down;
type = TopGhost;
}
);
layerId = UUID0;
shapes = (
{
closed = 1;
nodes = (
(248,548,l),
(288,563,o),
(325,570,o),
(356,570,cs),
(461,570,o),
(510,503,o),
(510,425,cs),
(510,322,o),
(454,202,o),
(266,202,c),
(269,170,l),
(288,167,o),
(305,166,o),
(324,166,cs),
(511,166,o),
(612,313,o),
(612,444,cs),
(612,549,o),
(545,643,o),
(405,643,cs),
(354,643,o),
(289,630,o),
(232,596,c)
);
},
{
closed = 1;
nodes = (
(97,7,o),
(128,-17,o),
(186,-17,cs),
(193,-17,o),
(200,-16,o),
(212,-15,c),
(206,20,o),
(206,52,o),
(206,83,cs),
(206,331,o),
(263,573,o),
(263,683,cs),
(263,768,o),
(209,819,o),
(150,826,c),
(159,806,o),
(164,767,o),
(164,716,cs),
(164,493,o),
(97,190,o),
(97,69,cs)
);
}
);
width = 621;
},
{
background = {
shapes = (
{
closed = 1;
nodes = (
(80,7,o),
(111,-17,o),
(187,-17,cs),
(199,-17,o),
(213,-16,o),
(229,-15,c),
(223,20,o),
(223,52,o),
(223,83,cs),
(223,250,o),
(249,415,o),
(266,538,c),
(301,553,o),
(334,560,o),
(362,560,cs),
(456,559,o),
(500,497,o),
(500,425,cs),
(500,322,o),
(416,212,o),
(266,212,c),
(269,170,l),
(289,167,o),
(307,166,o),
(326,166,cs),
(522,166,o),
(627,313,o),
(627,444,cs),
(627,549,o),
(560,643,o),
(421,643,cs),
(377,643,o),
(325,633,o),
(275,610,c),
(278,638,o),
(280,663,o),
(280,683,cs),
(280,768,o),
(226,819,o),
(133,826,c),
(142,806,o),
(147,767,o),
(147,716,cs),
(147,493,o),
(80,190,o),
(80,69,cs)
);
}
);
};
layerId = UUID1;
shapes = (
{
closed = 1;
nodes = (
(265,538,l),
(301,553,o),
(334,560,o),
(362,560,cs),
(456,560,o),
(500,497,o),
(500,425,cs),
(500,327,o),
(446,212,o),
(266,212,c),
(269,170,l),
(289,167,o),
(307,166,o),
(326,166,cs),
(522,166,o),
(627,313,o),
(627,444,cs),
(627,549,o),
(560,643,o),
(421,643,cs),
(370,643,o),
(306,630,o),
(249,596,c)
);
},
{
closed = 1;
nodes = (
(80,7,o),
(111,-17,o),
(187,-17,cs),
(199,-17,o),
(213,-16,o),
(229,-15,c),
(223,20,o),
(223,52,o),
(223,83,cs),
(223,331,o),
(280,573,o),
(280,683,cs),
(280,768,o),
(226,819,o),
(133,826,c),
(142,806,o),
(147,767,o),
(147,716,cs),
(147,493,o),
(80,190,o),
(80,69,cs)
);
}
);
width = 621;
},
{
background = {
shapes = (
{
closed = 1;
nodes = (
(80,7,o),
(111,-17,o),
(187,-17,cs),
(199,-17,o),
(213,-16,o),
(229,-15,c),
(223,20,o),
(223,52,o),
(223,83,cs),
(223,250,o),
(249,415,o),
(266,538,c),
(301,553,o),
(334,560,o),
(362,560,cs),
(456,559,o),
(500,497,o),
(500,425,cs),
(500,322,o),
(416,212,o),
(266,212,c),
(269,170,l),
(289,167,o),
(307,166,o),
(326,166,cs),
(522,166,o),
(627,313,o),
(627,444,cs),
(627,549,o),
(560,643,o),
(421,643,cs),
(377,643,o),
(325,633,o),
(275,610,c),
(278,638,o),
(280,663,o),
(280,683,cs),
(280,768,o),
(226,819,o),
(133,826,c),
(142,806,o),
(147,767,o),
(147,716,cs),
(147,493,o),
(80,190,o),
(80,69,cs)
);
}
);
};
layerId = "BF8042A9-B348-454C-A59B-E2F834F64B4C";
shapes = (
{
closed = 1;
nodes = (
(287,557,l),
(320,571,o),
(357,579,o),
(388,579,cs),
(454,579,o),
(497,524,o),
(497,440,cs),
(497,316,o),
(414,233,o),
(290,233,c),
(293,175,l),
(307,172,o),
(325,171,o),
(353,171,cs),
(540,171,o),
(685,299,o),
(685,465,cs),
(685,592,o),
(599,678,o),
(473,678,cs),
(404,678,o),
(330,661,o),
(271,631,c)
);
},
{
closed = 1;
nodes = (
(67,5,o),
(99,-17,o),
(201,-17,cs),
(218,-17,o),
(240,-16,o),
(272,-13,c),
(268,8,o),
(266,37,o),
(266,72,cs),
(266,339,o),
(323,576,o),
(323,676,cs),
(323,775,o),
(264,818,o),
(120,826,c),
(130,806,o),
(134,773,o),
(134,713,cs),
(134,501,o),
(67,181,o),
(67,76,cs)
);
}
);
width = 692;
},
{
hints = (
{
place = (119, 133);
place = (119, 133);
type = Stem;
},
{
place = (200, 51);
place = (200, 51);
type = Stem;
},
{
place = (623, 125);
place = (623, 125);
type = Stem;
},
{
place = (200, 121);
place = (200, 121);
type = Stem;
},
{
horizontal = 1;
place = (697, 89);
place = (697, 89);
type = Stem;
},
{
horizontal = 1;
place = (203, 44);
place = (203, 44);
type = Stem;
},
{
horizontal = 1;
place = (-21, 21);
target = up;
type = BottomGhost;
},
{
horizontal = 1;
place = (1010, -20);
target = down;
type = TopGhost;
}
);
layerId = "540B6D0C-2188-4C95-B7F2-D6A6068F7705";
shapes = (
{
closed = 1;
nodes = (
(239,546,l),
(281,561,o),
(318,568,o),
(349,568,cs),
(463,568,o),
(513,498,o),
(513,422,cs),
(513,323,o),
(463,195,o),
(261,195,c),
(264,169,l),
(284,166,o),
(301,165,o),
(318,165,cs),
(505,165,o),
(596,316,o),
(596,439,cs),
(596,539,o),
(533,635,o),
(390,635,cs),
(343,635,o),
(280,623,o),
(223,588,c)
);
},
{
closed = 1;
nodes = (
(104,7,o),
(134,-17,o),
(183,-17,cs),
(187,-17,o),
(191,-16,o),
(199,-15,c),
(192,23,o),
(193,55,o),
(193,85,cs),
(193,329,o),
(250,572,o),
(250,685,cs),
(250,766,o),
(197,819,o),
(157,826,c),
(165,806,o),
(171,766,o),
(171,717,cs),
(171,491,o),
(104,192,o),
(104,67,cs)
);
}
);
width = 605.22222;
}
);
metricLeft = P;
unicode = 222;
},
{
glyphname = Q;
kernLeft = C;
kernRight = D;
lastChange = "2022-09-23 07:47:40 +0000";
layers = (
{
background = {
shapes = (
{
closed = 1;
nodes = (
(382,-197,o),
(580,-312,o),
(651,-312,cs),
(705,-312,o),
(756,-272,o),
(789,-195,c),
(703,-195,o),
(425,-109,o),
(260,-57,cs),
(232,-48,o),
(208,-46,o),
(186,-46,cs),
(103,-46,o),
(66,-97,o),
(53,-119,c),
(117,-121,o),
(187,-138,o),
(247,-156,cs)
);
},
{
closed = 1;
nodes = (
(177,-96,l),
(631,-55,o),
(752,243,o),
(752,475,cs),
(752,696,o),
(627,800,o),
(491,800,cs),
(187,800,o),
(67,535,o),
(67,346,cs),
(67,159,o),
(184,69,o),
(295,69,cs),
(394,69,o),
(503,141,o),
(503,279,cs),
(503,373,o),
(427,404,o),
(377,404,cs),
(340,404,o),
(309,392,o),
(309,392,c),
(309,392,o),
(359,356,o),
(359,277,cs),
(359,198,o),
(326,163,o),
(285,163,cs),
(234,163,o),
(208,223,o),
(208,341,cs),
(208,520,o),
(310,717,o),
(442,717,cs),
(557,717,o),
(604,588,o),
(604,437,cs),
(604,257,o),
(515,-7,o),
(187,-46,c)
);
}
);
};
guides = (
{
angle = 186.3046;
pos = (540,-7);
}
);
hints = (
{
place = (82, 100);
place = (82, 100);
type = Stem;
},
{
place = (379, 109);
place = (379, 109);
type = Stem;
},
{
place = (634, 103);
place = (634, 103);
type = Stem;
},
{
horizontal = 1;
place = (-312, 102);
place = (-312, 102);
type = Stem;
},
{
horizontal = 1;
place = (-104, 58);
place = (-104, 58);
type = Stem;
},
{
horizontal = 1;
place = (79, 64);
place = (79, 64);
type = Stem;
},
{
horizontal = 1;
place = (732, 68);
place = (732, 68);
type = Stem;
}
);
layerId = UUID0;
shapes = (
{
closed = 1;
nodes = (
(177,-96,l),
(523,-57,o),
(737,157,o),
(737,462,cs),
(737,675,o),
(634,800,o),
(458,800,cs),
(249,800,o),
(82,599,o),
(82,347,cs),
(82,187,o),
(168,79,o),
(296,79,cs),
(405,79,o),
(488,163,o),
(488,271,cs),
(488,342,o),
(446,389,o),
(384,389,cs),
(367,389,o),
(345,384,o),
(329,377,c),
(358,357,o),
(379,306,o),
(379,254,cs),
(379,184,o),
(346,143,o),
(290,143,cs),
(219,143,o),
(182,207,o),
(182,332,cs),
(182,554,o),
(299,732,o),
(446,732,cs),
(561,732,o),
(634,621,o),
(634,447,cs),
(634,175,o),
(462,-14,o),
(187,-46,c)
);
},
{
closed = 1;
nodes = (
(700,-312,o),
(748,-271,o),
(774,-210,c),
(597,-201,o),
(430,-125,o),
(270,-67,c),
(187,-46,l),
(133,-52,o),
(99,-70,o),
(78,-104,c),
(129,-106,o),
(182,-118,o),
(257,-144,cs),
(424,-204,o),
(579,-312,o),
(654,-312,cs)
);
}
);
width = 787;
},
{
background = {
shapes = (
{
closed = 1;
nodes = (
(382,-197,o),
(580,-312,o),
(651,-312,cs),
(705,-312,o),
(756,-272,o),
(789,-195,c),
(703,-195,o),
(425,-109,o),
(260,-57,cs),
(232,-48,o),
(208,-46,o),
(186,-46,cs),
(103,-46,o),
(66,-97,o),
(53,-119,c),
(117,-121,o),
(187,-138,o),
(247,-156,cs)
);
},
{
closed = 1;
nodes = (
(177,-96,l),
(631,-55,o),
(752,243,o),
(752,475,cs),
(752,696,o),
(627,800,o),
(491,800,cs),
(187,800,o),
(67,535,o),
(67,346,cs),
(67,159,o),
(184,69,o),
(295,69,cs),
(394,69,o),
(503,141,o),
(503,279,cs),
(503,373,o),
(427,404,o),
(377,404,cs),
(340,404,o),
(309,392,o),
(309,392,c),
(309,392,o),
(359,356,o),
(359,277,cs),
(359,198,o),
(326,163,o),
(285,163,cs),
(234,163,o),
(208,223,o),
(208,341,cs),
(208,520,o),
(310,717,o),
(442,717,cs),
(557,717,o),
(604,588,o),
(604,437,cs),
(604,257,o),
(515,-7,o),
(187,-46,c)
);
}
);
};
guides = (
{
angle = 6.8164;
pos = (187,-35);
}
);
layerId = UUID1;
shapes = (
{
closed = 1;
nodes = (
(177,-85,l),
(525,-57,o),
(752,161,o),
(752,465,cs),
(752,677,o),
(644,800,o),
(460,800,cs),
(239,800,o),
(67,606,o),
(67,356,cs),
(67,192,o),
(155,85,o),
(289,85,cs),
(406,85,o),
(497,172,o),
(497,286,cs),
(497,364,o),
(448,416,o),
(375,416,cs),
(356,416,o),
(329,411,o),
(309,404,c),
(338,385,o),
(359,335,o),
(359,284,cs),
(359,217,o),
(330,175,o),
(284,175,cs),
(231,175,o),
(202,234,o),
(202,343,cs),
(202,550,o),
(308,717,o),
(440,717,cs),
(543,717,o),
(604,613,o),
(604,438,cs),
(604,170,o),
(451,-3,o),
(187,-35,c)
);
},
{
closed = 1;
nodes = (
(707,-301,o),
(759,-255,o),
(789,-184,c),
(729,-184,o),
(549,-137,o),
(260,-46,c),
(187,-35,l),
(117,-43,o),
(75,-66,o),
(53,-108,c),
(100,-109,o),
(173,-123,o),
(247,-145,cs),
(397,-192,o),
(576,-301,o),
(655,-301,cs)
);
}
);
width = 787;
},
{
background = {
shapes = (
{
closed = 1;
nodes = (
(336,-197,o),
(534,-312,o),
(605,-312,cs),
(659,-312,o),
(710,-272,o),
(743,-195,c),
(657,-195,o),
(379,-109,o),
(214,-57,cs),
(186,-48,o),
(162,-46,o),
(140,-46,cs),
(57,-46,o),
(20,-97,o),
(7,-119,c),
(71,-121,o),
(141,-138,o),
(201,-156,cs)
);
},
{
closed = 1;
nodes = (
(131,-96,l),
(585,-55,o),
(706,243,o),
(706,475,cs),
(706,696,o),
(581,800,o),
(445,800,cs),
(141,800,o),
(21,535,o),
(21,346,cs),
(21,159,o),
(138,69,o),
(249,69,cs),
(348,69,o),
(457,141,o),
(457,279,cs),
(457,373,o),
(381,404,o),
(331,404,cs),
(294,404,o),
(263,392,o),
(263,392,c),
(263,392,o),
(313,356,o),
(313,277,cs),
(313,198,o),
(280,163,o),
(239,163,cs),
(188,163,o),
(162,223,o),
(162,341,cs),
(162,520,o),
(264,717,o),
(396,717,cs),
(511,717,o),
(558,588,o),
(558,437,cs),
(558,257,o),
(469,-7,o),
(141,-46,c)
);
}
);
};
guides = (
{
angle = 7.4606;
pos = (173,-6);
}
);
layerId = "BF8042A9-B348-454C-A59B-E2F834F64B4C";
shapes = (
{
closed = 1;
nodes = (
(163,-56,l),
(516,-40,o),
(758,180,o),
(758,485,cs),
(758,687,o),
(644,806,o),
(449,806,cs),
(212,806,o),
(34,625,o),
(34,384,cs),
(34,215,o),
(123,108,o),
(265,108,cs),
(395,108,o),
(494,200,o),
(494,320,cs),
(494,407,o),
(435,465,o),
(347,465,cs),
(326,465,o),
(295,460,o),
(269,453,c),
(298,434,o),
(319,385,o),
(319,335,cs),
(319,277,o),
(295,231,o),
(264,231,cs),
(232,231,o),
(213,284,o),
(213,371,cs),
(213,564,o),
(305,718,o),
(420,718,cs),
(510,718,o),
(558,622,o),
(558,443,cs),
(558,178,o),
(427,26,o),
(173,-6,c)
);
},
{
closed = 1;
nodes = (
(700,-264,o),
(761,-210,o),
(795,-128,c),
(663,-128,o),
(409,-68,o),
(236,-3,c),
(173,-6,l),
(112,-16,o),
(66,-47,o),
(48,-90,c),
(96,-92,o),
(164,-105,o),
(220,-123,cs),
(372,-163,o),
(560,-264,o),
(641,-264,cs)
);
}
);
width = 793;
},
{
hints = (
{
place = (100, 122);
place = (100, 122);
type = Stem;
},
{
place = (463, 133);
place = (463, 133);
type = Stem;
},
{
place = (775, 126);
place = (775, 126);
type = Stem;
},
{
horizontal = 1;
place = (-381, 125);
place = (-381, 125);
type = Stem;
},
{
horizontal = 1;
place = (-127, 71);
place = (-127, 71);
type = Stem;
},
{
horizontal = 1;
place = (97, 78);
place = (97, 78);
type = Stem;
},
{
horizontal = 1;
place = (895, 83);
place = (895, 83);
type = Stem;
}
);
layerId = "540B6D0C-2188-4C95-B7F2-D6A6068F7705";
shapes = (
{
closed = 1;
nodes = (
(180,-105,l),
(525,-61,o),
(732,152,o),
(732,457,cs),
(732,672,o),
(632,799,o),
(460,799,cs),
(257,799,o),
(93,593,o),
(93,339,cs),
(93,181,o),
(178,73,o),
(303,73,cs),
(407,73,o),
(487,155,o),
(487,260,cs),
(487,328,o),
(448,372,o),
(392,372,cs),
(376,372,o),
(356,367,o),
(342,360,c),
(371,340,o),
(392,288,o),
(392,236,cs),
(392,163,o),
(357,123,o),
(296,123,cs),
(216,123,o),
(175,190,o),
(175,323,cs),
(175,552,o),
(298,735,o),
(452,735,cs),
(572,735,o),
(651,621,o),
(651,448,cs),
(651,174,o),
(470,-23,o),
(190,-55,c)
);
},
{
closed = 1;
nodes = (
(700,-323,o),
(745,-285,o),
(769,-228,c),
(582,-217,o),
(435,-138,o),
(278,-81,c),
(190,-55,l),
(138,-60,o),
(106,-75,o),
(85,-107,c),
(136,-109,o),
(186,-121,o),
(265,-149,cs),
(436,-213,o),
(583,-323,o),
(657,-323,cs)
);
}
);
width = 785.66667;
}
);
unicode = 81;
},
{
glyphname = R;
lastChange = "2022-09-23 07:47:40 +0000";
layers = (
{
anchors = (
{
name = bottom;
pos = (334,0);
},
{
name = top;
pos = (398,847);
}
);
background = {
shapes = (
{
closed = 1;
nodes = (
(462,714,o),
(507,657,o),
(507,591,cs),
(507,489,o),
(430,388,o),
(272,382,c),
(275,346,l),
(520,346,o),
(609,478,o),
(609,600,cs),
(609,693,o),
(535,787,o),
(410,787,cs),
(359,787,o),
(294,774,o),
(237,740,c),
(253,692,l),
(294,707,o),
(338,714,o),
(370,714,cs)
);
},
{
closed = 1;
nodes = (
(92,7,o),
(123,-17,o),
(181,-17,cs),
(188,-17,o),
(195,-16,o),
(207,-15,c),
(201,20,o),
(201,52,o),
(201,83,cs),
(201,335,o),
(258,581,o),
(258,693,cs),
(258,768,o),
(218,819,o),
(145,826,c),
(154,806,o),
(159,767,o),
(159,716,cs),
(159,493,o),
(92,190,o),
(92,69,cs)
);
}
);
};
hints = (
{
place = (97, 109);
place = (97, 109);
type = Stem;
},
{
place = (164, 42);
place = (164, 42);
type = Stem;
},
{
place = (519, 102);
place = (519, 102);
type = Stem;
},
{
place = (164, 99);
place = (164, 99);
type = Stem;
},
{
horizontal = 1;
place = (715, 73);
place = (715, 73);
type = Stem;
},
{
horizontal = 1;
place = (311, 36);
place = (311, 36);
type = Stem;
},
{
horizontal = 1;
place = (-48, 21);
target = up;
type = BottomGhost;
},
{
horizontal = 1;
place = (-17, 21);
target = up;
type = BottomGhost;
},
{
horizontal = 1;
place = (826, -20);
target = down;
type = TopGhost;
}
);
layerId = UUID0;
shapes = (
{
closed = 1;
nodes = (
(336,330,l),
(393,157,o),
(478,-48,o),
(605,-48,cs),
(624,-48,o),
(643,-45,o),
(658,-38,c),
(569,39,o),
(488,154,o),
(430,357,c)
);
},
{
closed = 1;
nodes = (
(257,693,l),
(297,708,o),
(334,715,o),
(365,715,cs),
(470,715,o),
(519,648,o),
(519,570,cs),
(519,467,o),
(463,347,o),
(275,347,c),
(278,315,l),
(297,312,o),
(314,311,o),
(333,311,cs),
(520,311,o),
(621,458,o),
(621,589,cs),
(621,694,o),
(554,788,o),
(414,788,cs),
(363,788,o),
(298,775,o),
(241,741,c)
);
},
{
closed = 1;
nodes = (
(97,7,o),
(128,-17,o),
(186,-17,cs),
(193,-17,o),
(200,-16,o),
(212,-15,c),
(206,20,o),
(206,52,o),
(206,83,cs),
(206,331,o),
(263,573,o),
(263,683,cs),
(263,768,o),
(209,819,o),
(150,826,c),
(159,806,o),
(164,767,o),
(164,716,cs),
(164,493,o),
(97,190,o),
(97,69,cs)
);
}
);
width = 675;
},
{
anchors = (
{
name = bottom;
pos = (334,0);
},
{
name = top;
pos = (398,847);
}
);
background = {
shapes = (
{
closed = 1;
nodes = (
(454,704,o),
(495,658,o),
(495,592,cs),
(495,499,o),
(422,398,o),
(272,392,c),
(275,346,l),
(567,346,o),
(624,510,o),
(624,610,cs),
(624,703,o),
(550,787,o),
(426,787,cs),
(375,787,o),
(311,774,o),
(254,740,c),
(270,682,l),
(306,697,o),
(339,704,o),
(372,704,cs)
);
},
{
closed = 1;
nodes = (
(75,7,o),
(106,-17,o),
(182,-17,cs),
(194,-17,o),
(208,-16,o),
(224,-15,c),
(218,20,o),
(218,52,o),
(218,83,cs),
(218,331,o),
(275,573,o),
(275,683,cs),
(275,768,o),
(221,819,o),
(128,826,c),
(137,806,o),
(142,767,o),
(142,716,cs),
(142,493,o),
(75,190,o),
(75,69,cs)
);
}
);
};
layerId = UUID1;
shapes = (
{
closed = 1;
nodes = (
(320,340,l),
(381,163,o),
(459,-48,o),
(606,-48,cs),
(626,-48,o),
(649,-45,o),
(675,-38,c),
(599,33,o),
(500,195,o),
(449,366,c)
);
},
{
closed = 1;
nodes = (
(274,683,l),
(310,698,o),
(343,705,o),
(371,705,cs),
(465,705,o),
(509,642,o),
(509,570,cs),
(509,472,o),
(455,357,o),
(275,357,c),
(278,315,l),
(298,312,o),
(316,311,o),
(335,311,cs),
(531,311,o),
(636,458,o),
(636,589,cs),
(636,694,o),
(569,788,o),
(430,788,cs),
(379,788,o),
(315,775,o),
(258,741,c)
);
},
{
closed = 1;
nodes = (
(80,7,o),
(111,-17,o),
(187,-17,cs),
(199,-17,o),
(213,-16,o),
(229,-15,c),
(223,20,o),
(223,52,o),
(223,83,cs),
(223,331,o),
(280,573,o),
(280,683,cs),
(280,768,o),
(226,819,o),
(133,826,c),
(142,806,o),
(147,767,o),
(147,716,cs),
(147,493,o),
(80,190,o),
(80,69,cs)
);
}
);
width = 675;
},
{
anchors = (
{
name = bottom;
pos = (374,0);
},
{
name = top;
pos = (428,847);
}
);
background = {
shapes = (
{
closed = 1;
nodes = (
(470,704,o),
(511,658,o),
(511,592,cs),
(511,499,o),
(438,398,o),
(288,392,c),
(291,346,l),
(583,346,o),
(640,510,o),
(640,610,cs),
(640,703,o),
(566,787,o),
(442,787,cs),
(391,787,o),
(327,774,o),
(270,740,c),
(286,682,l),
(322,697,o),
(355,704,o),
(388,704,cs)
);
},
{
closed = 1;
nodes = (
(91,7,o),
(122,-17,o),
(198,-17,cs),
(210,-17,o),
(224,-16,o),
(240,-15,c),
(234,20,o),
(234,52,o),
(234,83,cs),
(234,331,o),
(291,573,o),
(291,683,cs),
(291,768,o),
(237,819,o),
(144,826,c),
(153,806,o),
(158,767,o),
(158,716,cs),
(158,493,o),
(91,190,o),
(91,69,cs)
);
}
);
};
layerId = "BF8042A9-B348-454C-A59B-E2F834F64B4C";
shapes = (
{
closed = 1;
nodes = (
(309,357,l),
(375,173,o),
(443,-48,o),
(623,-48,cs),
(647,-48,o),
(680,-45,o),
(719,-38,c),
(644,36,o),
(545,210,o),
(493,381,c)
);
},
{
closed = 1;
nodes = (
(298,666,l),
(333,681,o),
(366,688,o),
(396,688,cs),
(465,688,o),
(508,641,o),
(508,565,cs),
(508,450,o),
(421,374,o),
(291,374,c),
(294,315,l),
(310,312,o),
(330,311,o),
(354,311,cs),
(546,311,o),
(696,433,o),
(696,590,cs),
(696,709,o),
(606,788,o),
(472,788,cs),
(406,788,o),
(336,771,o),
(282,741,c)
);
},
{
closed = 1;
nodes = (
(67,5,o),
(99,-17,o),
(203,-17,cs),
(220,-17,o),
(244,-16,o),
(273,-13,c),
(269,8,o),
(267,37,o),
(267,72,cs),
(267,340,o),
(324,576,o),
(324,676,cs),
(324,775,o),
(265,819,o),
(120,826,c),
(129,804,o),
(134,766,o),
(134,712,cs),
(134,500,o),
(67,181,o),
(67,76,cs)
);
}
);
width = 735;
},
{
anchors = (
{
name = bottom;
pos = (325,0);
},
{
name = top;
pos = (391,847);
}
);
hints = (
{
place = (119, 133);
place = (119, 133);
type = Stem;
},
{
place = (200, 51);
place = (200, 51);
type = Stem;
},
{
place = (634, 125);
place = (634, 125);
type = Stem;
},
{
place = (200, 121);
place = (200, 121);
type = Stem;
},
{
horizontal = 1;
place = (874, 89);
place = (874, 89);
type = Stem;
},
{
horizontal = 1;
place = (380, 44);
place = (380, 44);
type = Stem;
},
{
horizontal = 1;
place = (-59, 21);
target = up;
type = BottomGhost;
},
{
horizontal = 1;
place = (-21, 21);
target = up;
type = BottomGhost;
},
{
horizontal = 1;
place = (1010, -20);
target = down;
type = TopGhost;
}
);
layerId = "540B6D0C-2188-4C95-B7F2-D6A6068F7705";
shapes = (
{
closed = 1;
nodes = (
(342,324,l),
(397,153,o),
(486,-48,o),
(601,-48,cs),
(619,-48,o),
(635,-45,o),
(644,-38,c),
(552,40,o),
(475,142,o),
(416,352,c)
);
},
{
closed = 1;
nodes = (
(248,699,l),
(289,714,o),
(327,721,o),
(358,721,cs),
(471,721,o),
(521,650,o),
(521,571,cs),
(521,471,o),
(472,341,o),
(271,341,c),
(274,315,l),
(294,312,o),
(310,311,o),
(328,311,cs),
(514,311,o),
(604,464,o),
(604,589,cs),
(604,691,o),
(542,788,o),
(401,788,cs),
(353,788,o),
(290,776,o),
(232,741,c)
);
},
{
closed = 1;
nodes = (
(104,7,o),
(134,-17,o),
(182,-17,cs),
(187,-17,o),
(190,-16,o),
(198,-15,c),
(192,23,o),
(192,55,o),
(192,85,cs),
(192,329,o),
(249,572,o),
(249,685,cs),
(249,766,o),
(197,819,o),
(157,826,c),
(166,806,o),
(171,767,o),
(171,717,cs),
(171,491,o),
(104,192,o),
(104,67,cs)
);
}
);
width = 661.66667;
}
);
unicode = 82;
},
{
glyphname = S;
lastChange = "2022-09-23 07:47:40 +0000";
layers = (
{
anchors = (
{
name = bottom;
pos = (281,0);
},
{
name = top;
pos = (355,847);
}
);
hints = (
{
place = (43, 111);
place = (43, 111);
type = Stem;
},
{
place = (102, 52);
place = (102, 52);
type = Stem;
},
{
place = (438, 108);
place = (438, 108);
type = Stem;
},
{
place = (465, 81);
place = (465, 81);
type = Stem;
},
{
place = (465, 100);
place = (465, 100);
type = Stem;
},
{
place = (102, 102);
place = (102, 102);
type = Stem;
},
{
horizontal = 1;
place = (-25, 66);
place = (-25, 66);
type = Stem;
},
{
horizontal = 1;
place = (753, 59);
place = (753, 59);
type = Stem;
}
);
layerId = UUID0;
shapes = (
{
closed = 1;
nodes = (
(204,704,o),
(258,753,o),
(338,753,cs),
(414,753,o),
(465,709,o),
(465,643,cs),
(465,601,o),
(447,558,o),
(416,526,c),
(426,523,o),
(437,522,o),
(451,522,cs),
(517,522,o),
(565,572,o),
(565,641,cs),
(565,740,o),
(472,812,o),
(343,812,cs),
(198,812,o),
(102,732,o),
(102,611,cs),
(102,385,o),
(438,331,o),
(438,162,cs),
(438,91,o),
(379,41,o),
(296,41,cs),
(211,41,o),
(154,94,o),
(154,173,cs),
(154,207,o),
(165,241,o),
(185,271,c),
(177,274,o),
(168,275,o),
(158,275,cs),
(90,275,o),
(43,226,o),
(43,156,cs),
(43,50,o),
(142,-25,o),
(282,-25,cs),
(435,-25,o),
(546,63,o),
(546,184,cs),
(546,389,o),
(204,444,o),
(204,631,cs)
);
}
);
width = 629;
},
{
anchors = (
{
name = bottom;
pos = (282,0);
},
{
name = top;
pos = (356,847);
}
);
layerId = UUID1;
shapes = (
{
closed = 1;
nodes = (
(233,694,o),
(277,738,o),
(342,738,cs),
(405,738,o),
(448,695,o),
(448,630,cs),
(448,588,o),
(429,543,o),
(398,511,c),
(409,508,o),
(424,507,o),
(441,507,cs),
(520,507,o),
(580,565,o),
(580,641,cs),
(580,741,o),
(483,812,o),
(347,812,cs),
(192,812,o),
(90,729,o),
(90,603,cs),
(90,376,o),
(418,318,o),
(418,160,cs),
(418,99,o),
(369,56,o),
(300,56,cs),
(224,56,o),
(172,109,o),
(172,188,cs),
(172,222,o),
(183,256,o),
(203,286,c),
(194,289,o),
(183,290,o),
(169,290,cs),
(89,290,o),
(32,234,o),
(32,157,cs),
(32,50,o),
(139,-25,o),
(291,-25,cs),
(455,-25,o),
(569,62,o),
(569,188,cs),
(569,401,o),
(233,448,o),
(233,630,cs)
);
}
);
width = 631;
},
{
anchors = (
{
name = bottom;
pos = (303,0);
},
{
name = top;
pos = (377,847);
}
);
layerId = "BF8042A9-B348-454C-A59B-E2F834F64B4C";
shapes = (
{
closed = 1;
nodes = (
(279,684,o),
(318,723,o),
(372,723,cs),
(426,723,o),
(463,683,o),
(463,624,cs),
(463,587,o),
(448,545,o),
(427,524,c),
(439,521,o),
(458,519,o),
(475,519,cs),
(561,519,o),
(625,575,o),
(625,649,cs),
(625,741,o),
(525,806,o),
(382,806,cs),
(209,806,o),
(90,714,o),
(90,580,cs),
(90,359,o),
(413,300,o),
(413,159,cs),
(413,107,o),
(365,66,o),
(304,66,cs),
(233,66,o),
(187,116,o),
(187,193,cs),
(187,233,o),
(200,267,o),
(224,292,c),
(212,294,o),
(195,296,o),
(183,296,cs),
(92,296,o),
(21,230,o),
(21,147,cs),
(21,45,o),
(136,-25,o),
(304,-25,cs),
(490,-25,o),
(615,66,o),
(615,202,cs),
(615,424,o),
(279,464,o),
(279,629,cs)
);
}
);
width = 673;
},
{
anchors = (
{
name = bottom;
pos = (276,0);
},
{
name = top;
pos = (350,847);
}
);
hints = (
{
place = (53, 136);
place = (53, 136);
type = Stem;
},
{
place = (125, 64);
place = (125, 64);
type = Stem;
},
{
place = (535, 132);
place = (535, 132);
type = Stem;
},
{
place = (568, 99);
place = (568, 99);
type = Stem;
},
{
place = (568, 122);
place = (568, 122);
type = Stem;
},
{
place = (125, 125);
place = (125, 125);
type = Stem;
},
{
horizontal = 1;
place = (-31, 81);
place = (-31, 81);
type = Stem;
},
{
horizontal = 1;
place = (920, 72);
place = (920, 72);
type = Stem;
}
);
layerId = "540B6D0C-2188-4C95-B7F2-D6A6068F7705";
shapes = (
{
closed = 1;
nodes = (
(187,708,o),
(245,760,o),
(330,760,cs),
(411,760,o),
(465,715,o),
(465,647,cs),
(465,604,o),
(447,561,o),
(414,526,c),
(423,523,o),
(432,523,o),
(446,523,cs),
(507,523,o),
(552,571,o),
(552,639,cs),
(552,740,o),
(460,813,o),
(334,813,cs),
(196,813,o),
(105,736,o),
(105,618,cs),
(105,391,o),
(444,338,o),
(444,163,cs),
(444,87,o),
(382,35,o),
(294,35,cs),
(206,35,o),
(147,89,o),
(147,169,cs),
(147,201,o),
(157,235,o),
(176,266,c),
(169,270,o),
(162,270,o),
(152,270,cs),
(90,270,o),
(48,225,o),
(48,158,cs),
(48,51,o),
(143,-25,o),
(277,-25,cs),
(423,-25,o),
(531,62,o),
(531,180,cs),
(531,381,o),
(187,440,o),
(187,631,cs)
);
}
);
width = 619.22222;
}
);
unicode = 83;
},
{
glyphname = Germandbls;
lastChange = "2022-09-23 07:47:40 +0000";
layers = (
{
background = {
shapes = (
{
closed = 1;
nodes = (
(232,546,l),
(213,547,o),
(193,548,o),
(174,548,cs),
(106,548,o),
(51,537,o),
(51,467,cs),
(51,457,o),
(52,446,o),
(53,438,c),
(119,466,o),
(169,473,o),
(224,474,c)
);
}
);
};
hints = (
{
place = (121, 94);
place = (121, 94);
type = Stem;
},
{
place = (279, 99);
place = (279, 99);
type = Stem;
},
{
place = (529, 98);
place = (529, 98);
type = Stem;
},
{
place = (568, 110);
place = (568, 110);
type = Stem;
},
{
horizontal = 1;
place = (-33, 52);
place = (-33, 52);
type = Stem;
},
{
horizontal = 1;
place = (406, 49);
place = (406, 49);
type = Stem;
},
{
horizontal = 1;
place = (801, 59);
place = (801, 59);
type = Stem;
},
{
horizontal = 1;
place = (-113, 21);
target = up;
type = BottomGhost;
}
);
layerId = UUID0;
shapes = (
{
closed = 1;
nodes = (
(462,426,l),
(562,477,o),
(627,566,o),
(627,651,cs),
(627,742,o),
(555,806,o),
(452,806,cs),
(322,806,o),
(226,704,o),
(178,515,c),
(87,514,o),
(51,491,o),
(51,435,cs),
(51,429,o),
(50,442,o),
(53,409,c),
(84,421,o),
(114,429,o),
(161,438,c),
(138,308,o),
(121,166,o),
(121,94,cs),
(121,-9,o),
(155,-71,o),
(231,-106,c),
(218,-35,o),
(215,-11,o),
(215,39,cs),
(215,142,o),
(226,247,o),
(259,477,cs),
(285,651,o),
(348,748,o),
(435,748,cs),
(493,748,o),
(529,705,o),
(529,635,cs),
(529,555,o),
(473,472,o),
(382,419,c),
(398,384,l),
(498,384,o),
(568,311,o),
(568,205,cs),
(568,102,o),
(509,20,o),
(434,20,cs),
(390,20,o),
(364,46,o),
(364,89,cs),
(364,124,o),
(384,180,o),
(405,203,c),
(390,209,o),
(373,213,o),
(359,213,cs),
(307,213,o),
(265,162,o),
(265,99,cs),
(265,20,o),
(328,-31,o),
(426,-31,cs),
(568,-31,o),
(678,77,o),
(678,216,cs),
(678,332,o),
(594,412,o),
(463,422,c)
);
}
);
width = 713;
},
{
background = {
shapes = (
{
closed = 1;
nodes = (
(231,552,l),
(210,553,o),
(189,554,o),
(169,554,cs),
(95,554,o),
(35,541,o),
(35,461,cs),
(35,450,o),
(36,439,o),
(37,428,c),
(109,460,o),
(163,469,o),
(223,470,c)
);
}
);
};
layerId = UUID1;
shapes = (
{
closed = 1;
nodes = (
(492,432,l),
(588,481,o),
(652,568,o),
(652,651,cs),
(652,743,o),
(575,806,o),
(463,806,cs),
(319,806,o),
(216,708,o),
(164,521,c),
(75,520,o),
(35,492,o),
(35,431,cs),
(35,425,o),
(36,415,o),
(37,398,c),
(69,412,o),
(99,422,o),
(146,431,c),
(120,284,o),
(106,164,o),
(106,95,cs),
(106,-17,o),
(147,-75,o),
(246,-106,c),
(233,-33,o),
(230,-9,o),
(230,39,cs),
(230,146,o),
(242,262,o),
(274,478,cs),
(298,642,o),
(357,732,o),
(441,732,cs),
(495,732,o),
(528,693,o),
(528,630,cs),
(528,549,o),
(473,469,o),
(384,419,c),
(400,381,l),
(494,381,o),
(553,315,o),
(553,210,cs),
(553,110,o),
(501,30,o),
(435,30,cs),
(398,30,o),
(376,55,o),
(376,97,cs),
(376,134,o),
(397,189,o),
(421,214,c),
(406,220,o),
(389,223,o),
(373,223,cs),
(310,223,o),
(261,169,o),
(261,100,cs),
(261,19,o),
(326,-31,o),
(430,-31,cs),
(582,-31,o),
(703,79,o),
(703,217,cs),
(703,327,o),
(619,411,o),
(493,427,c)
);
}
);
width = 723;
},
{
background = {
shapes = (
{
closed = 1;
nodes = (
(220,552,l),
(199,553,o),
(178,554,o),
(158,554,cs),
(84,554,o),
(24,541,o),
(24,461,cs),
(24,450,o),
(25,439,o),
(26,428,c),
(98,460,o),
(152,469,o),
(212,470,c)
);
}
);
};
layerId = "BF8042A9-B348-454C-A59B-E2F834F64B4C";
shapes = (
{
closed = 1;
nodes = (
(578,443,l),
(672,489,o),
(734,571,o),
(734,649,cs),
(734,747,o),
(645,806,o),
(505,806,cs),
(334,806,o),
(214,707,o),
(157,534,c),
(72,533,o),
(24,489,o),
(24,423,cs),
(24,412,o),
(25,388,o),
(26,377,c),
(88,404,o),
(111,411,o),
(137,416,c),
(110,261,o),
(97,157,o),
(97,98,cs),
(97,-27,o),
(151,-77,o),
(300,-106,c),
(286,-30,o),
(284,-5,o),
(284,39,cs),
(284,140,o),
(296,258,o),
(327,472,cs),
(349,623,o),
(401,700,o),
(473,700,cs),
(520,700,o),
(549,668,o),
(549,616,cs),
(549,533,o),
(487,444,o),
(411,419,c),
(417,382,l),
(532,382,o),
(584,339,o),
(584,227,cs),
(584,131,o),
(528,51,o),
(463,51,cs),
(438,51,o),
(424,70,o),
(424,109,cs),
(424,158,o),
(444,203,o),
(478,235,c),
(459,241,o),
(441,244,o),
(421,244,cs),
(339,244,o),
(275,183,o),
(275,101,cs),
(275,17,o),
(347,-31,o),
(462,-31,cs),
(637,-31,o),
(779,80,o),
(779,222,cs),
(779,320,o),
(700,404,o),
(579,438,c)
);
}
);
width = 795;
},
{
hints = (
{
place = (148, 115);
place = (148, 115);
type = Stem;
},
{
place = (341, 121);
place = (341, 121);
type = Stem;
},
{
place = (647, 120);
place = (647, 120);
type = Stem;
},
{
place = (694, 134);
place = (694, 134);
type = Stem;
},
{
horizontal = 1;
place = (-40, 64);
place = (-40, 64);
type = Stem;
},
{
horizontal = 1;
place = (496, 60);
place = (496, 60);
type = Stem;
},
{
horizontal = 1;
place = (979, 72);
place = (979, 72);
type = Stem;
},
{
horizontal = 1;
place = (-138, 21);
target = up;
type = BottomGhost;
}
);
layerId = "540B6D0C-2188-4C95-B7F2-D6A6068F7705";
shapes = (
{
closed = 1;
nodes = (
(436,422,l),
(538,474,o),
(603,565,o),
(603,651,cs),
(603,741,o),
(535,806,o),
(440,806,cs),
(319,806,o),
(229,703,o),
(183,511,c),
(90,510,o),
(57,491,o),
(57,438,cs),
(57,433,o),
(56,454,o),
(59,416,c),
(83,425,o),
(115,433,o),
(166,443,c),
(144,318,o),
(126,168,o),
(126,93,cs),
(126,-5,o),
(156,-70,o),
(216,-106,c),
(203,-36,o),
(200,-12,o),
(200,39,cs),
(200,142,o),
(210,245,o),
(244,478,cs),
(271,657,o),
(336,759,o),
(427,759,cs),
(487,759,o),
(525,713,o),
(525,639,cs),
(525,560,o),
(470,478,o),
(376,419,c),
(394,384,l),
(490,384,o),
(564,305,o),
(564,200,cs),
(564,96,o),
(505,13,o),
(428,13,cs),
(379,13,o),
(351,41,o),
(351,85,cs),
(351,116,o),
(371,175,o),
(389,196,c),
(375,202,o),
(358,206,o),
(345,206,cs),
(300,206,o),
(263,157,o),
(263,99,cs),
(263,21,o),
(324,-31,o),
(418,-31,cs),
(553,-31,o),
(656,76,o),
(656,215,cs),
(656,335,o),
(570,414,o),
(437,418,c)
);
}
);
width = 694.77778;
}
);
unicode = 7838;
},
{
glyphname = T;
kernLeft = T;
kernRight = T;
lastChange = "2022-09-23 07:47:40 +0000";
layers = (
{
anchors = (
{
name = bottom;
pos = (239,0);
},
{
name = center;
pos = (271,380);
},
{
name = top;
pos = (313,847);
}
);
background = {
shapes = (
{
closed = 1;
nodes = (
(20,682,o),
(28,639,o),
(66,639,cs),
(164,639,o),
(367,648,o),
(474,660,cs),
(542,667,o),
(591,708,o),
(603,799,c),
(493,775,o),
(379,763,o),
(265,763,cs),
(186,763,o),
(106,768,o),
(28,781,c),
(24,768,o),
(21,746,o),
(20,721,c)
);
},
{
closed = 1;
nodes = (
(227,733,l),
(227,720,ls),
(227,493,o),
(169,237,o),
(169,129,cs),
(169,46,o),
(198,-1,o),
(316,-31,c),
(307,-10,o),
(302,29,o),
(302,78,cs),
(302,255,o),
(368,587,o),
(368,684,cs),
(368,704,o),
(367,722,o),
(363,738,c)
);
}
);
};
hints = (
{
place = (186, 99);
place = (186, 99);
type = Stem;
},
{
place = (244, 41);
place = (244, 41);
type = Stem;
},
{
place = (244, 107);
place = (244, 107);
type = Stem;
},
{
horizontal = 1;
place = (668, 65);
place = (668, 65);
type = Stem;
},
{
horizontal = 1;
place = (668, 91);
place = (668, 91);
type = Stem;
},
{
horizontal = 1;
place = (785, -20);
target = down;
type = TopGhost;
},
{
horizontal = 1;
place = (-31, 21);
target = up;
type = BottomGhost;
}
);
layerId = UUID0;
shapes = (
{
closed = 1;
nodes = (
(49,700,o),
(56,668,o),
(93,668,cs),
(181,668,o),
(362,675,o),
(458,684,cs),
(519,689,o),
(564,719,o),
(574,785,c),
(475,767,o),
(374,759,o),
(271,759,cs),
(200,759,o),
(129,763,o),
(56,772,c),
(53,763,o),
(49,747,o),
(49,729,cs)
);
},
{
closed = 1;
nodes = (
(244,720,l),
(244,493,o),
(186,237,o),
(186,129,cs),
(186,46,o),
(215,-1,o),
(299,-31,c),
(290,-10,o),
(285,29,o),
(285,78,cs),
(285,266,o),
(355,620,o),
(355,723,c)
);
}
);
width = 543;
},
{
anchors = (
{
name = bottom;
pos = (238,0);
},
{
name = center;
pos = (271,380);
},
{
name = top;
pos = (313,847);
}
);
background = {
shapes = (
{
closed = 1;
nodes = (
(20,682,o),
(28,639,o),
(66,639,cs),
(164,639,o),
(367,648,o),
(474,660,cs),
(542,667,o),
(591,708,o),
(603,799,c),
(493,775,o),
(379,763,o),
(265,763,cs),
(186,763,o),
(106,768,o),
(28,781,c),
(24,768,o),
(21,746,o),
(20,721,c)
);
},
{
closed = 1;
nodes = (
(227,733,l),
(227,720,ls),
(227,493,o),
(169,237,o),
(169,129,cs),
(169,46,o),
(198,-1,o),
(316,-31,c),
(307,-10,o),
(302,29,o),
(302,78,cs),
(302,255,o),
(368,587,o),
(368,684,cs),
(368,704,o),
(367,722,o),
(363,738,c)
);
}
);
};
layerId = UUID1;
shapes = (
{
closed = 1;
nodes = (
(20,682,o),
(28,639,o),
(66,639,cs),
(164,639,o),
(367,648,o),
(474,660,cs),
(542,667,o),
(591,708,o),
(603,799,c),
(493,775,o),
(379,763,o),
(265,763,cs),
(186,763,o),
(106,768,o),
(28,781,c),
(24,768,o),
(20,746,o),
(20,721,cs)
);
},
{
closed = 1;
nodes = (
(227,720,l),
(227,493,o),
(169,237,o),
(169,129,cs),
(169,46,o),
(198,-1,o),
(316,-31,c),
(307,-10,o),
(302,29,o),
(302,78,cs),
(302,255,o),
(368,587,o),
(368,684,c)
);
}
);
width = 543;
},
{
anchors = (
{
name = bottom;
pos = (236,0);
},
{
name = center;
pos = (286,380);
},
{
name = top;
pos = (311,847);
}
);
background = {
shapes = (
{
closed = 1;
nodes = (
(9,682,o),
(17,639,o),
(55,639,cs),
(153,639,o),
(356,648,o),
(463,660,cs),
(531,667,o),
(580,708,o),
(592,799,c),
(482,775,o),
(368,763,o),
(254,763,cs),
(175,763,o),
(95,768,o),
(17,781,c),
(13,768,o),
(10,746,o),
(9,721,c)
);
},
{
closed = 1;
nodes = (
(216,733,l),
(216,720,ls),
(216,493,o),
(158,237,o),
(158,129,cs),
(158,46,o),
(187,-1,o),
(305,-31,c),
(296,-10,o),
(291,29,o),
(291,78,cs),
(291,255,o),
(357,587,o),
(357,684,cs),
(357,704,o),
(356,722,o),
(352,738,c)
);
}
);
};
layerId = "BF8042A9-B348-454C-A59B-E2F834F64B4C";
shapes = (
{
closed = 1;
nodes = (
(-10,654,o),
(3,594,o),
(54,594,cs),
(155,594,o),
(362,608,o),
(467,623,cs),
(560,636,o),
(588,692,o),
(602,821,c),
(489,788,o),
(366,769,o),
(245,769,cs),
(159,769,o),
(76,776,o),
(-1,795,c),
(-7,774,o),
(-10,741,o),
(-10,709,cs)
);
},
{
closed = 1;
nodes = (
(194,720,l),
(194,529,o),
(139,233,o),
(139,129,cs),
(139,49,o),
(164,-1,o),
(336,-31,c),
(328,-10,o),
(323,28,o),
(323,78,cs),
(323,240,o),
(385,576,o),
(385,684,c)
);
}
);
width = 562;
},
{
anchors = (
{
name = bottom;
pos = (240,0);
},
{
name = center;
pos = (268,380);
},
{
name = top;
pos = (313,847);
}
);
hints = (
{
place = (227, 121);
place = (227, 121);
type = Stem;
},
{
place = (298, 50);
place = (298, 50);
type = Stem;
},
{
place = (298, 131);
place = (298, 131);
type = Stem;
},
{
horizontal = 1;
place = (816, 79);
place = (816, 79);
type = Stem;
},
{
horizontal = 1;
place = (816, 111);
place = (816, 111);
type = Stem;
},
{
horizontal = 1;
place = (959, -20);
target = down;
type = TopGhost;
},
{
horizontal = 1;
place = (-38, 21);
target = up;
type = BottomGhost;
}
);
layerId = "540B6D0C-2188-4C95-B7F2-D6A6068F7705";
shapes = (
{
closed = 1;
nodes = (
(62,710,o),
(68,684,o),
(102,684,cs),
(187,684,o),
(362,690,o),
(456,698,cs),
(510,701,o),
(559,725,o),
(568,777,c),
(472,762,o),
(376,757,o),
(277,757,cs),
(209,757,o),
(141,760,o),
(69,767,c),
(66,761,o),
(62,748,o),
(62,733,cs)
);
},
{
closed = 1;
nodes = (
(255,720,l),
(255,485,o),
(196,238,o),
(196,129,cs),
(196,45,o),
(226,-1,o),
(291,-31,c),
(282,-10,o),
(277,29,o),
(277,78,cs),
(277,272,o),
(348,630,o),
(348,732,c)
);
}
);
width = 538.77778;
}
);
unicode = 84;
},
{
glyphname = U;
kernLeft = U;
kernRight = U;
lastChange = "2022-09-23 07:47:40 +0000";
layers = (
{
anchors = (
{
name = bottom;
pos = (344,0);
},
{
name = ogonek;
pos = (616,-31);
},
{
name = top;
pos = (418,847);
},
{
name = topright;
pos = (557,802);
}
);
background = {
shapes = (
{
closed = 1;
nodes = (
(233,729,o),
(201,773,o),
(121,802,c),
(128,783,o),
(132,750,o),
(132,707,cs),
(132,606,o),
(87,354,o),
(87,220,cs),
(87,50,o),
(146,-20,o),
(254,-20,cs),
(451,-20,o),
(530,192,o),
(564,388,c),
(545,474,l),
(503,130,o),
(371,62,o),
(298,62,cs),
(236,62,o),
(190,95,o),
(190,239,cs),
(190,386,o),
(233,518,o),
(233,653,cs)
);
},
{
closed = 1;
nodes = (
(668,753,o),
(662,796,o),
(557,802,c),
(559,776,o),
(561,748,o),
(561,720,cs),
(561,529,o),
(503,233,o),
(503,129,cs),
(503,46,o),
(532,-1,o),
(616,-31,c),
(607,-10,o),
(602,29,o),
(602,78,cs),
(602,240,o),
(668,576,o),
(668,684,cs)
);
}
);
};
hints = (
{
place = (87, 103);
place = (87, 103);
type = Stem;
},
{
place = (132, 58);
place = (132, 58);
type = Stem;
},
{
place = (503, 99);
place = (503, 99);
type = Stem;
},
{
place = (561, 107);
place = (561, 107);
type = Stem;
},
{
place = (132, 101);
place = (132, 101);
type = Stem;
},
{
horizontal = 1;
place = (-20, 82);
place = (-20, 82);
type = Stem;
},
{
horizontal = 1;
place = (802, -20);
target = down;
type = TopGhost;
},
{
horizontal = 1;
place = (-31, 21);
target = up;
type = BottomGhost;
}
);
layerId = UUID0;
shapes = (
{
closed = 1;
nodes = (
(233,729,o),
(201,773,o),
(121,802,c),
(128,783,o),
(132,750,o),
(132,707,cs),
(132,606,o),
(87,354,o),
(87,220,cs),
(87,50,o),
(146,-20,o),
(254,-20,cs),
(451,-20,o),
(530,192,o),
(564,388,c),
(561,720,l),
(561,146,o),
(376,62,o),
(298,62,cs),
(236,62,o),
(190,95,o),
(190,239,cs),
(190,386,o),
(233,518,o),
(233,653,cs)
);
},
{
closed = 1;
nodes = (
(668,753,o),
(662,796,o),
(557,802,c),
(559,776,o),
(561,748,o),
(561,720,cs),
(561,529,o),
(503,233,o),
(503,129,cs),
(503,46,o),
(532,-1,o),
(616,-31,c),
(607,-10,o),
(602,29,o),
(602,78,cs),
(602,240,o),
(668,576,o),
(668,684,cs)
);
}
);
width = 755;
},
{
anchors = (
{
name = bottom;
pos = (344,0);
},
{
name = ogonek;
pos = (633,-31);
},
{
name = top;
pos = (418,847);
},
{
name = topright;
pos = (540,802);
}
);
background = {
shapes = (
{
closed = 1;
nodes = (
(250,729,o),
(218,773,o),
(104,802,c),
(111,783,o),
(115,750,o),
(115,707,cs),
(115,606,o),
(70,354,o),
(70,220,cs),
(70,50,o),
(129,-20,o),
(238,-20,cs),
(436,-20,o),
(525,197,o),
(559,393,c),
(528,479,l),
(490,143,o),
(369,77,o),
(301,77,cs),
(250,77,o),
(210,107,o),
(210,239,cs),
(210,386,o),
(250,518,o),
(250,653,cs)
);
},
{
closed = 1;
nodes = (
(685,753,o),
(679,796,o),
(540,802,c),
(542,776,o),
(544,748,o),
(544,720,cs),
(544,529,o),
(486,233,o),
(486,129,cs),
(486,46,o),
(515,-1,o),
(633,-31,c),
(624,-10,o),
(619,29,o),
(619,78,cs),
(619,240,o),
(685,576,o),
(685,684,cs)
);
}
);
};
layerId = UUID1;
shapes = (
{
closed = 1;
nodes = (
(250,729,o),
(218,773,o),
(104,802,c),
(111,783,o),
(115,750,o),
(115,707,cs),
(115,606,o),
(70,354,o),
(70,220,cs),
(70,50,o),
(129,-20,o),
(238,-20,cs),
(436,-20,o),
(525,197,o),
(559,393,c),
(544,720,l),
(544,157,o),
(374,77,o),
(301,77,cs),
(250,77,o),
(210,107,o),
(210,239,cs),
(210,386,o),
(250,518,o),
(250,653,cs)
);
},
{
closed = 1;
nodes = (
(685,753,o),
(679,796,o),
(540,802,c),
(542,776,o),
(544,748,o),
(544,720,cs),
(544,529,o),
(486,233,o),
(486,129,cs),
(486,46,o),
(515,-1,o),
(633,-31,c),
(624,-10,o),
(619,29,o),
(619,78,cs),
(619,240,o),
(685,576,o),
(685,684,cs)
);
}
);
width = 755;
},
{
anchors = (
{
name = bottom;
pos = (369,0);
},
{
name = ogonek;
pos = (686,-31);
},
{
name = top;
pos = (443,847);
},
{
name = topright;
pos = (540,802);
}
);
layerId = "BF8042A9-B348-454C-A59B-E2F834F64B4C";
shapes = (
{
closed = 1;
nodes = (
(309,731,o),
(274,773,o),
(113,802,c),
(120,783,o),
(124,750,o),
(124,707,cs),
(124,606,o),
(79,354,o),
(79,220,cs),
(79,50,o),
(131,-20,o),
(242,-20,cs),
(457,-20,o),
(565,228,o),
(565,400,c),
(544,720,l),
(544,167,o),
(393,99,o),
(348,99,cs),
(311,99,o),
(273,125,o),
(273,239,cs),
(273,386,o),
(309,518,o),
(309,653,cs)
);
},
{
closed = 1;
nodes = (
(735,753,o),
(729,796,o),
(540,802,c),
(542,774,o),
(544,745,o),
(544,720,cs),
(544,529,o),
(489,233,o),
(489,129,cs),
(489,49,o),
(514,-1,o),
(686,-31,c),
(678,-10,o),
(673,28,o),
(673,78,cs),
(673,240,o),
(735,576,o),
(735,684,cs)
);
}
);
width = 806;
},
{
anchors = (
{
name = bottom;
pos = (338,0);
},
{
name = ogonek;
pos = (600,-31);
},
{
name = top;
pos = (412,847);
},
{
name = topright;
pos = (561,802);
}
);
hints = (
{
place = (106, 126);
place = (106, 126);
type = Stem;
},
{
place = (161, 71);
place = (161, 71);
type = Stem;
},
{
place = (615, 121);
place = (615, 121);
type = Stem;
},
{
place = (686, 131);
place = (686, 131);
type = Stem;
},
{
place = (161, 123);
place = (161, 123);
type = Stem;
},
{
horizontal = 1;
place = (-24, 100);
place = (-24, 100);
type = Stem;
},
{
horizontal = 1;
place = (980, -20);
target = down;
type = TopGhost;
},
{
horizontal = 1;
place = (-38, 21);
target = up;
type = BottomGhost;
}
);
layerId = "540B6D0C-2188-4C95-B7F2-D6A6068F7705";
shapes = (
{
closed = 1;
nodes = (
(216,729,o),
(185,773,o),
(123,802,c),
(130,783,o),
(134,750,o),
(134,707,cs),
(134,606,o),
(89,354,o),
(89,220,cs),
(89,50,o),
(149,-20,o),
(257,-20,cs),
(450,-20,o),
(522,184,o),
(564,385,c),
(565,720,l),
(565,141,o),
(372,54,o),
(287,54,cs),
(219,54,o),
(172,88,o),
(172,239,cs),
(172,386,o),
(216,518,o),
(216,653,cs)
);
},
{
closed = 1;
nodes = (
(653,753,o),
(647,796,o),
(561,802,c),
(563,776,o),
(565,749,o),
(565,720,cs),
(565,529,o),
(506,233,o),
(506,129,cs),
(506,45,o),
(536,-1,o),
(600,-31,c),
(591,-10,o),
(586,29,o),
(586,78,cs),
(586,240,o),
(653,576,o),
(653,684,cs)
);
}
);
width = 743.66667;
}
);
unicode = 85;
},
{
glyphname = V;
lastChange = "2022-09-23 07:47:40 +0000";
layers = (
{
hints = (
{
place = (531, 98);
place = (531, 98);
type = Stem;
},
{
horizontal = 1;
place = (807, -20);
target = down;
type = TopGhost;
},
{
horizontal = 1;
place = (-14, 21);
target = up;
type = BottomGhost;
}
);
layerId = UUID0;
shapes = (
{
closed = 1;
nodes = (
(406,215,o),
(629,639,o),
(629,733,cs),
(629,768,o),
(603,794,o),
(541,807,c),
(541,699,o),
(373,241,o),
(294,81,c),
(306,85,l),
(248,384,ls),
(179,741,o),
(175,792,o),
(101,792,cs),
(83,792,o),
(55,781,o),
(31,766,c),
(108,656,o),
(191,182,o),
(228,1,cs),
(230,-10,o),
(244,-14,o),
(257,-14,cs),
(279,-14,o),
(320,-4,o),
(327,0,c)
);
}
);
width = 661;
},
{
layerId = UUID1;
shapes = (
{
closed = 1;
nodes = (
(420,214,o),
(644,640,o),
(644,732,cs),
(644,770,o),
(607,795,o),
(531,807,c),
(531,721,o),
(388,298,o),
(296,112,c),
(311,120,l),
(262,384,ls),
(194,749,o),
(178,792,o),
(111,792,cs),
(87,792,o),
(50,782,o),
(16,766,c),
(93,656,o),
(174,184,o),
(213,1,cs),
(215,-8,o),
(231,-14,o),
(251,-14,cs),
(271,-14,o),
(327,-5,o),
(342,0,c)
);
}
);
width = 661;
},
{
layerId = "BF8042A9-B348-454C-A59B-E2F834F64B4C";
shapes = (
{
closed = 1;
nodes = (
(462,215,o),
(685,639,o),
(685,733,cs),
(685,767,o),
(637,794,o),
(523,807,c),
(523,656,o),
(329,166,o),
(281,118,c),
(333,177,l),
(301,383,ls),
(247,731,o),
(228,792,o),
(142,792,cs),
(104,792,o),
(46,781,o),
(-2,766,c),
(74,656,o),
(159,185,o),
(195,3,cs),
(198,-11,o),
(226,-14,o),
(251,-14,cs),
(292,-14,o),
(370,-4,o),
(383,0,c)
);
}
);
width = 677;
},
{
hints = (
{
place = (649, 120);
place = (649, 120);
type = Stem;
},
{
horizontal = 1;
place = (986, -20);
target = down;
type = TopGhost;
},
{
horizontal = 1;
place = (-17, 21);
target = up;
type = BottomGhost;
}
);
layerId = "540B6D0C-2188-4C95-B7F2-D6A6068F7705";
shapes = (
{
closed = 1;
nodes = (
(394,215,o),
(617,639,o),
(617,733,cs),
(617,768,o),
(595,794,o),
(545,807,c),
(545,709,o),
(383,258,o),
(297,73,c),
(300,65,l),
(236,384,ls),
(164,743,o),
(163,792,o),
(92,792,cs),
(78,792,o),
(57,781,o),
(38,766,c),
(116,656,o),
(198,181,o),
(235,1,cs),
(237,-10,o),
(248,-14,o),
(258,-14,cs),
(276,-14,o),
(309,-4,o),
(315,0,c)
);
}
);
width = 657.44444;
}
);
unicode = 86;
},
{
glyphname = W;
kernLeft = W;
kernRight = W;
lastChange = "2022-09-23 07:47:40 +0000";
layers = (
{
anchors = (
{
name = bottom;
pos = (457,0);
},
{
name = top;
pos = (531,847);
}
);
background = {
shapes = (
{
closed = 1;
nodes = (
(495,678,l),
(447,515,o),
(350,261,o),
(293,138,c),
(286,194,o),
(262,350,o),
(258,384,cs),
(213,742,o),
(207,792,o),
(129,792,cs),
(104,792,o),
(66,781,o),
(34,766,c),
(105,656,o),
(149,182,o),
(192,1,c),
(192,-10,o),
(210,-14,o),
(227,-14,cs),
(255,-14,o),
(309,-4,o),
(317,0,c),
(368,140,o),
(477,364,o),
(549,532,c)
);
}
);
};
hints = (
{
place = (864, 93);
place = (864, 93);
type = Stem;
},
{
horizontal = 1;
place = (807, -20);
target = down;
type = TopGhost;
},
{
horizontal = 1;
place = (-14, 21);
target = up;
type = BottomGhost;
}
);
layerId = UUID0;
shapes = (
{
closed = 1;
nodes = (
(608,-14,o),
(649,-4,o),
(655,0,c),
(706,133,o),
(957,650,o),
(957,737,cs),
(957,769,o),
(923,794,o),
(875,807,c),
(869,701,o),
(707,279,o),
(637,101,c),
(596,384,ls),
(539,780,o),
(522,792,o),
(472,792,cs),
(454,792,o),
(426,781,o),
(402,766,c),
(473,656,o),
(531,182,o),
(560,1,c),
(560,-10,o),
(574,-14,o),
(587,-14,cs)
);
},
{
closed = 1;
nodes = (
(255,-14,o),
(296,-4,o),
(302,0,c),
(336,88,o),
(457,344,o),
(535,532,c),
(489,669,l),
(443,508,o),
(337,234,o),
(284,101,c),
(243,384,ls),
(186,780,o),
(169,792,o),
(119,792,cs),
(101,792,o),
(73,781,o),
(49,766,c),
(120,656,o),
(179,182,o),
(207,1,c),
(207,-10,o),
(221,-14,o),
(234,-14,cs)
);
}
);
width = 983;
},
{
anchors = (
{
name = bottom;
pos = (457,0);
},
{
name = top;
pos = (531,847);
}
);
background = {
shapes = (
{
closed = 1;
nodes = (
(495,678,l),
(447,515,o),
(350,261,o),
(293,138,c),
(286,194,o),
(262,350,o),
(258,384,cs),
(213,742,o),
(207,792,o),
(129,792,cs),
(104,792,o),
(66,781,o),
(34,766,c),
(105,656,o),
(149,182,o),
(192,1,c),
(192,-10,o),
(210,-14,o),
(227,-14,cs),
(255,-14,o),
(309,-4,o),
(317,0,c),
(368,140,o),
(477,364,o),
(549,532,c)
);
}
);
};
layerId = UUID1;
shapes = (
{
closed = 1;
nodes = (
(603,-14,o),
(660,-5,o),
(670,0,c),
(719,128,o),
(972,652,o),
(972,734,cs),
(972,767,o),
(932,793,o),
(864,807,c),
(860,739,o),
(763,440,o),
(646,138,c),
(611,384,ls),
(560,741,o),
(548,792,o),
(486,792,cs),
(457,792,o),
(421,782,o),
(387,766,c),
(458,656,o),
(502,182,o),
(545,1,c),
(545,-8,o),
(559,-14,o),
(580,-14,cs)
);
},
{
closed = 1;
nodes = (
(250,-14,o),
(307,-5,o),
(317,0,c),
(351,88,o),
(472,344,o),
(550,532,c),
(489,705,l),
(456,586,o),
(371,340,o),
(293,138,c),
(258,384,ls),
(207,741,o),
(195,792,o),
(133,792,cs),
(104,792,o),
(68,782,o),
(34,766,c),
(105,656,o),
(149,182,o),
(192,1,c),
(192,-8,o),
(206,-14,o),
(227,-14,cs)
);
}
);
width = 983;
},
{
anchors = (
{
name = bottom;
pos = (491,0);
},
{
name = top;
pos = (565,847);
}
);
background = {
shapes = (
{
closed = 1;
nodes = (
(493,678,l),
(445,515,o),
(348,261,o),
(291,138,c),
(284,194,o),
(260,350,o),
(256,384,cs),
(211,742,o),
(205,792,o),
(127,792,cs),
(102,792,o),
(64,781,o),
(32,766,c),
(103,656,o),
(147,182,o),
(190,1,c),
(190,-10,o),
(208,-14,o),
(225,-14,cs),
(253,-14,o),
(307,-4,o),
(315,0,c),
(366,140,o),
(475,364,o),
(547,532,c)
);
}
);
};
layerId = "BF8042A9-B348-454C-A59B-E2F834F64B4C";
shapes = (
{
closed = 1;
nodes = (
(681,-14,o),
(763,-5,o),
(781,0,c),
(859,215,o),
(1053,639,o),
(1053,733,cs),
(1053,770,o),
(998,795,o),
(891,807,c),
(891,711,o),
(809,407,o),
(727,203,c),
(699,383,ls),
(643,743,o),
(624,792,o),
(540,792,cs),
(502,792,o),
(445,782,o),
(396,766,c),
(472,656,o),
(554,184,o),
(593,3,cs),
(595,-8,o),
(615,-14,o),
(649,-14,cs)
);
},
{
closed = 1;
nodes = (
(281,-14,o),
(363,-5,o),
(381,0,c),
(425,121,o),
(516,308,o),
(586,466,c),
(504,715,l),
(473,577,o),
(394,349,o),
(327,203,c),
(299,383,ls),
(243,743,o),
(224,792,o),
(140,792,cs),
(102,792,o),
(45,782,o),
(-4,766,c),
(72,656,o),
(157,185,o),
(193,3,cs),
(195,-8,o),
(215,-14,o),
(249,-14,cs)
);
}
);
width = 1051;
},
{
anchors = (
{
name = bottom;
pos = (449,0);
},
{
name = top;
pos = (523,847);
}
);
hints = (
{
place = (1056, 114);
place = (1056, 114);
type = Stem;
},
{
horizontal = 1;
place = (986, -20);
target = down;
type = TopGhost;
},
{
horizontal = 1;
place = (-17, 21);
target = up;
type = BottomGhost;
}
);
layerId = "540B6D0C-2188-4C95-B7F2-D6A6068F7705";
shapes = (
{
closed = 1;
nodes = (
(592,-14,o),
(624,-4,o),
(627,0,c),
(672,115,o),
(936,652,o),
(936,738,cs),
(936,769,o),
(906,794,o),
(871,807,c),
(864,699,o),
(684,251,o),
(617,78,c),
(573,384,ls),
(516,788,o),
(499,792,o),
(457,792,cs),
(443,792,o),
(422,781,o),
(403,766,c),
(473,656,o),
(526,182,o),
(553,1,c),
(552,-10,o),
(565,-14,o),
(573,-14,cs)
);
},
{
closed = 1;
nodes = (
(249,-14,o),
(281,-4,o),
(284,0,c),
(316,81,o),
(444,352,o),
(524,547,c),
(486,659,l),
(436,493,o),
(324,208,o),
(274,78,c),
(231,384,ls),
(173,788,o),
(157,792,o),
(114,792,cs),
(101,792,o),
(79,781,o),
(61,766,c),
(131,656,o),
(184,181,o),
(210,1,c),
(210,-10,o),
(222,-14,o),
(231,-14,cs)
);
}
);
width = 967.88889;
}
);
unicode = 87;
},
{
glyphname = X;
lastChange = "2022-09-23 07:47:40 +0000";
layers = (
{
hints = (
{
place = (590, 50);
place = (590, 50);
type = Stem;
},
{
horizontal = 1;
place = (809, -20);
target = down;
type = TopGhost;
},
{
horizontal = 1;
place = (-33, 21);
target = up;
type = BottomGhost;
},
{
horizontal = 1;
place = (803, -20);
target = down;
type = TopGhost;
}
);
layerId = UUID0;
shapes = (
{
closed = 1;
nodes = (
(30,44,o),
(47,6,o),
(84,-31,c),
(223,382,o),
(640,548,o),
(640,715,cs),
(640,742,o),
(626,784,o),
(590,809,c),
(578,591,o),
(30,269,o),
(30,81,cs)
);
},
{
closed = 1;
nodes = (
(591,-33,o),
(607,-32,o),
(620,-28,c),
(550,47,o),
(454,187,o),
(357,457,cs),
(255,742,o),
(223,803,o),
(174,803,cs),
(142,803,o),
(114,793,o),
(90,779,c),
(258,546,o),
(348,-33,o),
(581,-33,cs)
);
}
);
width = 671;
},
{
layerId = UUID1;
shapes = (
{
closed = 1;
nodes = (
(15,44,o),
(42,6,o),
(99,-31,c),
(238,382,o),
(655,548,o),
(655,715,cs),
(655,742,o),
(633,784,o),
(575,809,c),
(563,591,o),
(15,269,o),
(15,81,cs)
);
},
{
closed = 1;
nodes = (
(587,-33,o),
(608,-30,o),
(630,-22,c),
(560,53,o),
(468,190,o),
(372,457,cs),
(308,635,o),
(258,803,o),
(178,803,cs),
(149,803,o),
(109,792,o),
(75,776,c),
(245,544,o),
(336,-33,o),
(559,-33,cs)
);
}
);
width = 671;
},
{
layerId = "BF8042A9-B348-454C-A59B-E2F834F64B4C";
shapes = (
{
closed = 1;
nodes = (
(-4,51,o),
(12,-25,o),
(138,-25,c),
(277,418,o),
(694,554,o),
(694,721,cs),
(694,748,o),
(667,815,o),
(556,815,c),
(544,567,o),
(-4,248,o),
(-4,87,cs)
);
},
{
closed = 1;
nodes = (
(589,-25,o),
(620,-18,o),
(659,-2,c),
(589,73,o),
(507,197,o),
(411,464,cs),
(298,778,o),
(277,811,o),
(184,811,cs),
(135,811,o),
(88,798,o),
(56,784,c),
(230,553,o),
(323,-25,o),
(527,-25,cs)
);
}
);
width = 687;
},
{
hints = (
{
place = (721, 61);
place = (721, 61);
type = Stem;
},
{
horizontal = 1;
place = (989, -20);
target = down;
type = TopGhost;
},
{
horizontal = 1;
place = (-40, 21);
target = up;
type = BottomGhost;
},
{
horizontal = 1;
place = (981, -20);
target = down;
type = TopGhost;
}
);
layerId = "540B6D0C-2188-4C95-B7F2-D6A6068F7705";
shapes = (
{
closed = 1;
nodes = (
(38,42,o),
(55,13,o),
(72,-32,c),
(211,374,o),
(628,547,o),
(628,714,cs),
(628,741,o),
(617,777,o),
(598,808,c),
(586,596,o),
(38,274,o),
(38,80,cs)
);
},
{
closed = 1;
nodes = (
(591,-35,o),
(604,-35,o),
(611,-34,c),
(541,41,o),
(442,185,o),
(345,455,cs),
(245,734,o),
(211,801,o),
(172,801,cs),
(144,801,o),
(120,792,o),
(98,778,c),
(264,544,o),
(354,-35,o),
(593,-35,cs)
);
}
);
width = 667.44444;
}
);
unicode = 88;
},
{
glyphname = Y;
kernLeft = Y;
kernRight = Y;
lastChange = "2022-09-23 07:47:40 +0000";
layers = (
{
anchors = (
{
name = bottom;
pos = (249,0);
},
{
name = top;
pos = (333,847);
},
{
name = topleft;
pos = (20,847);
}
);
background = {
shapes = (
{
closed = 0;
nodes = (
(249,395,ls),
(180,752,o),
(176,803,o),
(102,803,cs),
(84,803,o),
(56,792,o),
(32,777,c)
);
}
);
};
hints = (
{
place = (193, 103);
place = (193, 103);
type = Stem;
},
{
place = (250, 46);
place = (250, 46);
type = Stem;
},
{
horizontal = 1;
place = (833, -20);
target = down;
type = TopGhost;
},
{
horizontal = 1;
place = (-31, 21);
target = up;
type = BottomGhost;
},
{
horizontal = 1;
place = (803, -20);
target = down;
type = TopGhost;
}
);
layerId = UUID0;
shapes = (
{
closed = 1;
nodes = (
(512,582,o),
(565,678,o),
(565,729,cs),
(565,762,o),
(535,789,o),
(477,807,c),
(462,698,o),
(380,495,o),
(278,316,c),
(198,744,o),
(177,803,o),
(107,803,cs),
(81,803,o),
(57,795,o),
(33,777,c),
(83,696,o),
(137,539,o),
(206,273,c),
(195,182,o),
(193,155,o),
(193,125,cs),
(193,0,o),
(228,-31,o),
(310,-31,c),
(301,-10,o),
(296,29,o),
(296,78,cs),
(296,138,o),
(302,209,o),
(313,274,c)
);
}
);
width = 565;
},
{
anchors = (
{
name = bottom;
pos = (249,0);
},
{
name = top;
pos = (333,847);
},
{
name = topleft;
pos = (20,847);
}
);
background = {
shapes = (
{
closed = 1;
nodes = (
(265,188,l),
(279,211,o),
(294,234,o),
(309,256,cs),
(436,443,o),
(580,644,o),
(580,722,cs),
(580,750,o),
(568,798,o),
(505,833,c),
(492,740,o),
(409,548,o),
(269,336,cs),
(257,318,o),
(244,297,o),
(233,278,c)
);
},
{
closed = 1;
nodes = (
(207,377,l),
(193,272,o),
(178,183,o),
(178,129,cs),
(178,46,o),
(207,-1,o),
(325,-31,c),
(316,-10,o),
(311,29,o),
(311,78,cs),
(311,147,o),
(322,239,o),
(334,332,c),
(287,321,l)
);
},
{
closed = 1;
nodes = (
(281,404,l),
(209,759,o),
(185,803,o),
(94,803,cs),
(69,803,o),
(33,793,o),
(8,777,c),
(82,667,o),
(148,441,o),
(198,260,cs),
(201,249,o),
(205,280,o),
(222,280,cs),
(250,280,o),
(291,290,o),
(300,294,c)
);
}
);
};
layerId = UUID1;
shapes = (
{
closed = 1;
nodes = (
(534,595,o),
(580,678,o),
(580,732,cs),
(580,770,o),
(543,795,o),
(467,807,c),
(456,716,o),
(384,539,o),
(287,368,c),
(223,738,o),
(195,803,o),
(100,803,cs),
(69,803,o),
(35,793,o),
(8,777,c),
(62,697,o),
(119,542,o),
(193,278,c),
(184,217,o),
(178,165,o),
(178,129,cs),
(178,2,o),
(207,-31,o),
(325,-31,c),
(316,-10,o),
(311,29,o),
(311,78,cs),
(311,135,o),
(319,209,o),
(329,285,c)
);
}
);
width = 565;
},
{
anchors = (
{
name = bottom;
pos = (257,0);
},
{
name = top;
pos = (331,847);
},
{
name = topleft;
pos = (20,847);
}
);
background = {
shapes = (
{
closed = 1;
nodes = (
(235,188,l),
(249,211,o),
(264,234,o),
(279,256,cs),
(406,443,o),
(550,644,o),
(550,722,cs),
(550,750,o),
(538,798,o),
(475,833,c),
(462,740,o),
(379,548,o),
(239,336,cs),
(227,318,o),
(214,297,o),
(203,278,c)
);
},
{
closed = 1;
nodes = (
(177,377,l),
(163,272,o),
(148,183,o),
(148,129,cs),
(148,46,o),
(177,-1,o),
(295,-31,c),
(286,-10,o),
(281,29,o),
(281,78,cs),
(281,147,o),
(292,239,o),
(304,332,c),
(257,321,l)
);
},
{
closed = 1;
nodes = (
(251,404,l),
(179,759,o),
(155,803,o),
(64,803,cs),
(39,803,o),
(3,793,o),
(-22,777,c),
(52,667,o),
(118,441,o),
(168,260,cs),
(171,249,o),
(175,280,o),
(192,280,cs),
(220,280,o),
(261,290,o),
(270,294,c)
);
}
);
};
layerId = "BF8042A9-B348-454C-A59B-E2F834F64B4C";
shapes = (
{
closed = 1;
nodes = (
(553,596,o),
(601,682,o),
(601,733,cs),
(601,772,o),
(554,794,o),
(439,807,c),
(431,731,o),
(377,587,o),
(298,428,c),
(244,733,o),
(209,803,o),
(111,803,cs),
(69,803,o),
(15,792,o),
(-22,777,c),
(35,693,o),
(97,521,o),
(167,265,c),
(156,209,o),
(148,162,o),
(148,129,cs),
(148,0,o),
(189,-31,o),
(346,-31,c),
(337,-10,o),
(332,33,o),
(332,78,cs),
(332,130,o),
(340,207,o),
(349,285,c)
);
}
);
width = 581;
},
{
anchors = (
{
name = bottom;
pos = (247,0);
},
{
name = top;
pos = (333,847);
},
{
name = topleft;
pos = (20,847);
}
);
hints = (
{
place = (236, 126);
place = (236, 126);
type = Stem;
},
{
place = (306, 56);
place = (306, 56);
type = Stem;
},
{
horizontal = 1;
place = (1018, -20);
target = down;
type = TopGhost;
},
{
horizontal = 1;
place = (-38, 21);
target = up;
type = BottomGhost;
},
{
horizontal = 1;
place = (981, -20);
target = down;
type = TopGhost;
}
);
layerId = "540B6D0C-2188-4C95-B7F2-D6A6068F7705";
shapes = (
{
closed = 1;
nodes = (
(503,579,o),
(557,677,o),
(557,728,cs),
(557,760,o),
(531,788,o),
(485,807,c),
(469,691,o),
(381,475,o),
(274,291,c),
(188,746,o),
(170,803,o),
(106,803,cs),
(84,803,o),
(66,796,o),
(45,777,c),
(94,697,o),
(146,543,o),
(215,275,c),
(204,176,o),
(203,153,o),
(203,124,cs),
(203,0,o),
(237,-31,o),
(302,-31,c),
(293,-10,o),
(288,28,o),
(288,78,cs),
(288,140,o),
(294,209,o),
(305,272,c)
);
}
);
width = 561.44444;
}
);
unicode = 89;
},
{
glyphname = Z;
lastChange = "2022-09-23 07:47:40 +0000";
layers = (
{
anchors = (
{
name = bottom;
pos = (251,0);
},
{
name = top;
pos = (355,847);
}
);
background = {
shapes = (
{
closed = 1;
nodes = (
(144,81,l),
(314,355,o),
(583,578,o),
(583,706,cs),
(583,738,o),
(565,790,o),
(517,838,c),
(485,696,o),
(277,385,o),
(-7,55,c)
);
},
{
closed = 1;
nodes = (
(249,10,o),
(330,-12,o),
(399,-12,cs),
(470,-12,o),
(522,44,o),
(534,144,c),
(467,122,o),
(321,106,o),
(175,106,cs),
(155,106,o),
(132,108,o),
(112,108,cs),
(-30,108,o),
(-61,21,o),
(-69,-10,c),
(-7,6,o),
(65,10,o),
(128,10,cs)
);
},
{
closed = 1;
nodes = (
(57,676,o),
(65,627,o),
(105,627,cs),
(180,627,o),
(466,686,o),
(466,686,c),
(481,717,o),
(494,742,o),
(509,775,c),
(461,769,o),
(407,767,o),
(357,767,cs),
(219,767,o),
(94,780,o),
(65,784,c),
(61,772,o),
(58,747,o),
(57,719,c)
);
}
);
};
hints = (
{
horizontal = 1;
origin = (1,2);
target = (1,8);
type = Stem;
},
{
horizontal = 1;
place = (699, 64);
place = (699, 64);
type = Stem;
},
{
horizontal = 1;
origin = (1,8);
target = (1,17);
type = Stem;
}
);
layerId = UUID0;
shapes = (
{
closed = 1;
nodes = (
(130,62,l),
(301,344,o),
(553,574,o),
(553,711,cs),
(553,737,o),
(544,790,o),
(507,838,c),
(477,696,o),
(275,366,o),
(4,36,c)
);
},
{
closed = 1;
nodes = (
(249,12,o),
(327,-5,o),
(375,-5,cs),
(447,-5,o),
(492,33,o),
(505,117,c),
(442,98,o),
(290,87,o),
(192,87,cs),
(150,87,o),
(147,89,o),
(125,89,cs),
(-5,89,o),
(-32,21,o),
(-40,-3,c),
(16,9,o),
(83,12,o),
(132,12,cs)
);
},
{
closed = 1;
nodes = (
(83,686,o),
(91,654,o),
(137,654,cs),
(184,654,o),
(398,689,o),
(459,700,c),
(498,769,l),
(454,765,o),
(406,763,o),
(355,763,cs),
(234,763,o),
(118,774,o),
(91,777,c),
(87,766,o),
(83,748,o),
(83,722,cs)
);
}
);
width = 573;
},
{
anchors = (
{
name = bottom;
pos = (270,0);
},
{
name = top;
pos = (364,847);
}
);
background = {
shapes = (
{
closed = 1;
nodes = (
(163,81,l),
(333,355,o),
(602,578,o),
(602,706,cs),
(602,738,o),
(584,790,o),
(536,838,c),
(504,696,o),
(296,385,o),
(12,55,c)
);
},
{
closed = 1;
nodes = (
(268,10,o),
(349,-12,o),
(418,-12,cs),
(489,-12,o),
(541,44,o),
(553,144,c),
(486,122,o),
(340,106,o),
(194,106,cs),
(174,106,o),
(151,108,o),
(131,108,cs),
(-11,108,o),
(-42,21,o),
(-50,-10,c),
(12,6,o),
(84,10,o),
(147,10,cs)
);
},
{
closed = 1;
nodes = (
(76,676,o),
(84,627,o),
(124,627,cs),
(199,627,o),
(485,686,o),
(485,686,c),
(500,717,o),
(513,742,o),
(528,775,c),
(480,769,o),
(426,767,o),
(376,767,cs),
(238,767,o),
(113,780,o),
(84,784,c),
(80,772,o),
(77,747,o),
(76,719,c)
);
}
);
};
layerId = UUID1;
shapes = (
{
closed = 1;
nodes = (
(163,81,l),
(332,354,o),
(602,579,o),
(602,705,cs),
(602,738,o),
(584,790,o),
(536,838,c),
(504,696,o),
(296,385,o),
(12,55,c)
);
},
{
closed = 1;
nodes = (
(270,10,o),
(356,-12,o),
(410,-12,cs),
(493,-12,o),
(539,41,o),
(553,144,c),
(486,121,o),
(324,106,o),
(205,106,cs),
(162,106,o),
(155,108,o),
(133,108,cs),
(-11,108,o),
(-42,21,o),
(-50,-10,c),
(12,6,o),
(86,10,o),
(141,10,cs)
);
},
{
closed = 1;
nodes = (
(76,667,o),
(84,627,o),
(133,627,cs),
(180,627,o),
(426,673,o),
(485,686,c),
(528,775,l),
(480,769,o),
(426,767,o),
(373,767,cs),
(239,767,o),
(113,780,o),
(84,784,c),
(80,772,o),
(76,749,o),
(76,715,cs)
);
}
);
width = 612;
},
{
anchors = (
{
name = bottom;
pos = (292,0);
},
{
name = top;
pos = (376,847);
}
);
background = {
shapes = (
{
closed = 1;
nodes = (
(187,81,l),
(357,355,o),
(626,578,o),
(626,706,cs),
(626,738,o),
(608,790,o),
(560,838,c),
(528,696,o),
(320,385,o),
(36,55,c)
);
},
{
closed = 1;
nodes = (
(292,10,o),
(373,-12,o),
(442,-12,cs),
(513,-12,o),
(565,44,o),
(577,144,c),
(510,122,o),
(364,106,o),
(218,106,cs),
(198,106,o),
(175,108,o),
(155,108,cs),
(13,108,o),
(-18,21,o),
(-26,-10,c),
(36,6,o),
(108,10,o),
(171,10,cs)
);
},
{
closed = 1;
nodes = (
(100,676,o),
(108,627,o),
(148,627,cs),
(223,627,o),
(509,686,o),
(509,686,c),
(524,717,o),
(537,742,o),
(552,775,c),
(504,769,o),
(450,767,o),
(400,767,cs),
(262,767,o),
(137,780,o),
(108,784,c),
(104,772,o),
(101,747,o),
(100,719,c)
);
}
);
};
layerId = "BF8042A9-B348-454C-A59B-E2F834F64B4C";
shapes = (
{
closed = 1;
nodes = (
(195,75,l),
(370,385,o),
(631,562,o),
(631,714,cs),
(631,769,o),
(591,809,o),
(535,838,c),
(498,688,o),
(304,401,o),
(16,49,c)
);
},
{
closed = 1;
nodes = (
(295,6,o),
(385,-19,o),
(435,-19,cs),
(524,-19,o),
(571,55,o),
(588,196,c),
(532,167,o),
(375,143,o),
(231,143,cs),
(191,143,o),
(177,145,o),
(159,145,cs),
(14,145,o),
(-22,28,o),
(-31,-19,c),
(36,2,o),
(111,6,o),
(165,6,cs)
);
},
{
closed = 1;
nodes = (
(83,634,o),
(93,595,o),
(144,595,cs),
(210,595,o),
(406,655,o),
(483,679,c),
(529,787,l),
(483,777,o),
(430,775,o),
(382,775,cs),
(239,775,o),
(122,792,o),
(97,797,c),
(89,779,o),
(83,733,o),
(83,696,cs)
);
}
);
width = 656;
},
{
anchors = (
{
name = bottom;
pos = (242,0);
},
{
name = top;
pos = (350,847);
}
);
hints = (
{
horizontal = 1;
origin = (1,2);
target = (1,8);
type = Stem;
},
{
horizontal = 1;
place = (854, 78);
place = (854, 78);
type = Stem;
},
{
horizontal = 1;
origin = (1,8);
target = (1,17);
type = Stem;
}
);
layerId = "540B6D0C-2188-4C95-B7F2-D6A6068F7705";
shapes = (
{
closed = 1;
nodes = (
(116,59,l),
(286,335,o),
(536,577,o),
(536,710,cs),
(536,730,o),
(534,786,o),
(501,838,c),
(472,698,o),
(269,358,o),
(1,33,c)
);
},
{
closed = 1;
nodes = (
(239,13,o),
(314,-2,o),
(362,-2,cs),
(430,-2,o),
(474,28,o),
(487,99,c),
(422,83,o),
(271,75,o),
(183,75,cs),
(141,75,o),
(140,77,o),
(117,77,cs),
(-9,77,o),
(-34,19,o),
(-42,1,c),
(12,11,o),
(77,13,o),
(125,13,cs)
);
},
{
closed = 1;
nodes = (
(83,698,o),
(91,667,o),
(135,667,cs),
(178,667,o),
(396,697,o),
(454,705,c),
(491,765,l),
(448,762,o),
(401,760,o),
(349,760,cs),
(233,760,o),
(117,770,o),
(90,773,c),
(87,763,o),
(83,751,o),
(83,728,cs)
);
}
);
width = 554.55556;
}
);
unicode = 90;
},
{
glyphname = a;
kernLeft = a;
lastChange = "2022-09-23 07:47:40 +0000";
layers = (
{
anchors = (
{
name = bottom;
pos = (295,0);
},
{
name = ogonek;
pos = (543,-33);
},
{
name = top;
pos = (367,599);
}
);
background = {
shapes = (
{
closed = 1;
nodes = (
(372,145,o),
(380,137,o),
(390,137,cs),
(400,137,o),
(409,145,o),
(409,155,cs),
(409,165,o),
(400,174,o),
(390,174,cs),
(380,174,o),
(372,165,o),
(372,155,cs)
);
}
);
};
hints = (
{
horizontal = 1;
origin = (0,39);
target = (0,24);
type = Stem;
},
{
origin = (0,36);
target = (0,27);
type = Stem;
},
{
origin = (0,3);
target = (0,9);
type = Stem;
},
{
origin = (0,21);
target = (0,12);
type = Stem;
}
);
layerId = UUID0;
shapes = (
{
closed = 1;
nodes = (
(424,168,l),
(423,162,o),
(423,160,o),
(423,149,cs),
(423,38,o),
(458,-16,o),
(543,-33,c),
(520,19,o),
(512,54,o),
(512,111,cs),
(512,258,o),
(560,419,o),
(560,488,cs),
(560,541,o),
(530,570,o),
(476,570,cs),
(466,570,o),
(456,569,o),
(443,568,c),
(448,540,o),
(451,501,o),
(451,466,cs),
(451,263,o),
(350,73,o),
(242,73,cs),
(190,73,o),
(161,118,o),
(161,199,cs),
(161,361,o),
(262,501,o),
(407,537,c),
(375,546,o),
(350,551,o),
(328,551,cs),
(176,551,o),
(53,387,o),
(53,186,cs),
(53,60,o),
(105,-12,o),
(195,-12,cs),
(284,-12,o),
(378,65,o),
(417,170,c)
);
}
);
width = 635;
},
{
anchors = (
{
name = bottom;
pos = (295,0);
},
{
name = ogonek;
pos = (558,-33);
},
{
name = top;
pos = (367,599);
}
);
background = {
shapes = (
{
closed = 1;
nodes = (
(377,146,o),
(385,138,o),
(395,138,cs),
(405,138,o),
(414,146,o),
(414,156,cs),
(414,166,o),
(405,175,o),
(395,175,cs),
(385,175,o),
(377,166,o),
(377,156,cs)
);
}
);
};
layerId = UUID1;
shapes = (
{
closed = 1;
nodes = (
(414,170,l),
(413,166,o),
(413,164,o),
(413,156,cs),
(413,38,o),
(452,-13,o),
(558,-33,c),
(535,18,o),
(527,53,o),
(527,111,cs),
(527,258,o),
(575,419,o),
(575,488,cs),
(575,544,o),
(543,570,o),
(474,570,cs),
(449,570,o),
(442,570,o),
(430,568,c),
(434,544,o),
(436,506,o),
(436,465,cs),
(436,268,o),
(348,83,o),
(254,83,cs),
(211,83,o),
(186,123,o),
(186,191,cs),
(186,338,o),
(286,494,o),
(407,537,c),
(388,550,o),
(359,557,o),
(326,557,cs),
(173,557,o),
(38,380,o),
(38,181,cs),
(38,63,o),
(93,-12,o),
(181,-12,cs),
(273,-12,o),
(368,66,o),
(408,172,c)
);
}
);
width = 635;
},
{
anchors = (
{
name = bottom;
pos = (305,0);
},
{
name = ogonek;
pos = (588,-33);
},
{
name = top;
pos = (377,599);
}
);
background = {
shapes = (
{
closed = 1;
nodes = (
(387,146,o),
(395,138,o),
(405,138,cs),
(415,138,o),
(424,146,o),
(424,156,cs),
(424,166,o),
(415,175,o),
(405,175,cs),
(395,175,o),
(387,166,o),
(387,156,cs)
);
}
);
};
layerId = "BF8042A9-B348-454C-A59B-E2F834F64B4C";
shapes = (
{
closed = 1;
nodes = (
(384,147,l),
(383,143,o),
(383,142,o),
(383,127,cs),
(383,17,o),
(447,-33,o),
(588,-33,c),
(565,19,o),
(557,54,o),
(557,110,cs),
(557,257,o),
(605,421,o),
(605,486,cs),
(605,544,o),
(568,570,o),
(486,570,cs),
(453,570,o),
(430,567,o),
(400,558,c),
(404,534,o),
(406,500,o),
(406,464,cs),
(406,286,o),
(334,83,o),
(271,83,cs),
(243,83,o),
(226,122,o),
(226,184,cs),
(226,338,o),
(328,493,o),
(457,537,c),
(427,549,o),
(381,557,o),
(344,557,cs),
(174,557,o),
(28,384,o),
(28,182,cs),
(28,59,o),
(82,-12,o),
(177,-12,cs),
(264,-12,o),
(338,47,o),
(377,148,c)
);
}
);
width = 655;
},
{
anchors = (
{
name = bottom;
pos = (293,0);
},
{
name = ogonek;
pos = (533,-33);
},
{
name = top;
pos = (365,599);
}
);
hints = (
{
horizontal = 1;
origin = (0,39);
target = (0,24);
type = Stem;
},
{
origin = (0,36);
target = (0,27);
type = Stem;
},
{
origin = (0,3);
target = (0,9);
type = Stem;
},
{
origin = (0,21);
target = (0,12);
type = Stem;
}
);
layerId = "540B6D0C-2188-4C95-B7F2-D6A6068F7705";
shapes = (
{
closed = 1;
nodes = (
(433,173,l),
(432,166,o),
(432,164,o),
(432,154,cs),
(432,43,o),
(460,-12,o),
(533,-33,c),
(510,19,o),
(502,54,o),
(502,111,cs),
(502,258,o),
(550,419,o),
(550,488,cs),
(550,540,o),
(522,570,o),
(474,570,cs),
(469,570,o),
(462,569,o),
(453,570,c),
(458,541,o),
(461,501,o),
(461,466,cs),
(461,258,o),
(354,71,o),
(236,71,cs),
(178,71,o),
(147,117,o),
(147,202,cs),
(147,366,o),
(247,503,o),
(396,537,c),
(363,545,o),
(343,550,o),
(324,550,cs),
(176,550,o),
(59,388,o),
(59,187,cs),
(59,60,o),
(110,-12,o),
(199,-12,cs),
(288,-12,o),
(387,69,o),
(426,175,c)
);
}
);
width = 630.55556;
}
);
unicode = 97;
},
{
glyphname = ae;
kernLeft = a;
kernRight = b;
lastChange = "2022-09-23 07:47:40 +0000";
layers = (
{
anchors = (
{
name = bottom;
pos = (449,0);
},
{
name = top;
pos = (502,599);
}
);
background = {
shapes = (
{
closed = 1;
nodes = (
(723,525,o),
(742,493,o),
(742,452,cs),
(742,384,o),
(698,294,o),
(550,294,cs),
(522,294,l),
(539,404,o),
(593,525,o),
(679,525,cs)
);
},
{
closed = 1;
nodes = (
(414,168,l),
(431,39,o),
(512,-15,o),
(594,-15,cs),
(680,-15,o),
(755,15,o),
(820,120,c),
(820,138,o),
(804,144,o),
(783,147,c),
(743,84,o),
(687,49,o),
(622,49,cs),
(552,49,o),
(517,110,o),
(517,226,cs),
(517,236,o),
(517,247,o),
(518,257,c),
(548,250,o),
(582,246,o),
(624,246,cs),
(733,246,o),
(848,308,o),
(848,432,cs),
(848,526,o),
(798,577,o),
(698,577,cs),
(614,577,o),
(547,541,o),
(500,487,c)
);
},
{
closed = 1;
nodes = (
(188,73,o),
(161,128,o),
(161,189,cs),
(161,309,o),
(241,495,o),
(407,537,c),
(380,546,o),
(354,551,o),
(330,551,cs),
(159,551,o),
(53,337,o),
(53,181,cs),
(53,50,o),
(117,-12,o),
(194,-12,cs),
(273,-12,o),
(369,53,o),
(414,163,c),
(509,483,l),
(509,553,o),
(509,570,o),
(486,570,cs),
(477,570,o),
(457,569,o),
(445,568,c),
(450,528,o),
(451,490,o),
(451,454,cs),
(451,269,o),
(348,73,o),
(244,73,cs)
);
}
);
};
hints = (
{
horizontal = 1;
origin = (0,30);
target = (1,8);
type = Stem;
},
{
horizontal = 1;
origin = (1,25);
target = (1,21);
type = Stem;
},
{
horizontal = 1;
origin = (1,14);
target = (1,31);
type = Stem;
},
{
horizontal = 1;
origin = (0,30);
target = (0,15);
type = Stem;
},
{
origin = (0,27);
target = (0,18);
type = Stem;
},
{
origin = (0,12);
target = (0,3);
type = Stem;
},
{
origin = (1,17);
target = (1,28);
type = Stem;
}
);
layerId = UUID0;
shapes = (
{
closed = 1;
nodes = (
(280,-15,o),
(372,58,o),
(414,160,c),
(509,480,l),
(509,554,o),
(505,567,o),
(482,567,cs),
(471,567,o),
(449,566,o),
(445,565,c),
(449,541,o),
(451,500,o),
(451,463,cs),
(451,263,o),
(349,70,o),
(244,70,cs),
(193,70,o),
(161,117,o),
(161,191,cs),
(161,343,o),
(275,502,o),
(407,534,c),
(378,543,o),
(352,548,o),
(328,548,cs),
(184,548,o),
(53,369,o),
(53,173,cs),
(53,59,o),
(109,-15,o),
(194,-15,cs)
);
},
{
closed = 1;
nodes = (
(692,-15,o),
(762,27,o),
(820,120,c),
(820,135,o),
(809,143,o),
(783,147,c),
(742,83,o),
(686,49,o),
(622,49,cs),
(553,49,o),
(517,109,o),
(517,226,cs),
(517,352,o),
(578,525,o),
(679,525,cs),
(719,525,o),
(742,498,o),
(742,452,cs),
(742,357,o),
(665,294,o),
(550,294,cs),
(513,294,l),
(510,259,l),
(544,251,o),
(581,246,o),
(624,246,cs),
(753,246,o),
(848,325,o),
(848,432,cs),
(848,527,o),
(797,577,o),
(698,577,cs),
(617,577,o),
(545,540,o),
(494,478,c),
(412,205,l),
(420,75,o),
(493,-15,o),
(594,-15,cs)
);
}
);
width = 888;
},
{
anchors = (
{
name = bottom;
pos = (452,0);
},
{
name = top;
pos = (505,599);
}
);
background = {
shapes = (
{
closed = 1;
nodes = (
(716,515,o),
(732,483,o),
(732,452,cs),
(732,379,o),
(687,299,o),
(562,299,cs),
(547,299,l),
(561,409,o),
(607,515,o),
(679,515,cs)
);
},
{
closed = 1;
nodes = (
(400,178,l),
(420,49,o),
(514,-15,o),
(593,-15,cs),
(661,-15,o),
(756,13,o),
(818,120,c),
(818,138,o),
(804,152,o),
(782,157,c),
(742,94,o),
(686,59,o),
(637,59,cs),
(580,59,o),
(542,110,o),
(542,226,cs),
(542,236,o),
(542,247,o),
(543,257,c),
(572,250,o),
(605,246,o),
(637,246,cs),
(751,246,o),
(863,298,o),
(863,432,cs),
(863,516,o),
(810,577,o),
(703,577,cs),
(613,577,o),
(543,541,o),
(492,487,c)
);
},
{
closed = 1;
nodes = (
(209,83,o),
(186,128,o),
(186,189,cs),
(186,309,o),
(262,486,o),
(407,537,c),
(387,549,o),
(358,557,o),
(326,557,cs),
(147,557,o),
(38,346,o),
(38,181,cs),
(38,50,o),
(103,-12,o),
(181,-12,cs),
(262,-12,o),
(359,53,o),
(405,163,c),
(509,483,l),
(509,553,o),
(509,570,o),
(481,570,cs),
(469,570,o),
(445,569,o),
(430,568,c),
(435,528,o),
(436,490,o),
(436,454,cs),
(436,274,o),
(349,83,o),
(253,83,cs)
);
}
);
};
layerId = UUID1;
shapes = (
{
closed = 1;
nodes = (
(262,-15,o),
(359,50,o),
(405,160,c),
(509,480,l),
(509,550,o),
(509,567,o),
(481,567,cs),
(469,567,o),
(445,566,o),
(430,565,c),
(435,525,o),
(436,487,o),
(436,451,cs),
(436,271,o),
(349,80,o),
(253,80,cs),
(209,80,o),
(186,125,o),
(186,186,cs),
(186,306,o),
(262,483,o),
(407,534,c),
(387,546,o),
(358,554,o),
(326,554,cs),
(147,554,o),
(38,343,o),
(38,178,cs),
(38,47,o),
(103,-15,o),
(181,-15,cs)
);
},
{
closed = 1;
nodes = (
(689,-15,o),
(771,33,o),
(826,120,c),
(826,138,o),
(813,151,o),
(790,157,c),
(747,93,o),
(694,59,o),
(637,59,cs),
(576,59,o),
(542,118,o),
(542,226,cs),
(542,346,o),
(588,515,o),
(679,515,cs),
(711,515,o),
(732,489,o),
(732,452,cs),
(732,359,o),
(665,299,o),
(562,299,cs),
(536,299,l),
(533,259,l),
(565,251,o),
(601,246,o),
(637,246,cs),
(772,246,o),
(863,321,o),
(863,432,cs),
(863,522,o),
(803,577,o),
(703,577,cs),
(620,577,o),
(546,543,o),
(492,486,c),
(398,185,l),
(412,62,o),
(485,-15,o),
(593,-15,cs)
);
}
);
width = 893;
},
{
anchors = (
{
name = bottom;
pos = (453,0);
},
{
name = top;
pos = (506,599);
}
);
layerId = "BF8042A9-B348-454C-A59B-E2F834F64B4C";
shapes = (
{
closed = 1;
nodes = (
(283,-15,o),
(372,72,o),
(420,222,c),
(605,483,l),
(605,541,o),
(568,567,o),
(486,567,cs),
(455,567,o),
(432,564,o),
(400,555,c),
(404,529,o),
(406,495,o),
(406,461,cs),
(406,283,o),
(334,80,o),
(271,80,cs),
(243,80,o),
(226,119,o),
(226,181,cs),
(226,335,o),
(328,490,o),
(457,534,c),
(427,546,o),
(381,554,o),
(344,554,cs),
(174,554,o),
(28,381,o),
(28,179,cs),
(28,56,o),
(82,-15,o),
(177,-15,cs)
);
},
{
closed = 1;
nodes = (
(722,-15,o),
(804,33,o),
(859,120,c),
(859,138,o),
(846,151,o),
(823,157,c),
(786,93,o),
(739,59,o),
(690,59,cs),
(626,59,o),
(595,101,o),
(595,236,cs),
(595,334,o),
(620,515,o),
(672,515,cs),
(692,515,o),
(705,489,o),
(705,452,cs),
(705,359,o),
(670,299,o),
(615,299,cs),
(589,299,l),
(586,260,l),
(612,251,o),
(639,246,o),
(670,246,cs),
(805,246,o),
(896,321,o),
(896,432,cs),
(896,522,o),
(828,577,o),
(716,577,cs),
(648,577,o),
(586,557,o),
(535,522,c),
(390,198,l),
(402,67,o),
(492,-15,o),
(626,-15,cs)
);
}
);
width = 936;
},
{
anchors = (
{
name = bottom;
pos = (448,0);
},
{
name = top;
pos = (501,599);
}
);
hints = (
{
horizontal = 1;
origin = (0,30);
target = (1,8);
type = Stem;
},
{
horizontal = 1;
origin = (1,25);
target = (1,21);
type = Stem;
},
{
horizontal = 1;
origin = (1,14);
target = (1,31);
type = Stem;
},
{
horizontal = 1;
origin = (0,30);
target = (0,15);
type = Stem;
},
{
origin = (0,27);
target = (0,18);
type = Stem;
},
{
origin = (0,12);
target = (0,3);
type = Stem;
},
{
origin = (1,17);
target = (1,28);
type = Stem;
}
);
layerId = "540B6D0C-2188-4C95-B7F2-D6A6068F7705";
shapes = (
{
closed = 1;
nodes = (
(279,-15,o),
(372,55,o),
(413,146,c),
(488,479,l),
(488,557,o),
(491,567,o),
(481,567,cs),
(475,567,o),
(453,566,o),
(455,567,c),
(459,544,o),
(461,501,o),
(461,463,cs),
(461,259,o),
(352,68,o),
(238,68,cs),
(182,68,o),
(147,117,o),
(147,193,cs),
(147,345,o),
(263,505,o),
(396,534,c),
(367,542,o),
(346,547,o),
(324,547,cs),
(186,547,o),
(59,366,o),
(59,172,cs),
(59,60,o),
(115,-15,o),
(198,-15,cs)
);
},
{
closed = 1;
nodes = (
(685,-15,o),
(753,26,o),
(811,120,c),
(811,134,o),
(801,141,o),
(774,145,c),
(732,81,o),
(674,47,o),
(607,47,cs),
(537,47,o),
(500,111,o),
(500,224,cs),
(500,356,o),
(569,527,o),
(681,527,cs),
(725,527,o),
(750,500,o),
(750,452,cs),
(750,357,o),
(664,293,o),
(536,293,cs),
(496,293,l),
(493,259,l),
(529,251,o),
(568,246,o),
(614,246,cs),
(741,246,o),
(837,326,o),
(837,432,cs),
(837,528,o),
(790,577,o),
(694,577,cs),
(610,577,o),
(536,536,o),
(485,468,c),
(417,207,l),
(424,77,o),
(493,-15,o),
(587,-15,cs)
);
}
);
width = 877.33333;
}
);
metricLeft = a;
metricRight = e;
unicode = 230;
},
{
glyphname = b;
kernRight = b;
lastChange = "2022-09-23 07:47:40 +0000";
layers = (
{
hints = (
{
place = (101, 95);
place = (101, 95);
type = Stem;
},
{
place = (168, 28);
place = (168, 28);
type = Stem;
},
{
place = (462, 108);
place = (462, 108);
type = Stem;
},
{
place = (168, 90);
place = (168, 90);
type = Stem;
},
{
horizontal = 1;
place = (483, 94);
place = (483, 94);
type = Stem;
},
{
horizontal = 1;
place = (957, -20);
target = down;
type = TopGhost;
},
{
horizontal = 1;
place = (-18, 21);
target = up;
type = BottomGhost;
}
);
layerId = UUID0;
shapes = (
{
closed = 1;
nodes = (
(215,394,l),
(231,550,o),
(258,686,o),
(258,764,cs),
(258,852,o),
(237,929,o),
(159,957,c),
(165,911,o),
(168,864,o),
(168,817,cs),
(168,582,o),
(101,350,o),
(101,189,cs),
(101,82,o),
(144,5,o),
(215,-18,c),
(202,27,o),
(196,74,o),
(196,119,cs),
(196,304,o),
(288,483,o),
(375,483,cs),
(440,483,o),
(462,412,o),
(462,350,cs),
(462,229,o),
(393,49,o),
(257,16,c),
(277,10,o),
(297,7,o),
(316,7,cs),
(459,7,o),
(570,161,o),
(570,360,cs),
(570,491,o),
(495,577,o),
(418,577,cs),
(336,577,o),
(264,511,o),
(223,392,c)
);
}
);
width = 641;
},
{
layerId = UUID1;
shapes = (
{
closed = 1;
nodes = (
(225,392,l),
(241,549,o),
(268,686,o),
(268,764,cs),
(268,852,o),
(247,929,o),
(144,957,c),
(150,911,o),
(153,864,o),
(153,817,cs),
(153,582,o),
(86,350,o),
(86,189,cs),
(86,82,o),
(129,5,o),
(230,-18,c),
(217,27,o),
(211,74,o),
(211,119,cs),
(211,304,o),
(305,473,o),
(369,473,cs),
(418,473,o),
(437,412,o),
(437,350,cs),
(437,229,o),
(376,49,o),
(257,16,c),
(277,8,o),
(296,3,o),
(316,2,cs),
(461,-8,o),
(585,160,o),
(585,360,cs),
(585,491,o),
(509,577,o),
(431,577,cs),
(347,577,o),
(275,510,o),
(233,390,c)
);
}
);
width = 641;
},
{
layerId = "BF8042A9-B348-454C-A59B-E2F834F64B4C";
shapes = (
{
closed = 1;
nodes = (
(276,428,l),
(292,560,o),
(317,699,o),
(319,764,cs),
(322,886,o),
(254,957,o),
(134,957,c),
(140,899,o),
(143,836,o),
(143,776,cs),
(143,565,o),
(76,328,o),
(76,201,cs),
(76,80,o),
(130,-18,o),
(280,-18,c),
(267,27,o),
(261,71,o),
(261,127,cs),
(261,303,o),
(317,473,o),
(365,473,cs),
(393,473,o),
(407,412,o),
(407,352,cs),
(407,228,o),
(346,49,o),
(227,16,c),
(259,8,o),
(294,3,o),
(326,2,cs),
(498,-2,o),
(615,178,o),
(615,349,cs),
(615,503,o),
(521,577,o),
(444,577,cs),
(374,577,o),
(319,525,o),
(284,427,c)
);
}
);
width = 661;
},
{
hints = (
{
place = (123, 116);
place = (123, 116);
type = Stem;
},
{
place = (205, 34);
place = (205, 34);
type = Stem;
},
{
place = (565, 132);
place = (565, 132);
type = Stem;
},
{
place = (205, 110);
place = (205, 110);
type = Stem;
},
{
horizontal = 1;
place = (590, 115);
place = (590, 115);
type = Stem;
},
{
horizontal = 1;
place = (1170, -20);
target = down;
type = TopGhost;
},
{
horizontal = 1;
place = (-22, 21);
target = up;
type = BottomGhost;
}
);
layerId = "540B6D0C-2188-4C95-B7F2-D6A6068F7705";
shapes = (
{
closed = 1;
nodes = (
(201,386,l),
(217,548,o),
(245,683,o),
(244,764,cs),
(244,844,o),
(233,923,o),
(165,957,c),
(171,914,o),
(174,870,o),
(174,826,cs),
(174,586,o),
(107,355,o),
(107,186,cs),
(107,82,o),
(147,10,o),
(201,-18,c),
(188,27,o),
(182,75,o),
(182,117,cs),
(182,304,o),
(282,485,o),
(377,485,cs),
(450,485,o),
(474,412,o),
(474,350,cs),
(474,229,o),
(403,49,o),
(264,16,c),
(281,10,o),
(298,8,o),
(314,8,cs),
(450,9,o),
(560,157,o),
(560,362,cs),
(560,488,o),
(489,577,o),
(412,577,cs),
(328,577,o),
(252,508,o),
(209,384,c)
);
}
);
width = 636.55556;
}
);
unicode = 98;
},
